M48
; DRILL file {KiCad 7.0.8} date Tue Jan  2 21:29:11 2024
; FORMAT={-:-/ absolute / metric / decimal}
; #@! TF.CreationDate,2024-01-02T21:29:11+01:00
; #@! TF.GenerationSoftware,Kicad,Pcbnew,7.0.8
; #@! TF.FileFunction,Plated,1,2,PTH
FMAT,2
METRIC
; #@! TA.AperFunction,Plated,PTH,ViaDrill
T1C0.500
; #@! TA.AperFunction,Plated,PTH,ComponentDrill
T2C0.600
; #@! TA.AperFunction,Plated,PTH,ComponentDrill
T3C0.762
; #@! TA.AperFunction,Plated,PTH,ComponentDrill
T4C0.800
; #@! TA.AperFunction,Plated,PTH,ComponentDrill
T5C0.900
; #@! TA.AperFunction,Plated,PTH,ComponentDrill
T6C0.950
; #@! TA.AperFunction,Plated,PTH,ComponentDrill
T7C1.000
%
G90
G05
T1
X88.374Y-100.9
X89.67Y-107.85
X91.15Y-96.7
X93.95Y-101.85
X93.95Y-108.85
X94.0Y-99.95
X94.05Y-81.25
X95.3Y-108.85
X96.51Y-108.6
X111.95Y-118.8
X123.57Y-120.78
X130.57Y-120.78
X131.12Y-74.1
X133.2Y-107.4
X137.58Y-120.78
X137.975Y-112.425
X138.14Y-74.11
X140.16Y-92.45
X140.212Y-115.656
X141.0Y-89.025
X144.53Y-91.39
X147.76Y-91.825
X156.57Y-91.82
X162.0Y-92.15
X162.5Y-130.5
X162.5Y-132.0
X162.5Y-133.1
X162.7Y-125.05
X164.592Y-81.788
X165.788Y-80.4
X168.35Y-105.95
X169.25Y-105.46
X170.35Y-90.1
X170.51Y-119.74
X171.54Y-109.16
X172.281Y-108.489
X174.244Y-74.168
X174.27Y-116.17
X176.062Y-121.812
X176.35Y-89.1
X176.825Y-122.575
X178.15Y-124.1
X178.17Y-80.44
X178.85Y-105.75
X178.85Y-108.35
X179.65Y-92.1
X180.6Y-115.7
X180.75Y-108.35
X180.883Y-74.133
X181.05Y-135.45
X181.3Y-114.65
X181.474Y-121.95
X181.683Y-136.224
X181.826Y-128.1
X182.05Y-86.95
X182.701Y-122.152
X183.22Y-120.424
X184.3Y-113.9
X184.85Y-118.65
X186.2Y-84.25
X186.55Y-102.4
X187.05Y-99.4
X187.25Y-127.6
X188.15Y-115.25
X188.3Y-110.2
X188.925Y-90.425
X189.025Y-111.475
X190.1Y-112.05
X191.75Y-108.25
X191.882Y-116.84
X192.65Y-116.2
X193.25Y-110.3
X193.25Y-114.75
X193.275Y-112.85
X194.4Y-94.4
X195.624Y-112.85
T2
X137.0Y-94.625
X137.975Y-107.375
X138.975Y-94.625
X139.975Y-107.375
X140.975Y-94.625
X141.975Y-107.375
X142.975Y-94.625
X143.975Y-107.375
X144.975Y-94.625
X145.975Y-107.375
X146.975Y-94.625
X147.975Y-107.375
X148.975Y-94.625
X149.975Y-107.375
X150.975Y-94.625
X151.975Y-107.375
X152.975Y-94.625
X153.975Y-107.375
X154.975Y-94.625
X155.975Y-107.375
T3
X111.975Y-109.92
X114.475Y-109.92
X116.975Y-109.92
X153.975Y-118.5
X153.975Y-121.0
X153.975Y-123.5
T4
X159.9Y-85.55
X167.52Y-85.55
T5
X124.313Y-112.2
X126.472Y-112.2
X128.631Y-112.2
X130.79Y-112.2
X172.275Y-99.725
X172.275Y-102.265
T6
X128.975Y-85.3
X131.475Y-85.3
X133.975Y-85.3
X136.475Y-85.3
X138.975Y-85.3
T7
X104.975Y-83.84
X104.975Y-88.92
X104.975Y-94.0
X104.975Y-107.84
X104.975Y-112.92
X104.975Y-118.0
X113.975Y-83.92
X113.975Y-89.0
X113.975Y-94.08
X121.975Y-100.92
X127.055Y-100.92
X132.135Y-100.92
X154.975Y-83.0
X154.975Y-85.5
T2
G00X81.39Y-96.6
M15
G01X80.79Y-96.6
M16
G05
G00X81.39Y-105.24
M15
G01X80.79Y-105.24
M16
G05
G00X85.82Y-96.6
M15
G01X84.72Y-96.6
M16
G05
G00X85.82Y-105.24
M15
G01X84.72Y-105.24
M16
G05
T0
M30
