%TF.GenerationSoftware,KiCad,Pcbnew,7.0.8*%
%TF.CreationDate,2024-01-02T21:28:17+01:00*%
%TF.ProjectId,Computer Mouse,436f6d70-7574-4657-9220-4d6f7573652e,rev?*%
%TF.SameCoordinates,Original*%
%TF.FileFunction,Copper,L1,Top*%
%TF.FilePolarity,Positive*%
%FSLAX46Y46*%
G04 Gerber Fmt 4.6, Leading zero omitted, Abs format (unit mm)*
G04 Created by KiCad (PCBNEW 7.0.8) date 2024-01-02 21:28:17*
%MOMM*%
%LPD*%
G01*
G04 APERTURE LIST*
G04 Aperture macros list*
%AMRoundRect*
0 Rectangle with rounded corners*
0 $1 Rounding radius*
0 $2 $3 $4 $5 $6 $7 $8 $9 X,Y pos of 4 corners*
0 Add a 4 corners polygon primitive as box body*
4,1,4,$2,$3,$4,$5,$6,$7,$8,$9,$2,$3,0*
0 Add four circle primitives for the rounded corners*
1,1,$1+$1,$2,$3*
1,1,$1+$1,$4,$5*
1,1,$1+$1,$6,$7*
1,1,$1+$1,$8,$9*
0 Add four rect primitives between the rounded corners*
20,1,$1+$1,$2,$3,$4,$5,0*
20,1,$1+$1,$4,$5,$6,$7,0*
20,1,$1+$1,$6,$7,$8,$9,0*
20,1,$1+$1,$8,$9,$2,$3,0*%
G04 Aperture macros list end*
%TA.AperFunction,SMDPad,CuDef*%
%ADD10RoundRect,0.250000X-0.450000X0.262500X-0.450000X-0.262500X0.450000X-0.262500X0.450000X0.262500X0*%
%TD*%
%TA.AperFunction,SMDPad,CuDef*%
%ADD11RoundRect,0.150000X-0.512500X-0.150000X0.512500X-0.150000X0.512500X0.150000X-0.512500X0.150000X0*%
%TD*%
%TA.AperFunction,SMDPad,CuDef*%
%ADD12R,0.700000X1.500000*%
%TD*%
%TA.AperFunction,SMDPad,CuDef*%
%ADD13R,1.500000X0.700000*%
%TD*%
%TA.AperFunction,SMDPad,CuDef*%
%ADD14RoundRect,0.075000X-0.700000X-0.075000X0.700000X-0.075000X0.700000X0.075000X-0.700000X0.075000X0*%
%TD*%
%TA.AperFunction,SMDPad,CuDef*%
%ADD15RoundRect,0.075000X-0.075000X-0.700000X0.075000X-0.700000X0.075000X0.700000X-0.075000X0.700000X0*%
%TD*%
%TA.AperFunction,SMDPad,CuDef*%
%ADD16RoundRect,0.250000X-0.475000X0.250000X-0.475000X-0.250000X0.475000X-0.250000X0.475000X0.250000X0*%
%TD*%
%TA.AperFunction,SMDPad,CuDef*%
%ADD17RoundRect,0.225000X-0.225000X-0.250000X0.225000X-0.250000X0.225000X0.250000X-0.225000X0.250000X0*%
%TD*%
%TA.AperFunction,SMDPad,CuDef*%
%ADD18RoundRect,0.200000X0.275000X-0.200000X0.275000X0.200000X-0.275000X0.200000X-0.275000X-0.200000X0*%
%TD*%
%TA.AperFunction,SMDPad,CuDef*%
%ADD19RoundRect,0.250000X-0.312500X-0.625000X0.312500X-0.625000X0.312500X0.625000X-0.312500X0.625000X0*%
%TD*%
%TA.AperFunction,SMDPad,CuDef*%
%ADD20RoundRect,0.150000X0.150000X-0.512500X0.150000X0.512500X-0.150000X0.512500X-0.150000X-0.512500X0*%
%TD*%
%TA.AperFunction,WasherPad*%
%ADD21R,1.800000X2.100000*%
%TD*%
%TA.AperFunction,ComponentPad*%
%ADD22C,1.540000*%
%TD*%
%TA.AperFunction,ComponentPad*%
%ADD23C,1.524000*%
%TD*%
%TA.AperFunction,SMDPad,CuDef*%
%ADD24RoundRect,0.250000X-1.075000X0.375000X-1.075000X-0.375000X1.075000X-0.375000X1.075000X0.375000X0*%
%TD*%
%TA.AperFunction,SMDPad,CuDef*%
%ADD25RoundRect,0.200000X0.200000X0.275000X-0.200000X0.275000X-0.200000X-0.275000X0.200000X-0.275000X0*%
%TD*%
%TA.AperFunction,SMDPad,CuDef*%
%ADD26RoundRect,0.250000X0.650000X2.450000X-0.650000X2.450000X-0.650000X-2.450000X0.650000X-2.450000X0*%
%TD*%
%TA.AperFunction,SMDPad,CuDef*%
%ADD27RoundRect,0.250000X-0.250000X-0.475000X0.250000X-0.475000X0.250000X0.475000X-0.250000X0.475000X0*%
%TD*%
%TA.AperFunction,SMDPad,CuDef*%
%ADD28RoundRect,0.137500X0.137500X-0.587500X0.137500X0.587500X-0.137500X0.587500X-0.137500X-0.587500X0*%
%TD*%
%TA.AperFunction,SMDPad,CuDef*%
%ADD29RoundRect,0.225000X-0.250000X0.225000X-0.250000X-0.225000X0.250000X-0.225000X0.250000X0.225000X0*%
%TD*%
%TA.AperFunction,SMDPad,CuDef*%
%ADD30RoundRect,0.250000X-0.625000X0.312500X-0.625000X-0.312500X0.625000X-0.312500X0.625000X0.312500X0*%
%TD*%
%TA.AperFunction,SMDPad,CuDef*%
%ADD31RoundRect,0.200000X-0.200000X-0.275000X0.200000X-0.275000X0.200000X0.275000X-0.200000X0.275000X0*%
%TD*%
%TA.AperFunction,SMDPad,CuDef*%
%ADD32RoundRect,0.250000X0.262500X0.450000X-0.262500X0.450000X-0.262500X-0.450000X0.262500X-0.450000X0*%
%TD*%
%TA.AperFunction,SMDPad,CuDef*%
%ADD33RoundRect,0.250000X0.475000X-0.250000X0.475000X0.250000X-0.475000X0.250000X-0.475000X-0.250000X0*%
%TD*%
%TA.AperFunction,SMDPad,CuDef*%
%ADD34R,1.500000X1.000000*%
%TD*%
%TA.AperFunction,SMDPad,CuDef*%
%ADD35RoundRect,0.250000X0.450000X-0.262500X0.450000X0.262500X-0.450000X0.262500X-0.450000X-0.262500X0*%
%TD*%
%TA.AperFunction,ComponentPad*%
%ADD36R,1.800000X1.800000*%
%TD*%
%TA.AperFunction,ComponentPad*%
%ADD37C,1.800000*%
%TD*%
%TA.AperFunction,SMDPad,CuDef*%
%ADD38RoundRect,0.200000X-0.275000X0.200000X-0.275000X-0.200000X0.275000X-0.200000X0.275000X0.200000X0*%
%TD*%
%TA.AperFunction,SMDPad,CuDef*%
%ADD39RoundRect,0.250000X0.325000X0.650000X-0.325000X0.650000X-0.325000X-0.650000X0.325000X-0.650000X0*%
%TD*%
%TA.AperFunction,SMDPad,CuDef*%
%ADD40RoundRect,0.250000X0.250000X0.475000X-0.250000X0.475000X-0.250000X-0.475000X0.250000X-0.475000X0*%
%TD*%
%TA.AperFunction,SMDPad,CuDef*%
%ADD41RoundRect,0.225000X0.250000X-0.225000X0.250000X0.225000X-0.250000X0.225000X-0.250000X-0.225000X0*%
%TD*%
%TA.AperFunction,SMDPad,CuDef*%
%ADD42RoundRect,0.237500X-0.287500X-0.237500X0.287500X-0.237500X0.287500X0.237500X-0.287500X0.237500X0*%
%TD*%
%TA.AperFunction,SMDPad,CuDef*%
%ADD43RoundRect,0.225000X0.225000X0.250000X-0.225000X0.250000X-0.225000X-0.250000X0.225000X-0.250000X0*%
%TD*%
%TA.AperFunction,WasherPad*%
%ADD44R,2.100000X1.800000*%
%TD*%
%TA.AperFunction,SMDPad,CuDef*%
%ADD45RoundRect,0.137500X-0.587500X-0.137500X0.587500X-0.137500X0.587500X0.137500X-0.587500X0.137500X0*%
%TD*%
%TA.AperFunction,SMDPad,CuDef*%
%ADD46R,1.450000X0.600000*%
%TD*%
%TA.AperFunction,SMDPad,CuDef*%
%ADD47R,1.450000X0.300000*%
%TD*%
%TA.AperFunction,ComponentPad*%
%ADD48O,2.100000X1.000000*%
%TD*%
%TA.AperFunction,ComponentPad*%
%ADD49O,1.600000X1.000000*%
%TD*%
%TA.AperFunction,ComponentPad*%
%ADD50RoundRect,0.250000X-0.750000X0.600000X-0.750000X-0.600000X0.750000X-0.600000X0.750000X0.600000X0*%
%TD*%
%TA.AperFunction,ComponentPad*%
%ADD51O,2.000000X1.700000*%
%TD*%
%TA.AperFunction,SMDPad,CuDef*%
%ADD52R,0.670000X0.300000*%
%TD*%
%TA.AperFunction,SMDPad,CuDef*%
%ADD53RoundRect,0.147500X-0.147500X-0.172500X0.147500X-0.172500X0.147500X0.172500X-0.147500X0.172500X0*%
%TD*%
%TA.AperFunction,SMDPad,CuDef*%
%ADD54RoundRect,0.250000X0.312500X0.625000X-0.312500X0.625000X-0.312500X-0.625000X0.312500X-0.625000X0*%
%TD*%
%TA.AperFunction,ComponentPad*%
%ADD55RoundRect,0.250000X0.600000X0.725000X-0.600000X0.725000X-0.600000X-0.725000X0.600000X-0.725000X0*%
%TD*%
%TA.AperFunction,ComponentPad*%
%ADD56O,1.700000X1.950000*%
%TD*%
%TA.AperFunction,ComponentPad*%
%ADD57R,1.600000X1.600000*%
%TD*%
%TA.AperFunction,ComponentPad*%
%ADD58O,1.600000X1.600000*%
%TD*%
%TA.AperFunction,ViaPad*%
%ADD59C,0.800000*%
%TD*%
%TA.AperFunction,Conductor*%
%ADD60C,0.250000*%
%TD*%
%TA.AperFunction,Conductor*%
%ADD61C,0.200000*%
%TD*%
G04 APERTURE END LIST*
%TA.AperFunction,EtchedComponent*%
%TO.C,JP1*%
G36*
X172800000Y-115750000D02*
G01*
X172400000Y-115750000D01*
X172400000Y-115250000D01*
X172800000Y-115250000D01*
X172800000Y-115750000D01*
G37*
%TD.AperFunction*%
%TA.AperFunction,EtchedComponent*%
G36*
X172000000Y-115750000D02*
G01*
X171600000Y-115750000D01*
X171600000Y-115250000D01*
X172000000Y-115250000D01*
X172000000Y-115750000D01*
G37*
%TD.AperFunction*%
%TD*%
D10*
%TO.P,R11,1*%
%TO.N,Net-(U6-PROG)*%
X162900000Y-76737500D03*
%TO.P,R11,2*%
%TO.N,GND*%
X162900000Y-78562500D03*
%TD*%
D11*
%TO.P,U5,1,I/O1*%
%TO.N,Net-(J2-D--PadA7)*%
X89837500Y-99970000D03*
%TO.P,U5,2,GND*%
%TO.N,GND*%
X89837500Y-100920000D03*
%TO.P,U5,3,I/O2*%
%TO.N,Net-(J2-D+-PadA6)*%
X89837500Y-101870000D03*
%TO.P,U5,4,I/O2*%
%TO.N,D+*%
X92112500Y-101870000D03*
%TO.P,U5,5,VBUS*%
%TO.N,Net-(U5-VBUS)*%
X92112500Y-100920000D03*
%TO.P,U5,6,I/O1*%
%TO.N,D-*%
X92112500Y-99970000D03*
%TD*%
D12*
%TO.P,U10,1,BT_RF*%
%TO.N,unconnected-(U10-BT_RF-Pad1)*%
X195600000Y-96250000D03*
%TO.P,U10,2,GND*%
%TO.N,GND*%
X194400000Y-96250000D03*
%TO.P,U10,3,P1_2*%
%TO.N,BT_P1_2*%
X193200000Y-96250000D03*
%TO.P,U10,4,P1_3*%
%TO.N,BT_P1_3*%
X192000000Y-96250000D03*
%TO.P,U10,5,P1_7*%
%TO.N,BT_P1_7*%
X190800000Y-96250000D03*
D13*
%TO.P,U10,6,P1_6*%
%TO.N,BT_P1_6*%
X189100000Y-97600000D03*
%TO.P,U10,7,UART_RX*%
%TO.N,BT_RX*%
X189100000Y-98800000D03*
%TO.P,U10,8,UART_TX*%
%TO.N,BT_TX*%
X189100000Y-100000000D03*
%TO.P,U10,9,P3_6*%
%TO.N,BT_P3_6*%
X189100000Y-101200000D03*
%TO.P,U10,10,RST*%
%TO.N,BT_RST*%
X189100000Y-102400000D03*
%TO.P,U10,11,P0_0*%
%TO.N,BT_P0_0*%
X189100000Y-103600000D03*
D12*
%TO.P,U10,12,P0_2*%
%TO.N,BT_P0_2*%
X190800000Y-104950000D03*
%TO.P,U10,13,GND*%
%TO.N,GND*%
X192000000Y-104950000D03*
%TO.P,U10,14,VBAT*%
%TO.N,+3V3*%
X193200000Y-104950000D03*
%TO.P,U10,15,P2_7*%
%TO.N,BT_P2_7*%
X194450000Y-104950000D03*
%TO.P,U10,16,P2_0*%
%TO.N,BT_P2_0*%
X195600000Y-104950000D03*
%TD*%
D14*
%TO.P,U2,1,VBAT*%
%TO.N,+3V3*%
X178300000Y-114250000D03*
%TO.P,U2,2,PC13*%
%TO.N,unconnected-(U2-PC13-Pad2)*%
X178300000Y-114750000D03*
%TO.P,U2,3,PC14*%
%TO.N,unconnected-(U2-PC14-Pad3)*%
X178300000Y-115250000D03*
%TO.P,U2,4,PC15*%
%TO.N,unconnected-(U2-PC15-Pad4)*%
X178300000Y-115750000D03*
%TO.P,U2,5,PD0*%
%TO.N,unconnected-(U2-PD0-Pad5)*%
X178300000Y-116250000D03*
%TO.P,U2,6,PD1*%
%TO.N,unconnected-(U2-PD1-Pad6)*%
X178300000Y-116750000D03*
%TO.P,U2,7,NRST*%
%TO.N,NRST*%
X178300000Y-117250000D03*
%TO.P,U2,8,PC0*%
%TO.N,+BATT*%
X178300000Y-117750000D03*
%TO.P,U2,9,PC1*%
%TO.N,REF*%
X178300000Y-118250000D03*
%TO.P,U2,10,PC2*%
%TO.N,SW2*%
X178300000Y-118750000D03*
%TO.P,U2,11,PC3*%
%TO.N,SW3*%
X178300000Y-119250000D03*
%TO.P,U2,12,VSSA*%
%TO.N,GND*%
X178300000Y-119750000D03*
%TO.P,U2,13,VDDA*%
%TO.N,+3.3VA*%
X178300000Y-120250000D03*
%TO.P,U2,14,PA0*%
%TO.N,Net-(U2-PA0)*%
X178300000Y-120750000D03*
%TO.P,U2,15,PA1*%
%TO.N,Net-(U2-PA1)*%
X178300000Y-121250000D03*
%TO.P,U2,16,PA2*%
%TO.N,Net-(U2-PA2)*%
X178300000Y-121750000D03*
D15*
%TO.P,U2,17,PA3*%
%TO.N,unconnected-(U2-PA3-Pad17)*%
X180225000Y-123675000D03*
%TO.P,U2,18,VSS*%
%TO.N,GND*%
X180725000Y-123675000D03*
%TO.P,U2,19,VDD*%
%TO.N,+3V3*%
X181225000Y-123675000D03*
%TO.P,U2,20,PA4*%
%TO.N,unconnected-(U2-PA4-Pad20)*%
X181725000Y-123675000D03*
%TO.P,U2,21,PA5*%
%TO.N,SCLK*%
X182225000Y-123675000D03*
%TO.P,U2,22,PA6*%
%TO.N,MISO*%
X182725000Y-123675000D03*
%TO.P,U2,23,PA7*%
%TO.N,MOSI*%
X183225000Y-123675000D03*
%TO.P,U2,24,PC4*%
%TO.N,SW7B*%
X183725000Y-123675000D03*
%TO.P,U2,25,PC5*%
%TO.N,SW7A*%
X184225000Y-123675000D03*
%TO.P,U2,26,PB0*%
%TO.N,SW5*%
X184725000Y-123675000D03*
%TO.P,U2,27,PB1*%
%TO.N,SW4B*%
X185225000Y-123675000D03*
%TO.P,U2,28,PB2*%
%TO.N,SW4A*%
X185725000Y-123675000D03*
%TO.P,U2,29,PB10*%
%TO.N,SW6*%
X186225000Y-123675000D03*
%TO.P,U2,30,PB11*%
%TO.N,unconnected-(U2-PB11-Pad30)*%
X186725000Y-123675000D03*
%TO.P,U2,31,VSS*%
%TO.N,GND*%
X187225000Y-123675000D03*
%TO.P,U2,32,VDD*%
%TO.N,+3V3*%
X187725000Y-123675000D03*
D14*
%TO.P,U2,33,PB12*%
%TO.N,unconnected-(U2-PB12-Pad33)*%
X189650000Y-121750000D03*
%TO.P,U2,34,PB13*%
%TO.N,unconnected-(U2-PB13-Pad34)*%
X189650000Y-121250000D03*
%TO.P,U2,35,PB14*%
%TO.N,unconnected-(U2-PB14-Pad35)*%
X189650000Y-120750000D03*
%TO.P,U2,36,PB15*%
%TO.N,unconnected-(U2-PB15-Pad36)*%
X189650000Y-120250000D03*
%TO.P,U2,37,PC6*%
%TO.N,unconnected-(U2-PC6-Pad37)*%
X189650000Y-119750000D03*
%TO.P,U2,38,PC7*%
%TO.N,unconnected-(U2-PC7-Pad38)*%
X189650000Y-119250000D03*
%TO.P,U2,39,PC8*%
%TO.N,BT_P2_0*%
X189650000Y-118750000D03*
%TO.P,U2,40,PC9*%
%TO.N,BT_P2_7*%
X189650000Y-118250000D03*
%TO.P,U2,41,PA8*%
%TO.N,BT_P0_2*%
X189650000Y-117750000D03*
%TO.P,U2,42,PA9*%
%TO.N,unconnected-(U2-PA9-Pad42)*%
X189650000Y-117250000D03*
%TO.P,U2,43,PA10*%
%TO.N,unconnected-(U2-PA10-Pad43)*%
X189650000Y-116750000D03*
%TO.P,U2,44,PA11*%
%TO.N,D-*%
X189650000Y-116250000D03*
%TO.P,U2,45,PA12*%
%TO.N,D+*%
X189650000Y-115750000D03*
%TO.P,U2,46,PA13*%
%TO.N,SWCLK*%
X189650000Y-115250000D03*
%TO.P,U2,47,VSS*%
%TO.N,GND*%
X189650000Y-114750000D03*
%TO.P,U2,48,VDD*%
%TO.N,+3V3*%
X189650000Y-114250000D03*
D15*
%TO.P,U2,49,PA14*%
%TO.N,SWDIO*%
X187725000Y-112325000D03*
%TO.P,U2,50,PA15*%
%TO.N,BT_P0_0*%
X187225000Y-112325000D03*
%TO.P,U2,51,PC10*%
%TO.N,BT_RST*%
X186725000Y-112325000D03*
%TO.P,U2,52,PC11*%
%TO.N,BT_P3_6*%
X186225000Y-112325000D03*
%TO.P,U2,53,PC12*%
%TO.N,BT_RX*%
X185725000Y-112325000D03*
%TO.P,U2,54,PD2*%
%TO.N,BT_TX*%
X185225000Y-112325000D03*
%TO.P,U2,55,PB3*%
%TO.N,BT_P1_6*%
X184725000Y-112325000D03*
%TO.P,U2,56,PB4*%
%TO.N,BT_P1_7*%
X184225000Y-112325000D03*
%TO.P,U2,57,PB5*%
%TO.N,BT_P1_3*%
X183725000Y-112325000D03*
%TO.P,U2,58,PB6*%
%TO.N,BT_P1_2*%
X183225000Y-112325000D03*
%TO.P,U2,59,PB7*%
%TO.N,STAT*%
X182725000Y-112325000D03*
%TO.P,U2,60,BOOT0*%
%TO.N,Net-(JP1-A)*%
X182225000Y-112325000D03*
%TO.P,U2,61,PB8*%
%TO.N,MOTION*%
X181725000Y-112325000D03*
%TO.P,U2,62,PB9*%
%TO.N,unconnected-(U2-PB9-Pad62)*%
X181225000Y-112325000D03*
%TO.P,U2,63,VSS*%
%TO.N,GND*%
X180725000Y-112325000D03*
%TO.P,U2,64,VDD*%
%TO.N,+3V3*%
X180225000Y-112325000D03*
%TD*%
D16*
%TO.P,C2,1*%
%TO.N,+3V3*%
X191850000Y-112850000D03*
%TO.P,C2,2*%
%TO.N,GND*%
X191850000Y-114750000D03*
%TD*%
D17*
%TO.P,C27,1*%
%TO.N,SW7A*%
X160575000Y-123500000D03*
%TO.P,C27,2*%
%TO.N,GND*%
X162125000Y-123500000D03*
%TD*%
%TO.P,C11,1*%
%TO.N,GND*%
X97825000Y-108600000D03*
%TO.P,C11,2*%
%TO.N,Net-(C10-Pad2)*%
X99375000Y-108600000D03*
%TD*%
D18*
%TO.P,R23,1*%
%TO.N,SW4B*%
X116600000Y-113625000D03*
%TO.P,R23,2*%
%TO.N,Net-(R18-Pad2)*%
X116600000Y-111975000D03*
%TD*%
D19*
%TO.P,R7,1*%
%TO.N,Net-(R7-Pad1)*%
X134837500Y-130500000D03*
%TO.P,R7,2*%
%TO.N,Net-(U2-PA0)*%
X137762500Y-130500000D03*
%TD*%
D20*
%TO.P,U6,1,STAT*%
%TO.N,STAT*%
X165750000Y-78987500D03*
%TO.P,U6,2,V_{SS}*%
%TO.N,GND*%
X166700000Y-78987500D03*
%TO.P,U6,3,V_{BAT}*%
%TO.N,+BATT*%
X167650000Y-78987500D03*
%TO.P,U6,4,V_{DD}*%
%TO.N,+5V*%
X167650000Y-76712500D03*
%TO.P,U6,5,PROG*%
%TO.N,Net-(U6-PROG)*%
X165750000Y-76712500D03*
%TD*%
D21*
%TO.P,SW4,*%
%TO.N,*%
X109975000Y-107920000D03*
X118975000Y-107920000D03*
D22*
%TO.P,SW4,A,A*%
%TO.N,Net-(R19-Pad2)*%
X111975000Y-109920000D03*
D23*
%TO.P,SW4,B,B*%
%TO.N,Net-(R18-Pad2)*%
X114475000Y-109920000D03*
%TO.P,SW4,C,C*%
%TO.N,GND*%
X116975000Y-109920000D03*
%TD*%
D24*
%TO.P,L1,1,1*%
%TO.N,+3.3VA*%
X174350000Y-123900000D03*
%TO.P,L1,2,2*%
%TO.N,+3V3*%
X174350000Y-126700000D03*
%TD*%
D18*
%TO.P,R22,1*%
%TO.N,SW4A*%
X111950000Y-113675000D03*
%TO.P,R22,2*%
%TO.N,Net-(R19-Pad2)*%
X111950000Y-112025000D03*
%TD*%
D25*
%TO.P,R30,1*%
%TO.N,SW7A*%
X158675000Y-123500000D03*
%TO.P,R30,2*%
%TO.N,Net-(R29-Pad2)*%
X157025000Y-123500000D03*
%TD*%
D19*
%TO.P,R14,1*%
%TO.N,Net-(U9-XYLED)*%
X165512500Y-92080000D03*
%TO.P,R14,2*%
%TO.N,Net-(R14-Pad2)*%
X168437500Y-92080000D03*
%TD*%
D26*
%TO.P,FB1,1*%
%TO.N,Net-(C10-Pad2)*%
X103350000Y-101050000D03*
%TO.P,FB1,2*%
%TO.N,Net-(U5-VBUS)*%
X98250000Y-101050000D03*
%TD*%
D27*
%TO.P,C17,1*%
%TO.N,+3V3*%
X137050000Y-90250000D03*
%TO.P,C17,2*%
%TO.N,GND*%
X138950000Y-90250000D03*
%TD*%
D28*
%TO.P,U1,1*%
%TO.N,Net-(R2-Pad1)*%
X121030000Y-128050000D03*
%TO.P,U1,2*%
%TO.N,GND*%
X123570000Y-128050000D03*
%TO.P,U1,3*%
X123570000Y-122550000D03*
%TO.P,U1,4*%
%TO.N,Net-(R3-Pad1)*%
X121030000Y-122550000D03*
%TD*%
D29*
%TO.P,C13,1*%
%TO.N,+5V*%
X169550000Y-76725000D03*
%TO.P,C13,2*%
%TO.N,GND*%
X169550000Y-78275000D03*
%TD*%
D30*
%TO.P,R6,1*%
%TO.N,Net-(D1-BK)*%
X135050000Y-116987500D03*
%TO.P,R6,2*%
%TO.N,Net-(R6-Pad2)*%
X135050000Y-119912500D03*
%TD*%
D31*
%TO.P,R27,1*%
%TO.N,SW6*%
X99425000Y-112900000D03*
%TO.P,R27,2*%
%TO.N,Net-(SW6-A)*%
X101075000Y-112900000D03*
%TD*%
D32*
%TO.P,R15,1*%
%TO.N,Net-(R15-Pad1)*%
X177612500Y-102250000D03*
%TO.P,R15,2*%
%TO.N,Net-(D2-A)*%
X175787500Y-102250000D03*
%TD*%
D33*
%TO.P,C14,1*%
%TO.N,+BATT*%
X178150000Y-86000000D03*
%TO.P,C14,2*%
%TO.N,GND*%
X178150000Y-84100000D03*
%TD*%
D29*
%TO.P,C24,1*%
%TO.N,SW4B*%
X116600000Y-115425000D03*
%TO.P,C24,2*%
%TO.N,GND*%
X116600000Y-116975000D03*
%TD*%
D18*
%TO.P,R19,1*%
%TO.N,+3V3*%
X110200000Y-113675000D03*
%TO.P,R19,2*%
%TO.N,Net-(R19-Pad2)*%
X110200000Y-112025000D03*
%TD*%
D34*
%TO.P,JP1,1,A*%
%TO.N,Net-(JP1-A)*%
X172200000Y-114850000D03*
%TO.P,JP1,2,B*%
%TO.N,GND*%
X172200000Y-116150000D03*
%TD*%
D35*
%TO.P,R3,1*%
%TO.N,Net-(R3-Pad1)*%
X121050000Y-118762500D03*
%TO.P,R3,2*%
%TO.N,Net-(D1-RK)*%
X121050000Y-116937500D03*
%TD*%
D17*
%TO.P,C28,1*%
%TO.N,SW7B*%
X160575000Y-121000000D03*
%TO.P,C28,2*%
%TO.N,GND*%
X162125000Y-121000000D03*
%TD*%
D36*
%TO.P,D1,1,A*%
%TO.N,+3V3*%
X130790000Y-112200000D03*
D37*
%TO.P,D1,2,BK*%
%TO.N,Net-(D1-BK)*%
X128631000Y-112200000D03*
%TO.P,D1,3,GK*%
%TO.N,Net-(D1-GK)*%
X126472000Y-112200000D03*
%TO.P,D1,4,RK*%
%TO.N,Net-(D1-RK)*%
X124313000Y-112200000D03*
%TD*%
D38*
%TO.P,R8,1*%
%TO.N,Net-(J2-CC2)*%
X89650000Y-103575000D03*
%TO.P,R8,2*%
%TO.N,GND*%
X89650000Y-105225000D03*
%TD*%
D27*
%TO.P,C5,1*%
%TO.N,+3V3*%
X178850000Y-110050000D03*
%TO.P,C5,2*%
%TO.N,GND*%
X180750000Y-110050000D03*
%TD*%
D17*
%TO.P,C19,1*%
%TO.N,+3V3*%
X142975000Y-92550000D03*
%TO.P,C19,2*%
%TO.N,GND*%
X144525000Y-92550000D03*
%TD*%
D31*
%TO.P,R21,1*%
%TO.N,SW3*%
X99175000Y-88900000D03*
%TO.P,R21,2*%
%TO.N,Net-(SW3-A)*%
X100825000Y-88900000D03*
%TD*%
D25*
%TO.P,R20,1*%
%TO.N,SW2*%
X119825000Y-89000000D03*
%TO.P,R20,2*%
%TO.N,Net-(SW2-A)*%
X118175000Y-89000000D03*
%TD*%
D39*
%TO.P,C20,1*%
%TO.N,+3V3*%
X193225000Y-108250000D03*
%TO.P,C20,2*%
%TO.N,GND*%
X190275000Y-108250000D03*
%TD*%
D19*
%TO.P,R5,1*%
%TO.N,Net-(R5-Pad1)*%
X127837500Y-130550000D03*
%TO.P,R5,2*%
%TO.N,Net-(U2-PA1)*%
X130762500Y-130550000D03*
%TD*%
D16*
%TO.P,C1,1*%
%TO.N,+3V3*%
X176050000Y-114250000D03*
%TO.P,C1,2*%
%TO.N,GND*%
X176050000Y-116150000D03*
%TD*%
D40*
%TO.P,C12,1*%
%TO.N,GND*%
X87150000Y-110350000D03*
%TO.P,C12,2*%
%TO.N,Net-(J2-SHIELD)*%
X85250000Y-110350000D03*
%TD*%
D23*
%TO.P,SW2,1,A*%
%TO.N,Net-(SW2-A)*%
X113975000Y-83920000D03*
%TO.P,SW2,2,B*%
X113975000Y-89000000D03*
%TO.P,SW2,3,C*%
%TO.N,GND*%
X113975000Y-94080000D03*
%TD*%
D41*
%TO.P,C7,1*%
%TO.N,+3.3VA*%
X172200000Y-121275000D03*
%TO.P,C7,2*%
%TO.N,GND*%
X172200000Y-119725000D03*
%TD*%
D23*
%TO.P,SW5,1,A*%
%TO.N,Net-(SW5-A)*%
X132135000Y-100920000D03*
%TO.P,SW5,2,B*%
X127055000Y-100920000D03*
%TO.P,SW5,3,C*%
%TO.N,GND*%
X121975000Y-100920000D03*
%TD*%
D18*
%TO.P,R9,1*%
%TO.N,Net-(J2-CC1)*%
X89650000Y-98375000D03*
%TO.P,R9,2*%
%TO.N,GND*%
X89650000Y-96725000D03*
%TD*%
D42*
%TO.P,L2,1,1*%
%TO.N,+BATT*%
X180475000Y-88300000D03*
%TO.P,L2,2,2*%
%TO.N,Net-(U7-SW)*%
X182225000Y-88300000D03*
%TD*%
D41*
%TO.P,C26,1*%
%TO.N,SW6*%
X97800000Y-112925000D03*
%TO.P,C26,2*%
%TO.N,GND*%
X97800000Y-111375000D03*
%TD*%
D43*
%TO.P,C25,1*%
%TO.N,SW5*%
X123475000Y-106300000D03*
%TO.P,C25,2*%
%TO.N,GND*%
X121925000Y-106300000D03*
%TD*%
D27*
%TO.P,C16,1*%
%TO.N,+3V3*%
X137050000Y-92450000D03*
%TO.P,C16,2*%
%TO.N,GND*%
X138950000Y-92450000D03*
%TD*%
D33*
%TO.P,C8,1*%
%TO.N,+3.3VA*%
X174350000Y-121650000D03*
%TO.P,C8,2*%
%TO.N,GND*%
X174350000Y-119750000D03*
%TD*%
D44*
%TO.P,SW7,*%
%TO.N,*%
X151975000Y-125500000D03*
X151975000Y-116500000D03*
D22*
%TO.P,SW7,A,A*%
%TO.N,Net-(R29-Pad2)*%
X153975000Y-123500000D03*
D23*
%TO.P,SW7,B,B*%
%TO.N,Net-(R28-Pad2)*%
X153975000Y-121000000D03*
%TO.P,SW7,C,C*%
%TO.N,GND*%
X153975000Y-118500000D03*
%TD*%
D45*
%TO.P,U8,1*%
%TO.N,Net-(R14-Pad2)*%
X172150000Y-92080000D03*
%TO.P,U8,2*%
%TO.N,GND*%
X172150000Y-94620000D03*
%TO.P,U8,3*%
%TO.N,Net-(R15-Pad1)*%
X177650000Y-94620000D03*
%TO.P,U8,4*%
%TO.N,+3V3*%
X177650000Y-92080000D03*
%TD*%
D19*
%TO.P,R2,1*%
%TO.N,Net-(R2-Pad1)*%
X120937500Y-130600000D03*
%TO.P,R2,2*%
%TO.N,Net-(U2-PA2)*%
X123862500Y-130600000D03*
%TD*%
D10*
%TO.P,R4,1*%
%TO.N,Net-(D1-GK)*%
X126450000Y-116937500D03*
%TO.P,R4,2*%
%TO.N,Net-(R4-Pad2)*%
X126450000Y-118762500D03*
%TD*%
D35*
%TO.P,R13,1*%
%TO.N,Net-(U7-FB)*%
X180300000Y-81312500D03*
%TO.P,R13,2*%
%TO.N,GND*%
X180300000Y-79487500D03*
%TD*%
D46*
%TO.P,J2,A1,GND*%
%TO.N,GND*%
X86185000Y-97670000D03*
%TO.P,J2,A4,VBUS*%
%TO.N,Net-(U5-VBUS)*%
X86185000Y-98470000D03*
D47*
%TO.P,J2,A5,CC1*%
%TO.N,Net-(J2-CC1)*%
X86185000Y-99670000D03*
%TO.P,J2,A6,D+*%
%TO.N,Net-(J2-D+-PadA6)*%
X86185000Y-100670000D03*
%TO.P,J2,A7,D-*%
%TO.N,Net-(J2-D--PadA7)*%
X86185000Y-101170000D03*
%TO.P,J2,A8,SBU1*%
%TO.N,unconnected-(J2-SBU1-PadA8)*%
X86185000Y-102170000D03*
D46*
%TO.P,J2,A9,VBUS*%
%TO.N,Net-(U5-VBUS)*%
X86185000Y-103370000D03*
%TO.P,J2,A12,GND*%
%TO.N,GND*%
X86185000Y-104170000D03*
%TO.P,J2,B1,GND*%
X86185000Y-104170000D03*
%TO.P,J2,B4,VBUS*%
%TO.N,Net-(U5-VBUS)*%
X86185000Y-103370000D03*
D47*
%TO.P,J2,B5,CC2*%
%TO.N,Net-(J2-CC2)*%
X86185000Y-102670000D03*
%TO.P,J2,B6,D+*%
%TO.N,Net-(J2-D+-PadA6)*%
X86185000Y-101670000D03*
%TO.P,J2,B7,D-*%
%TO.N,Net-(J2-D--PadA7)*%
X86185000Y-100170000D03*
%TO.P,J2,B8,SBU2*%
%TO.N,unconnected-(J2-SBU2-PadB8)*%
X86185000Y-99170000D03*
D46*
%TO.P,J2,B9,VBUS*%
%TO.N,Net-(U5-VBUS)*%
X86185000Y-98470000D03*
%TO.P,J2,B12,GND*%
%TO.N,GND*%
X86185000Y-97670000D03*
D48*
%TO.P,J2,S1,SHIELD*%
%TO.N,Net-(J2-SHIELD)*%
X85270000Y-96600000D03*
D49*
X81090000Y-96600000D03*
D48*
X85270000Y-105240000D03*
D49*
X81090000Y-105240000D03*
%TD*%
D50*
%TO.P,J3,1,Pin_1*%
%TO.N,GND*%
X154975000Y-83000000D03*
D51*
%TO.P,J3,2,Pin_2*%
%TO.N,Net-(J3-Pin_2)*%
X154975000Y-85500000D03*
%TD*%
D18*
%TO.P,R26,1*%
%TO.N,SW5*%
X127100000Y-106325000D03*
%TO.P,R26,2*%
%TO.N,Net-(SW5-A)*%
X127100000Y-104675000D03*
%TD*%
D36*
%TO.P,D2,1,K*%
%TO.N,GND*%
X172275000Y-99725000D03*
D37*
%TO.P,D2,2,A*%
%TO.N,Net-(D2-A)*%
X172275000Y-102265000D03*
%TD*%
D41*
%TO.P,C15,1*%
%TO.N,+3V3*%
X182100000Y-81025000D03*
%TO.P,C15,2*%
%TO.N,GND*%
X182100000Y-79475000D03*
%TD*%
D25*
%TO.P,R31,1*%
%TO.N,SW7B*%
X158675000Y-121000000D03*
%TO.P,R31,2*%
%TO.N,Net-(R28-Pad2)*%
X157025000Y-121000000D03*
%TD*%
D38*
%TO.P,R16,1*%
%TO.N,+3V3*%
X118150000Y-83275000D03*
%TO.P,R16,2*%
%TO.N,Net-(SW2-A)*%
X118150000Y-84925000D03*
%TD*%
D29*
%TO.P,C23,1*%
%TO.N,SW4A*%
X111950000Y-115475000D03*
%TO.P,C23,2*%
%TO.N,GND*%
X111950000Y-117025000D03*
%TD*%
D18*
%TO.P,R18,1*%
%TO.N,+3V3*%
X118350000Y-113625000D03*
%TO.P,R18,2*%
%TO.N,Net-(R18-Pad2)*%
X118350000Y-111975000D03*
%TD*%
D32*
%TO.P,R12,1*%
%TO.N,+3V3*%
X182112500Y-83400000D03*
%TO.P,R12,2*%
%TO.N,Net-(U7-FB)*%
X180287500Y-83400000D03*
%TD*%
D38*
%TO.P,R17,1*%
%TO.N,+3V3*%
X100850000Y-83125000D03*
%TO.P,R17,2*%
%TO.N,Net-(SW3-A)*%
X100850000Y-84775000D03*
%TD*%
D23*
%TO.P,U9,1,NC*%
%TO.N,unconnected-(U9-NC-Pad1)*%
X154975000Y-94625000D03*
%TO.P,U9,2,NC*%
%TO.N,unconnected-(U9-NC-Pad2)*%
X152975000Y-94625000D03*
%TO.P,U9,3,NCS*%
%TO.N,GND*%
X150975000Y-94625000D03*
%TO.P,U9,4,SCLK*%
%TO.N,SCLK*%
X148975000Y-94625000D03*
%TO.P,U9,5,MOSI*%
%TO.N,MOSI*%
X146975000Y-94625000D03*
%TO.P,U9,6,MOTION*%
%TO.N,MOTION*%
X144975000Y-94625000D03*
%TO.P,U9,7,VDDIO*%
%TO.N,+3V3*%
X142975000Y-94625000D03*
%TO.P,U9,8,XYLED*%
%TO.N,Net-(U9-XYLED)*%
X140975000Y-94625000D03*
%TO.P,U9,9,GND*%
%TO.N,GND*%
X138975000Y-94625000D03*
%TO.P,U9,10,VDD*%
%TO.N,+3V3*%
X137000000Y-94625000D03*
%TO.P,U9,11,VDD*%
X137975000Y-107375000D03*
%TO.P,U9,12,NC*%
%TO.N,unconnected-(U9-NC-Pad12)*%
X139975000Y-107375000D03*
%TO.P,U9,13,REF*%
%TO.N,REF*%
X141975000Y-107375000D03*
%TO.P,U9,14,GND*%
%TO.N,GND*%
X143975000Y-107375000D03*
%TO.P,U9,15,NC*%
%TO.N,unconnected-(U9-NC-Pad15)*%
X145975000Y-107375000D03*
%TO.P,U9,16,MISO*%
%TO.N,MISO*%
X147975000Y-107375000D03*
%TO.P,U9,17,NC*%
%TO.N,unconnected-(U9-NC-Pad17)*%
X149975000Y-107375000D03*
%TO.P,U9,18,NC*%
%TO.N,unconnected-(U9-NC-Pad18)*%
X151975000Y-107375000D03*
%TO.P,U9,19,GND*%
%TO.N,GND*%
X153975000Y-107375000D03*
%TO.P,U9,20,NC*%
%TO.N,unconnected-(U9-NC-Pad20)*%
X155975000Y-107375000D03*
%TD*%
D31*
%TO.P,R29,1*%
%TO.N,+3V3*%
X147425000Y-123500000D03*
%TO.P,R29,2*%
%TO.N,Net-(R29-Pad2)*%
X149075000Y-123500000D03*
%TD*%
D52*
%TO.P,U7,1,FB*%
%TO.N,Net-(U7-FB)*%
X180560000Y-85000000D03*
%TO.P,U7,2,EN*%
%TO.N,+BATT*%
X180560000Y-85500000D03*
%TO.P,U7,3,VIN*%
X180560000Y-86000000D03*
%TO.P,U7,4,GND*%
%TO.N,GND*%
X182040000Y-86000000D03*
%TO.P,U7,5,SW*%
%TO.N,Net-(U7-SW)*%
X182040000Y-85500000D03*
%TO.P,U7,6,VOUT*%
%TO.N,+3V3*%
X182040000Y-85000000D03*
%TD*%
D29*
%TO.P,C22,1*%
%TO.N,SW3*%
X99150000Y-92475000D03*
%TO.P,C22,2*%
%TO.N,GND*%
X99150000Y-94025000D03*
%TD*%
%TO.P,C21,1*%
%TO.N,SW2*%
X119850000Y-92525000D03*
%TO.P,C21,2*%
%TO.N,GND*%
X119850000Y-94075000D03*
%TD*%
D23*
%TO.P,SW3,1,A*%
%TO.N,Net-(SW3-A)*%
X104975000Y-83840000D03*
%TO.P,SW3,2,B*%
X104975000Y-88920000D03*
%TO.P,SW3,3,C*%
%TO.N,GND*%
X104975000Y-94000000D03*
%TD*%
D28*
%TO.P,U4,1*%
%TO.N,Net-(R7-Pad1)*%
X135030000Y-128050000D03*
%TO.P,U4,2*%
%TO.N,GND*%
X137570000Y-128050000D03*
%TO.P,U4,3*%
X137570000Y-122550000D03*
%TO.P,U4,4*%
%TO.N,Net-(R6-Pad2)*%
X135030000Y-122550000D03*
%TD*%
D27*
%TO.P,C10,1*%
%TO.N,GND*%
X97800000Y-105700000D03*
%TO.P,C10,2*%
%TO.N,Net-(C10-Pad2)*%
X99700000Y-105700000D03*
%TD*%
D25*
%TO.P,R25,1*%
%TO.N,+3V3*%
X106625000Y-120400000D03*
%TO.P,R25,2*%
%TO.N,Net-(SW6-A)*%
X104975000Y-120400000D03*
%TD*%
D41*
%TO.P,C9,1*%
%TO.N,GND*%
X92650000Y-105175000D03*
%TO.P,C9,2*%
%TO.N,Net-(U5-VBUS)*%
X92650000Y-103625000D03*
%TD*%
D17*
%TO.P,C6,1*%
%TO.N,+3V3*%
X179075000Y-128100000D03*
%TO.P,C6,2*%
%TO.N,GND*%
X180625000Y-128100000D03*
%TD*%
D18*
%TO.P,R24,1*%
%TO.N,+3V3*%
X132150000Y-106325000D03*
%TO.P,R24,2*%
%TO.N,Net-(SW5-A)*%
X132150000Y-104675000D03*
%TD*%
D40*
%TO.P,C3,1*%
%TO.N,+3V3*%
X189150000Y-125950000D03*
%TO.P,C3,2*%
%TO.N,GND*%
X187250000Y-125950000D03*
%TD*%
D53*
%TO.P,F1,1*%
%TO.N,+5V*%
X102365000Y-97000000D03*
%TO.P,F1,2*%
%TO.N,Net-(C10-Pad2)*%
X103335000Y-97000000D03*
%TD*%
D23*
%TO.P,SW6,1,A*%
%TO.N,Net-(SW6-A)*%
X104975000Y-118000000D03*
%TO.P,SW6,2,B*%
X104975000Y-112920000D03*
%TO.P,SW6,3,C*%
%TO.N,GND*%
X104975000Y-107840000D03*
%TD*%
D10*
%TO.P,R1,1*%
%TO.N,+3V3*%
X172200000Y-110587500D03*
%TO.P,R1,2*%
%TO.N,Net-(JP1-A)*%
X172200000Y-112412500D03*
%TD*%
D54*
%TO.P,R10,1*%
%TO.N,GND*%
X88175000Y-107850000D03*
%TO.P,R10,2*%
%TO.N,Net-(J2-SHIELD)*%
X85250000Y-107850000D03*
%TD*%
D55*
%TO.P,J1,1,Pin_1*%
%TO.N,+3V3*%
X138975000Y-85300000D03*
D56*
%TO.P,J1,2,Pin_2*%
%TO.N,SWDIO*%
X136475000Y-85300000D03*
%TO.P,J1,3,Pin_3*%
%TO.N,SWCLK*%
X133975000Y-85300000D03*
%TO.P,J1,4,Pin_4*%
%TO.N,NRST*%
X131475000Y-85300000D03*
%TO.P,J1,5,Pin_5*%
%TO.N,GND*%
X128975000Y-85300000D03*
%TD*%
D28*
%TO.P,U3,1*%
%TO.N,Net-(R5-Pad1)*%
X128030000Y-128050000D03*
%TO.P,U3,2*%
%TO.N,GND*%
X130570000Y-128050000D03*
%TO.P,U3,3*%
X130570000Y-122550000D03*
%TO.P,U3,4*%
%TO.N,Net-(R4-Pad2)*%
X128030000Y-122550000D03*
%TD*%
D31*
%TO.P,R28,1*%
%TO.N,+3V3*%
X147425000Y-121000000D03*
%TO.P,R28,2*%
%TO.N,Net-(R28-Pad2)*%
X149075000Y-121000000D03*
%TD*%
D27*
%TO.P,C18,1*%
%TO.N,REF*%
X141950000Y-110750000D03*
%TO.P,C18,2*%
%TO.N,GND*%
X143850000Y-110750000D03*
%TD*%
D40*
%TO.P,C4,1*%
%TO.N,+3V3*%
X182550000Y-125950000D03*
%TO.P,C4,2*%
%TO.N,GND*%
X180650000Y-125950000D03*
%TD*%
D57*
%TO.P,SW1,1,A*%
%TO.N,Net-(J3-Pin_2)*%
X159900000Y-85550000D03*
D58*
%TO.P,SW1,2,B*%
%TO.N,+BATT*%
X167520000Y-85550000D03*
%TD*%
D59*
%TO.N,+3V3*%
X193250000Y-110300000D03*
X179650000Y-92100000D03*
X193275500Y-112850000D03*
X178850000Y-108350000D03*
X195624500Y-112850000D03*
X140212057Y-115655752D03*
X186200000Y-84250000D03*
X170350000Y-90100000D03*
X184850000Y-118650000D03*
X180600000Y-115700000D03*
X133200000Y-107400000D03*
X178850000Y-105750000D03*
%TO.N,GND*%
X180750000Y-108350000D03*
X181825500Y-128100000D03*
X140160000Y-92450000D03*
X123570000Y-120780000D03*
X194400000Y-94400000D03*
X91150000Y-96700000D03*
X130570000Y-120780000D03*
X144530000Y-91390000D03*
X88374500Y-100900000D03*
X111950000Y-118800000D03*
X96510000Y-108600000D03*
X164592000Y-81788000D03*
X174270000Y-116170000D03*
X89670000Y-107850000D03*
X193250000Y-114750000D03*
X137580000Y-120780000D03*
X191750000Y-108250000D03*
X162700000Y-125050000D03*
X178170000Y-80440000D03*
X187250000Y-127600000D03*
X170510000Y-119740000D03*
X182050000Y-86950000D03*
%TO.N,+BATT*%
X189025000Y-111475000D03*
X188925000Y-90425000D03*
%TO.N,SW3*%
X180883000Y-74133000D03*
X174244000Y-74168000D03*
X138140000Y-74110000D03*
X131120000Y-74100000D03*
X190100000Y-112050000D03*
X94050000Y-81250000D03*
%TO.N,SWDIO*%
X188300000Y-110200000D03*
%TO.N,SWCLK*%
X188150000Y-115250000D03*
%TO.N,NRST*%
X184300000Y-113900000D03*
%TO.N,STAT*%
X165787701Y-80400000D03*
X176350000Y-89100000D03*
%TO.N,SCLK*%
X137975000Y-112425000D03*
X181474500Y-121950353D03*
%TO.N,MISO*%
X182700879Y-122152133D03*
%TO.N,MOSI*%
X171540000Y-109160000D03*
X183220000Y-120424500D03*
X168350000Y-105950000D03*
%TO.N,MOTION*%
X181300000Y-114650000D03*
X147760000Y-91825500D03*
X172281167Y-108489421D03*
X169250000Y-105460000D03*
X156570000Y-91820000D03*
%TO.N,D-*%
X95300000Y-108850000D03*
X181050000Y-135450000D03*
X191882162Y-116839866D03*
X94000000Y-99950000D03*
%TO.N,D+*%
X93950000Y-108850000D03*
X181682923Y-136223573D03*
X192650000Y-116200000D03*
X93950000Y-101850000D03*
%TO.N,BT_RX*%
X187050000Y-99400000D03*
X186550000Y-102400000D03*
%TO.N,Net-(U9-XYLED)*%
X162000000Y-92150000D03*
X141000000Y-89025500D03*
%TO.N,Net-(U2-PA0)*%
X176062299Y-121812299D03*
X162500000Y-130500000D03*
%TO.N,Net-(U2-PA1)*%
X162500000Y-132000497D03*
X176825000Y-122575000D03*
%TO.N,Net-(U2-PA2)*%
X162500000Y-133100000D03*
X178150000Y-124100000D03*
%TD*%
D60*
%TO.N,+3V3*%
X138975000Y-85300000D02*
X139700000Y-85300000D01*
X193200000Y-104950000D02*
X193200000Y-108225000D01*
X179650000Y-92100000D02*
X179650000Y-104950000D01*
X111075000Y-112800000D02*
X117525000Y-112800000D01*
X117150000Y-81400000D02*
X118150000Y-82400000D01*
X142975000Y-88575000D02*
X142975000Y-92550000D01*
X127850000Y-90250000D02*
X120875000Y-83275000D01*
X137000000Y-94625000D02*
X137000000Y-95600000D01*
X176050000Y-111700000D02*
X176050000Y-114250000D01*
X179075000Y-128100000D02*
X175750000Y-128100000D01*
X179630000Y-92080000D02*
X179650000Y-92100000D01*
X193225000Y-110275000D02*
X193250000Y-110300000D01*
X132150000Y-106325000D02*
X132150000Y-106350000D01*
X189650000Y-114250000D02*
X190450000Y-114250000D01*
X175750000Y-128100000D02*
X174350000Y-126700000D01*
X125000000Y-109050000D02*
X128700000Y-109050000D01*
X182550000Y-125950000D02*
X182800000Y-126200000D01*
X191225000Y-123675000D02*
X187725000Y-123675000D01*
X137050000Y-94575000D02*
X137000000Y-94625000D01*
X128700000Y-109050000D02*
X130790000Y-111140000D01*
X108200000Y-115675000D02*
X110200000Y-113675000D01*
X180750000Y-122325305D02*
X180750000Y-120770000D01*
X181700000Y-129550000D02*
X180525000Y-129550000D01*
X141950000Y-96150000D02*
X142975000Y-95125000D01*
X137050000Y-90250000D02*
X137050000Y-87225000D01*
X180225000Y-111425000D02*
X178850000Y-110050000D01*
X179650000Y-104950000D02*
X178850000Y-105750000D01*
X140212057Y-115662057D02*
X145550000Y-121000000D01*
X183800000Y-119700000D02*
X184850000Y-118650000D01*
X100850000Y-83125000D02*
X100850000Y-82200000D01*
X137050000Y-87225000D02*
X138975000Y-85300000D01*
X182800000Y-128450000D02*
X181700000Y-129550000D01*
X117525000Y-112800000D02*
X118350000Y-113625000D01*
X100850000Y-82200000D02*
X101650000Y-81400000D01*
X178850000Y-110050000D02*
X178850000Y-108350000D01*
X180225000Y-112325000D02*
X180225000Y-115325000D01*
X110200000Y-113675000D02*
X111075000Y-112800000D01*
X132150000Y-106350000D02*
X133200000Y-107400000D01*
X107400000Y-120400000D02*
X108200000Y-119600000D01*
X137000000Y-95600000D02*
X137550000Y-96150000D01*
X195650000Y-112875500D02*
X195650000Y-119250000D01*
X142850000Y-88450000D02*
X142975000Y-88575000D01*
X176050000Y-114250000D02*
X178300000Y-114250000D01*
X181225000Y-123675000D02*
X181225000Y-122800305D01*
X142975000Y-92550000D02*
X142975000Y-94625000D01*
X193225000Y-108250000D02*
X193225000Y-110275000D01*
X181225000Y-123675000D02*
X181225000Y-124625000D01*
X101650000Y-81400000D02*
X117150000Y-81400000D01*
X118350000Y-113625000D02*
X120425000Y-113625000D01*
X190450000Y-114250000D02*
X191850000Y-112850000D01*
X182800000Y-126200000D02*
X182800000Y-128450000D01*
X177037500Y-105750000D02*
X172200000Y-110587500D01*
X142975000Y-95125000D02*
X142975000Y-94625000D01*
X144500000Y-90100000D02*
X142850000Y-88450000D01*
X137050000Y-90250000D02*
X127850000Y-90250000D01*
X137550000Y-96150000D02*
X141950000Y-96150000D01*
X195650000Y-119250000D02*
X191225000Y-123675000D01*
X181820000Y-119700000D02*
X183800000Y-119700000D01*
X181225000Y-124625000D02*
X182550000Y-125950000D01*
X170350000Y-90100000D02*
X144500000Y-90100000D01*
X187725000Y-124525000D02*
X189150000Y-125950000D01*
X108200000Y-119600000D02*
X108200000Y-115675000D01*
X118150000Y-82400000D02*
X118150000Y-83275000D01*
X137050000Y-90250000D02*
X137050000Y-92450000D01*
X137050000Y-92450000D02*
X137050000Y-94575000D01*
X120425000Y-113625000D02*
X125000000Y-109050000D01*
X186200000Y-84250000D02*
X185350000Y-83400000D01*
X193200000Y-108225000D02*
X193225000Y-108250000D01*
X180225000Y-115325000D02*
X180600000Y-115700000D01*
X178850000Y-105750000D02*
X177037500Y-105750000D01*
X106625000Y-120400000D02*
X107400000Y-120400000D01*
X187725000Y-123675000D02*
X187725000Y-124525000D01*
X120875000Y-83275000D02*
X118150000Y-83275000D01*
X139700000Y-85300000D02*
X142850000Y-88450000D01*
X182100000Y-81025000D02*
X182100000Y-83387500D01*
X185350000Y-83400000D02*
X182112500Y-83400000D01*
X195624500Y-112850000D02*
X195650000Y-112875500D01*
X130790000Y-111140000D02*
X130790000Y-112200000D01*
X180750000Y-120770000D02*
X181820000Y-119700000D01*
X177700000Y-110050000D02*
X176050000Y-111700000D01*
X182100000Y-83387500D02*
X182112500Y-83400000D01*
X180525000Y-129550000D02*
X179075000Y-128100000D01*
X184850000Y-118650000D02*
X187725000Y-121525000D01*
X187725000Y-121525000D02*
X187725000Y-123675000D01*
X180225000Y-112325000D02*
X180225000Y-111425000D01*
X181225000Y-122800305D02*
X180750000Y-122325305D01*
X191850000Y-112850000D02*
X193275500Y-112850000D01*
X140212057Y-115655752D02*
X140212057Y-115662057D01*
X178850000Y-110050000D02*
X177700000Y-110050000D01*
X177650000Y-92080000D02*
X179630000Y-92080000D01*
X147425000Y-123500000D02*
X147425000Y-121000000D01*
X145550000Y-121000000D02*
X147425000Y-121000000D01*
%TO.N,GND*%
X165762000Y-81788000D02*
X164592000Y-81788000D01*
X97825000Y-108600000D02*
X96510000Y-108600000D01*
X116600000Y-116975000D02*
X112000000Y-116975000D01*
X104950000Y-94025000D02*
X104975000Y-94000000D01*
X137570000Y-120790000D02*
X137580000Y-120780000D01*
X180725000Y-123675000D02*
X180725000Y-125875000D01*
X123570000Y-122550000D02*
X123570000Y-120780000D01*
X180300000Y-79487500D02*
X179112500Y-79487500D01*
X88175000Y-107850000D02*
X88175000Y-106700000D01*
X89650000Y-96725000D02*
X91125000Y-96725000D01*
X180625000Y-125975000D02*
X180650000Y-125950000D01*
X187250000Y-125950000D02*
X187250000Y-123700000D01*
X178150000Y-84100000D02*
X178150000Y-80460000D01*
X86185000Y-97670000D02*
X87630000Y-97670000D01*
X180300000Y-79487500D02*
X182087500Y-79487500D01*
X130570000Y-122550000D02*
X130570000Y-120780000D01*
X143850000Y-107500000D02*
X143975000Y-107375000D01*
X178170000Y-80430000D02*
X178170000Y-80440000D01*
X123570000Y-122550000D02*
X123570000Y-128050000D01*
X138950000Y-92450000D02*
X138950000Y-94600000D01*
X144525000Y-92550000D02*
X144525000Y-91395000D01*
X178300000Y-119750000D02*
X174350000Y-119750000D01*
X170525000Y-119725000D02*
X172200000Y-119725000D01*
X170510000Y-119740000D02*
X170525000Y-119725000D01*
X187250000Y-125950000D02*
X187250000Y-127600000D01*
X162125000Y-123500000D02*
X162125000Y-124475000D01*
X112000000Y-116975000D02*
X111950000Y-117025000D01*
X130570000Y-122550000D02*
X130570000Y-128050000D01*
X87150000Y-108875000D02*
X88175000Y-107850000D01*
X137570000Y-122550000D02*
X137570000Y-120790000D01*
X180725000Y-125875000D02*
X180650000Y-125950000D01*
X86185000Y-104170000D02*
X87220000Y-104170000D01*
X163576000Y-81788000D02*
X162900000Y-81112000D01*
X113895000Y-94000000D02*
X113975000Y-94080000D01*
X162125000Y-124475000D02*
X162700000Y-125050000D01*
X113975000Y-94080000D02*
X119845000Y-94080000D01*
X172225000Y-119750000D02*
X172200000Y-119725000D01*
X97800000Y-108575000D02*
X97825000Y-108600000D01*
X187250000Y-123700000D02*
X187225000Y-123675000D01*
X88575000Y-96725000D02*
X89650000Y-96725000D01*
X172150000Y-99600000D02*
X172275000Y-99725000D01*
X190275000Y-108250000D02*
X191750000Y-108250000D01*
X179112500Y-79487500D02*
X178170000Y-80430000D01*
X87220000Y-104170000D02*
X88275000Y-105225000D01*
X176050000Y-116150000D02*
X174290000Y-116150000D01*
X111950000Y-117025000D02*
X111950000Y-118800000D01*
X89837500Y-100920000D02*
X88394500Y-100920000D01*
X144525000Y-91395000D02*
X144530000Y-91390000D01*
X97825000Y-111350000D02*
X97800000Y-111375000D01*
X169125000Y-77850000D02*
X169550000Y-78275000D01*
X172150000Y-94620000D02*
X172150000Y-99600000D01*
X88175000Y-107850000D02*
X89670000Y-107850000D01*
X180750000Y-110050000D02*
X180750000Y-108350000D01*
X194400000Y-96250000D02*
X194400000Y-94400000D01*
X178150000Y-80460000D02*
X178170000Y-80440000D01*
X174250000Y-116150000D02*
X172200000Y-116150000D01*
X166700000Y-78987500D02*
X166700000Y-78325000D01*
X138950000Y-92450000D02*
X140160000Y-92450000D01*
X192000000Y-104950000D02*
X192000000Y-106525000D01*
X166700000Y-80850000D02*
X165762000Y-81788000D01*
X182040000Y-86940000D02*
X182050000Y-86950000D01*
X87630000Y-97670000D02*
X88575000Y-96725000D01*
X138950000Y-90250000D02*
X138950000Y-92450000D01*
X91125000Y-96725000D02*
X91150000Y-96700000D01*
X164592000Y-81788000D02*
X163576000Y-81788000D01*
X166700000Y-78325000D02*
X167175000Y-77850000D01*
X97825000Y-108600000D02*
X97825000Y-111350000D01*
X162900000Y-81112000D02*
X162900000Y-78562500D01*
X174350000Y-119750000D02*
X172225000Y-119750000D01*
X97800000Y-105700000D02*
X97800000Y-108575000D01*
X119845000Y-94080000D02*
X119850000Y-94075000D01*
X180750000Y-110050000D02*
X180750000Y-112300000D01*
X138950000Y-94600000D02*
X138975000Y-94625000D01*
X121925000Y-106300000D02*
X121925000Y-100970000D01*
X182040000Y-86000000D02*
X182040000Y-86940000D01*
X87150000Y-110350000D02*
X87150000Y-108875000D01*
X182087500Y-79487500D02*
X182100000Y-79475000D01*
X99150000Y-94025000D02*
X104950000Y-94025000D01*
X162125000Y-123500000D02*
X162125000Y-121000000D01*
X92600000Y-105225000D02*
X92650000Y-105175000D01*
X121925000Y-100970000D02*
X121975000Y-100920000D01*
X180625000Y-128100000D02*
X181825500Y-128100000D01*
X88275000Y-105225000D02*
X89650000Y-105225000D01*
X180625000Y-128100000D02*
X180625000Y-125975000D01*
X166700000Y-78987500D02*
X166700000Y-80850000D01*
X189650000Y-114750000D02*
X191850000Y-114750000D01*
X191850000Y-114750000D02*
X193250000Y-114750000D01*
X178170000Y-80440000D02*
X178160000Y-80440000D01*
X174290000Y-116150000D02*
X174270000Y-116170000D01*
X137570000Y-122550000D02*
X137570000Y-128050000D01*
X88175000Y-106700000D02*
X89650000Y-105225000D01*
X143850000Y-110750000D02*
X143850000Y-107500000D01*
X167175000Y-77850000D02*
X169125000Y-77850000D01*
X88394500Y-100920000D02*
X88374500Y-100900000D01*
X89650000Y-105225000D02*
X92600000Y-105225000D01*
X192000000Y-106525000D02*
X190275000Y-108250000D01*
X178160000Y-80440000D02*
X178150000Y-80450000D01*
X174270000Y-116170000D02*
X174250000Y-116150000D01*
X180750000Y-112300000D02*
X180725000Y-112325000D01*
%TO.N,+3.3VA*%
X174350000Y-123900000D02*
X174350000Y-121650000D01*
X174350000Y-121650000D02*
X173600000Y-121650000D01*
X173600000Y-121650000D02*
X173225000Y-121275000D01*
X176600000Y-120250000D02*
X178300000Y-120250000D01*
X174350000Y-121650000D02*
X175200000Y-121650000D01*
X173225000Y-121275000D02*
X172200000Y-121275000D01*
X175200000Y-121650000D02*
X176600000Y-120250000D01*
%TO.N,Net-(C10-Pad2)*%
X103350000Y-101050000D02*
X103350000Y-97015000D01*
X103350000Y-101050000D02*
X103350000Y-102450000D01*
X99700000Y-107350000D02*
X99700000Y-105700000D01*
X99700000Y-104700000D02*
X103350000Y-101050000D01*
X99375000Y-108600000D02*
X99375000Y-107675000D01*
X103350000Y-97015000D02*
X103335000Y-97000000D01*
X99375000Y-107675000D02*
X99700000Y-107350000D01*
X99700000Y-105700000D02*
X99700000Y-104700000D01*
%TO.N,Net-(J2-SHIELD)*%
X81090000Y-96600000D02*
X81090000Y-105240000D01*
X85800000Y-105545000D02*
X86105000Y-105240000D01*
X85300000Y-105270000D02*
X85270000Y-105240000D01*
X85800000Y-105520000D02*
X86080000Y-105240000D01*
X85270000Y-96600000D02*
X81090000Y-96600000D01*
X85270000Y-105240000D02*
X85270000Y-107830000D01*
X85250000Y-110350000D02*
X85250000Y-107850000D01*
X85270000Y-107830000D02*
X85250000Y-107850000D01*
X81090000Y-105240000D02*
X85270000Y-105240000D01*
%TO.N,+5V*%
X169550000Y-76725000D02*
X167662500Y-76725000D01*
X166237500Y-75300000D02*
X167650000Y-76712500D01*
X93000000Y-80850000D02*
X98550000Y-75300000D01*
X95850000Y-97000000D02*
X93000000Y-94150000D01*
X98550000Y-75300000D02*
X166237500Y-75300000D01*
X167662500Y-76725000D02*
X167650000Y-76712500D01*
X93000000Y-94150000D02*
X93000000Y-80850000D01*
X102365000Y-97000000D02*
X95850000Y-97000000D01*
%TO.N,+BATT*%
X182375000Y-90425000D02*
X180475000Y-88525000D01*
X188925000Y-90425000D02*
X182375000Y-90425000D01*
X189025000Y-111475000D02*
X189025000Y-112365686D01*
X167650000Y-78987500D02*
X167650000Y-85420000D01*
X180475000Y-88150000D02*
X180200000Y-88150000D01*
X172800000Y-85550000D02*
X173250000Y-86000000D01*
X189025000Y-112365686D02*
X183640686Y-117750000D01*
X167650000Y-85120000D02*
X167220000Y-85550000D01*
X183640686Y-117750000D02*
X178300000Y-117750000D01*
X167650000Y-85420000D02*
X167520000Y-85550000D01*
X180475000Y-88525000D02*
X180475000Y-88300000D01*
X167570000Y-85500000D02*
X167520000Y-85550000D01*
X167520000Y-85550000D02*
X172800000Y-85550000D01*
X173250000Y-86000000D02*
X178150000Y-86000000D01*
%TO.N,REF*%
X143100000Y-114200000D02*
X141950000Y-113050000D01*
X141950000Y-107400000D02*
X141975000Y-107375000D01*
X141950000Y-110750000D02*
X141950000Y-107400000D01*
X158050000Y-114200000D02*
X143100000Y-114200000D01*
X162100000Y-118250000D02*
X158050000Y-114200000D01*
X178300000Y-118250000D02*
X162100000Y-118250000D01*
X141950000Y-113050000D02*
X141950000Y-110750000D01*
%TO.N,SW2*%
X119850000Y-92525000D02*
X119850000Y-89025000D01*
X119850000Y-89025000D02*
X119825000Y-89000000D01*
X119850000Y-92525000D02*
X129475000Y-92525000D01*
X134200000Y-109675305D02*
X139174695Y-114650000D01*
X129475000Y-92525000D02*
X134200000Y-97250000D01*
X134200000Y-97250000D02*
X134200000Y-109675305D01*
X161963604Y-118750000D02*
X178300000Y-118750000D01*
X139174695Y-114650000D02*
X157863604Y-114650000D01*
X157863604Y-114650000D02*
X161963604Y-118750000D01*
%TO.N,SW3*%
X131120000Y-74100000D02*
X131160000Y-74140000D01*
X138110000Y-74140000D02*
X138140000Y-74110000D01*
X94050000Y-86600000D02*
X96350000Y-88900000D01*
X99150000Y-92475000D02*
X99150000Y-88925000D01*
X174244000Y-74168000D02*
X180848000Y-74168000D01*
X96350000Y-88900000D02*
X99175000Y-88900000D01*
X180848000Y-74168000D02*
X180883000Y-74133000D01*
X131160000Y-74140000D02*
X138110000Y-74140000D01*
X182900000Y-119250000D02*
X190100000Y-112050000D01*
X99150000Y-88925000D02*
X99175000Y-88900000D01*
X94050000Y-81250000D02*
X94050000Y-86600000D01*
X178300000Y-119250000D02*
X182900000Y-119250000D01*
%TO.N,SW4A*%
X111950000Y-113675000D02*
X111950000Y-115475000D01*
X185725000Y-123675000D02*
X185725000Y-128820584D01*
X179295584Y-135250000D02*
X118263604Y-135250000D01*
X109950000Y-116200000D02*
X110675000Y-115475000D01*
X118263604Y-135250000D02*
X109950000Y-126936396D01*
X110675000Y-115475000D02*
X111950000Y-115475000D01*
X109950000Y-126936396D02*
X109950000Y-116200000D01*
X185725000Y-128820584D02*
X179295584Y-135250000D01*
%TO.N,SW4B*%
X117725000Y-115425000D02*
X118300000Y-116000000D01*
X185225000Y-128684188D02*
X185225000Y-123675000D01*
X118300000Y-131550000D02*
X121550000Y-134800000D01*
X118300000Y-116000000D02*
X118300000Y-131550000D01*
X116600000Y-115425000D02*
X117725000Y-115425000D01*
X121550000Y-134800000D02*
X179109188Y-134800000D01*
X179109188Y-134800000D02*
X185225000Y-128684188D01*
X116600000Y-115425000D02*
X116600000Y-113625000D01*
%TO.N,SW5*%
X127550000Y-107750000D02*
X131350000Y-107750000D01*
X127100000Y-106325000D02*
X127100000Y-107300000D01*
X131350000Y-107750000D02*
X139550000Y-115950000D01*
X163513604Y-128600000D02*
X169263604Y-134350000D01*
X139550000Y-123550000D02*
X144600000Y-128600000D01*
X123475000Y-106300000D02*
X127075000Y-106300000D01*
X184725000Y-128547792D02*
X184725000Y-123675000D01*
X127100000Y-107300000D02*
X127550000Y-107750000D01*
X169263604Y-134350000D02*
X178922792Y-134350000D01*
X139550000Y-115950000D02*
X139550000Y-123550000D01*
X178922792Y-134350000D02*
X184725000Y-128547792D01*
X144600000Y-128600000D02*
X163513604Y-128600000D01*
X127075000Y-106300000D02*
X127100000Y-106325000D01*
%TO.N,SW6*%
X118077208Y-135700000D02*
X109627208Y-127250000D01*
X179481980Y-135700000D02*
X118077208Y-135700000D01*
X97800000Y-112925000D02*
X99400000Y-112925000D01*
X103150000Y-127250000D02*
X97800000Y-121900000D01*
X97800000Y-121900000D02*
X97800000Y-112925000D01*
X109627208Y-127250000D02*
X103150000Y-127250000D01*
X99400000Y-112925000D02*
X99425000Y-112900000D01*
X186225000Y-128956980D02*
X179481980Y-135700000D01*
X186225000Y-123675000D02*
X186225000Y-128956980D01*
%TO.N,SW7A*%
X169450000Y-133900000D02*
X160575000Y-125025000D01*
X184225000Y-128411396D02*
X178736396Y-133900000D01*
X184225000Y-123675000D02*
X184225000Y-128411396D01*
X160575000Y-125025000D02*
X160575000Y-123500000D01*
X158675000Y-123500000D02*
X160575000Y-123500000D01*
X178736396Y-133900000D02*
X169450000Y-133900000D01*
%TO.N,SW7B*%
X166400000Y-119250000D02*
X168600000Y-121450000D01*
X169636396Y-133450000D02*
X178550000Y-133450000D01*
X158675000Y-121000000D02*
X160575000Y-121000000D01*
X183750000Y-128250000D02*
X183725000Y-128225000D01*
X178550000Y-133450000D02*
X183750000Y-128250000D01*
X160575000Y-119975000D02*
X161300000Y-119250000D01*
X168600000Y-121450000D02*
X168600000Y-132413604D01*
X160575000Y-121000000D02*
X160575000Y-119975000D01*
X183725000Y-128225000D02*
X183725000Y-123675000D01*
X161300000Y-119250000D02*
X166400000Y-119250000D01*
X168600000Y-132413604D02*
X169636396Y-133450000D01*
%TO.N,Net-(D2-A)*%
X175787500Y-102250000D02*
X172290000Y-102250000D01*
X172290000Y-102250000D02*
X172275000Y-102265000D01*
%TO.N,SWDIO*%
X187725000Y-112325000D02*
X187725000Y-110775000D01*
X187725000Y-110775000D02*
X188300000Y-110200000D01*
%TO.N,SWCLK*%
X189650000Y-115250000D02*
X188150000Y-115250000D01*
%TO.N,NRST*%
X180950000Y-117250000D02*
X178300000Y-117250000D01*
X184300000Y-113900000D02*
X180950000Y-117250000D01*
%TO.N,Net-(J2-CC1)*%
X86185000Y-99670000D02*
X87793604Y-99670000D01*
X87793604Y-99670000D02*
X89088604Y-98375000D01*
X89088604Y-98375000D02*
X89650000Y-98375000D01*
%TO.N,Net-(J2-D+-PadA6)*%
X87019620Y-100670000D02*
X87235000Y-100885380D01*
X86185000Y-101670000D02*
X87970000Y-101670000D01*
X87235000Y-101454620D02*
X87019620Y-101670000D01*
X88170000Y-101870000D02*
X89837500Y-101870000D01*
X87970000Y-101670000D02*
X88170000Y-101870000D01*
X86185000Y-100670000D02*
X87019620Y-100670000D01*
X87019620Y-101670000D02*
X86185000Y-101670000D01*
X87235000Y-100885380D02*
X87235000Y-101454620D01*
%TO.N,Net-(J2-D--PadA7)*%
X86185000Y-100170000D02*
X85350380Y-100170000D01*
X87930000Y-100170000D02*
X88130000Y-99970000D01*
X85135000Y-100954620D02*
X85350380Y-101170000D01*
X86185000Y-100170000D02*
X87930000Y-100170000D01*
X88130000Y-99970000D02*
X89837500Y-99970000D01*
X85135000Y-100385380D02*
X85135000Y-100954620D01*
X85350380Y-101170000D02*
X86185000Y-101170000D01*
X85350380Y-100170000D02*
X85135000Y-100385380D01*
%TO.N,Net-(J2-CC2)*%
X87920000Y-102670000D02*
X88825000Y-103575000D01*
X86185000Y-102670000D02*
X87920000Y-102670000D01*
X88825000Y-103575000D02*
X89650000Y-103575000D01*
%TO.N,Net-(J3-Pin_2)*%
X159900000Y-85550000D02*
X155025000Y-85550000D01*
X159550000Y-85500000D02*
X159600000Y-85550000D01*
X155025000Y-85550000D02*
X154975000Y-85500000D01*
%TO.N,Net-(JP1-A)*%
X182225000Y-112325000D02*
X182225000Y-108525000D01*
X177112500Y-107500000D02*
X172200000Y-112412500D01*
X182225000Y-108525000D02*
X181200000Y-107500000D01*
X172200000Y-114850000D02*
X172200000Y-112412500D01*
X181200000Y-107500000D02*
X177112500Y-107500000D01*
%TO.N,Net-(SW2-A)*%
X118175000Y-84950000D02*
X118150000Y-84925000D01*
X113975000Y-83920000D02*
X113975000Y-89000000D01*
X118175000Y-89000000D02*
X118175000Y-84950000D01*
X113975000Y-89000000D02*
X118175000Y-89000000D01*
%TO.N,Net-(SW3-A)*%
X100825000Y-84800000D02*
X100850000Y-84775000D01*
X104975000Y-83840000D02*
X104975000Y-88920000D01*
X100845000Y-88920000D02*
X100825000Y-88900000D01*
X100825000Y-88900000D02*
X100825000Y-84800000D01*
X104975000Y-88920000D02*
X100845000Y-88920000D01*
%TO.N,Net-(R18-Pad2)*%
X116600000Y-111975000D02*
X116530000Y-111975000D01*
X116530000Y-111975000D02*
X114475000Y-109920000D01*
X114450000Y-109945000D02*
X114475000Y-109920000D01*
X116600000Y-111975000D02*
X118350000Y-111975000D01*
%TO.N,Net-(R19-Pad2)*%
X111950000Y-112025000D02*
X111950000Y-109945000D01*
X110200000Y-112025000D02*
X111950000Y-112025000D01*
X111950000Y-109945000D02*
X111975000Y-109920000D01*
%TO.N,Net-(SW5-A)*%
X127055000Y-100920000D02*
X127055000Y-104630000D01*
X127055000Y-104630000D02*
X127100000Y-104675000D01*
X132135000Y-100920000D02*
X127055000Y-100920000D01*
X132135000Y-100920000D02*
X132135000Y-104660000D01*
X132135000Y-104660000D02*
X132150000Y-104675000D01*
%TO.N,Net-(SW6-A)*%
X104975000Y-118000000D02*
X104975000Y-112920000D01*
X101095000Y-112920000D02*
X101075000Y-112900000D01*
X104975000Y-118000000D02*
X104975000Y-120400000D01*
X104975000Y-112920000D02*
X101095000Y-112920000D01*
%TO.N,Net-(R28-Pad2)*%
X153975000Y-121000000D02*
X149075000Y-121000000D01*
X157025000Y-121000000D02*
X153975000Y-121000000D01*
%TO.N,Net-(R29-Pad2)*%
X153975000Y-123500000D02*
X149075000Y-123500000D01*
X157025000Y-123500000D02*
X153975000Y-123500000D01*
%TO.N,BT_P0_0*%
X187900000Y-103600000D02*
X189100000Y-103600000D01*
X187225000Y-112325000D02*
X187225000Y-104275000D01*
X187225000Y-104275000D02*
X187900000Y-103600000D01*
%TO.N,BT_P3_6*%
X186225000Y-103775000D02*
X186225000Y-112325000D01*
X187275000Y-102225000D02*
X187275000Y-102725000D01*
X189100000Y-101200000D02*
X188300000Y-101200000D01*
X188300000Y-101200000D02*
X187275000Y-102225000D01*
X187275000Y-102725000D02*
X186225000Y-103775000D01*
%TO.N,BT_P2_7*%
X192736396Y-118250000D02*
X194450000Y-116536396D01*
X194450000Y-116536396D02*
X194450000Y-104950000D01*
X189650000Y-118250000D02*
X192736396Y-118250000D01*
%TO.N,STAT*%
X177300000Y-90050000D02*
X180900000Y-90050000D01*
X182725000Y-91875000D02*
X182725000Y-112325000D01*
X165787701Y-80400000D02*
X165787701Y-79025201D01*
X165787701Y-79025201D02*
X165750000Y-78987500D01*
X176350000Y-89100000D02*
X177300000Y-90050000D01*
X180900000Y-90050000D02*
X182725000Y-91875000D01*
%TO.N,SCLK*%
X144700000Y-96250000D02*
X148200000Y-96250000D01*
X135950000Y-110400000D02*
X135950000Y-105000000D01*
X148200000Y-96250000D02*
X148975000Y-95475000D01*
X135950000Y-105000000D02*
X144700000Y-96250000D01*
X148975000Y-95475000D02*
X148975000Y-94625000D01*
X181474500Y-121950353D02*
X182225000Y-122700853D01*
X137975000Y-112425000D02*
X135950000Y-110400000D01*
X182225000Y-122700853D02*
X182225000Y-123675000D01*
%TO.N,MISO*%
X182700879Y-123650879D02*
X182725000Y-123675000D01*
X182700879Y-122152133D02*
X182700879Y-123650879D01*
%TO.N,MOSI*%
X168350000Y-105970000D02*
X168350000Y-105950000D01*
X183225000Y-122725000D02*
X183225000Y-123675000D01*
X183690000Y-120894500D02*
X183690000Y-122260000D01*
X171540000Y-109160000D02*
X168350000Y-105970000D01*
X183220000Y-120424500D02*
X183690000Y-120894500D01*
X183690000Y-122260000D02*
X183225000Y-122725000D01*
%TO.N,BT_P2_0*%
X194900000Y-107350000D02*
X195600000Y-106650000D01*
X189650000Y-118750000D02*
X192872792Y-118750000D01*
X194900000Y-116722792D02*
X194900000Y-107350000D01*
X192872792Y-118750000D02*
X194900000Y-116722792D01*
X195600000Y-106650000D02*
X195600000Y-104950000D01*
%TO.N,BT_P1_2*%
X186700000Y-93050000D02*
X186750000Y-93000000D01*
X186750000Y-93000000D02*
X191400000Y-93000000D01*
X186700000Y-93077208D02*
X186700000Y-93050000D01*
X191400000Y-93000000D02*
X193200000Y-94800000D01*
X183225000Y-96552208D02*
X186700000Y-93077208D01*
X193200000Y-94800000D02*
X193200000Y-96250000D01*
X183225000Y-112325000D02*
X183225000Y-96552208D01*
%TO.N,BT_P1_3*%
X186963604Y-93450000D02*
X183725000Y-96688604D01*
X192000000Y-94650000D02*
X190800000Y-93450000D01*
X190800000Y-93450000D02*
X186963604Y-93450000D01*
X192000000Y-96250000D02*
X192000000Y-94650000D01*
X183725000Y-96688604D02*
X183725000Y-112325000D01*
%TO.N,BT_P1_6*%
X184725000Y-100699695D02*
X187824695Y-97600000D01*
X187824695Y-97600000D02*
X189100000Y-97600000D01*
X184725000Y-112325000D02*
X184725000Y-100699695D01*
%TO.N,BT_P1_7*%
X187050000Y-94000000D02*
X190200000Y-94000000D01*
X184225000Y-112325000D02*
X184225000Y-96825000D01*
X190200000Y-94000000D02*
X190800000Y-94600000D01*
X184225000Y-96825000D02*
X187050000Y-94000000D01*
X190800000Y-94600000D02*
X190800000Y-96250000D01*
%TO.N,BT_P0_2*%
X189650000Y-117750000D02*
X192600000Y-117750000D01*
X190150000Y-106600000D02*
X190800000Y-105950000D01*
X192600000Y-117750000D02*
X194000000Y-116350000D01*
X192600000Y-111000000D02*
X190500000Y-111000000D01*
X194000000Y-112400000D02*
X192600000Y-111000000D01*
X188900000Y-109400000D02*
X188900000Y-107150000D01*
X190500000Y-111000000D02*
X188900000Y-109400000D01*
X189450000Y-106600000D02*
X190150000Y-106600000D01*
X194000000Y-116350000D02*
X194000000Y-112400000D01*
X190800000Y-105950000D02*
X190800000Y-104950000D01*
X188900000Y-107150000D02*
X189450000Y-106600000D01*
%TO.N,MOTION*%
X181725000Y-112325000D02*
X181725000Y-114225000D01*
X172281167Y-108489421D02*
X172279421Y-108489421D01*
X156570000Y-91820000D02*
X147765500Y-91820000D01*
X147765500Y-91820000D02*
X147760000Y-91825500D01*
X181725000Y-114225000D02*
X181300000Y-114650000D01*
X172279421Y-108489421D02*
X169250000Y-105460000D01*
D61*
%TO.N,D-*%
X95300000Y-108850000D02*
X95300000Y-120001040D01*
X95300000Y-120001040D02*
X111423960Y-136125000D01*
X111423960Y-136125000D02*
X180375000Y-136125000D01*
X92112500Y-99970000D02*
X93980000Y-99970000D01*
X180375000Y-136125000D02*
X181050000Y-135450000D01*
X93980000Y-99970000D02*
X94000000Y-99950000D01*
X191292296Y-116250000D02*
X189650000Y-116250000D01*
X191882162Y-116839866D02*
X191292296Y-116250000D01*
%TO.N,D+*%
X92112500Y-101870000D02*
X93930000Y-101870000D01*
X93950000Y-119216726D02*
X93950000Y-108850000D01*
X192200000Y-115750000D02*
X189650000Y-115750000D01*
X181682923Y-136223573D02*
X181381496Y-136525000D01*
X111258274Y-136525000D02*
X93950000Y-119216726D01*
X181381496Y-136525000D02*
X111258274Y-136525000D01*
X192650000Y-116200000D02*
X192200000Y-115750000D01*
X93930000Y-101870000D02*
X93950000Y-101850000D01*
D60*
%TO.N,BT_RX*%
X187650000Y-98800000D02*
X189100000Y-98800000D01*
X187050000Y-99400000D02*
X187650000Y-98800000D01*
X185725000Y-112325000D02*
X185725000Y-103225000D01*
X185725000Y-103225000D02*
X186550000Y-102400000D01*
%TO.N,BT_TX*%
X187924695Y-100000000D02*
X189100000Y-100000000D01*
X185225000Y-112325000D02*
X185225000Y-102699695D01*
X185225000Y-102699695D02*
X187924695Y-100000000D01*
%TO.N,BT_RST*%
X186725000Y-104025000D02*
X188350000Y-102400000D01*
X188350000Y-102400000D02*
X189100000Y-102400000D01*
X186725000Y-112325000D02*
X186725000Y-104025000D01*
%TO.N,Net-(R2-Pad1)*%
X121030000Y-130542500D02*
X121087500Y-130600000D01*
X121030000Y-128050000D02*
X121030000Y-130507500D01*
X121030000Y-130507500D02*
X120937500Y-130600000D01*
X121000000Y-128080000D02*
X121030000Y-128050000D01*
%TO.N,Net-(R3-Pad1)*%
X121050000Y-122530000D02*
X121030000Y-122550000D01*
X121050000Y-118762500D02*
X121050000Y-122530000D01*
%TO.N,Net-(R5-Pad1)*%
X128030000Y-128050000D02*
X128030000Y-130357500D01*
X128030000Y-130357500D02*
X127837500Y-130550000D01*
X128030000Y-130492500D02*
X128087500Y-130550000D01*
X128050000Y-128070000D02*
X128030000Y-128050000D01*
%TO.N,Net-(R6-Pad2)*%
X135050000Y-119912500D02*
X135050000Y-122530000D01*
X135050000Y-122530000D02*
X135030000Y-122550000D01*
%TO.N,Net-(U5-VBUS)*%
X98120000Y-100920000D02*
X98250000Y-101050000D01*
X92112500Y-100920000D02*
X98120000Y-100920000D01*
X88600000Y-104400000D02*
X91875000Y-104400000D01*
X86185000Y-98470000D02*
X88180000Y-98470000D01*
X89100000Y-97550000D02*
X94750000Y-97550000D01*
X95675000Y-103625000D02*
X98250000Y-101050000D01*
X86185000Y-103370000D02*
X87570000Y-103370000D01*
X87570000Y-103370000D02*
X88600000Y-104400000D01*
X88180000Y-98470000D02*
X89100000Y-97550000D01*
X92650000Y-103625000D02*
X95675000Y-103625000D01*
X94750000Y-97550000D02*
X98250000Y-101050000D01*
X91875000Y-104400000D02*
X92650000Y-103625000D01*
%TO.N,Net-(D1-BK)*%
X132523430Y-116987500D02*
X128631000Y-113095070D01*
X128000000Y-112025000D02*
X127975000Y-112000000D01*
X135050000Y-116987500D02*
X132523430Y-116987500D01*
X128631000Y-113095070D02*
X128631000Y-112200000D01*
%TO.N,Net-(D1-GK)*%
X126650000Y-112055000D02*
X126705000Y-112000000D01*
X126472000Y-116915500D02*
X126450000Y-116937500D01*
X126472000Y-112200000D02*
X126472000Y-116915500D01*
%TO.N,Net-(D1-RK)*%
X121050000Y-115463000D02*
X121050000Y-116937500D01*
X124313000Y-112200000D02*
X121050000Y-115463000D01*
%TO.N,Net-(R4-Pad2)*%
X128030000Y-120830000D02*
X128030000Y-122550000D01*
X126450000Y-119250000D02*
X128030000Y-120830000D01*
X126450000Y-118762500D02*
X126450000Y-119250000D01*
%TO.N,Net-(R7-Pad1)*%
X135000000Y-128080000D02*
X135030000Y-128050000D01*
X135030000Y-130392500D02*
X135137500Y-130500000D01*
X135030000Y-130307500D02*
X134837500Y-130500000D01*
X135030000Y-128050000D02*
X135030000Y-130307500D01*
%TO.N,Net-(U6-PROG)*%
X165725000Y-76737500D02*
X165750000Y-76712500D01*
X162900000Y-76737500D02*
X165725000Y-76737500D01*
%TO.N,Net-(U7-FB)*%
X180300000Y-81312500D02*
X180300000Y-83387500D01*
X180300000Y-83387500D02*
X180287500Y-83400000D01*
%TO.N,Net-(U9-XYLED)*%
X140975000Y-94625000D02*
X140975000Y-89050500D01*
X162070000Y-92080000D02*
X162000000Y-92150000D01*
X140975000Y-89050500D02*
X141000000Y-89025500D01*
X165512500Y-92080000D02*
X162070000Y-92080000D01*
%TO.N,Net-(R14-Pad2)*%
X168437500Y-92080000D02*
X172150000Y-92080000D01*
%TO.N,Net-(R15-Pad1)*%
X177650000Y-94620000D02*
X177650000Y-102212500D01*
X177650000Y-102212500D02*
X177612500Y-102250000D01*
%TO.N,Net-(U2-PA0)*%
X177124598Y-120750000D02*
X178300000Y-120750000D01*
X137762500Y-130500000D02*
X162500000Y-130500000D01*
X176062299Y-121812299D02*
X177124598Y-120750000D01*
%TO.N,Net-(U2-PA1)*%
X176900000Y-122500000D02*
X176900000Y-121736396D01*
X162499503Y-132000000D02*
X132212500Y-132000000D01*
X176825000Y-122575000D02*
X176900000Y-122500000D01*
X177386396Y-121250000D02*
X178300000Y-121250000D01*
X176900000Y-121736396D02*
X177386396Y-121250000D01*
X162500000Y-132000497D02*
X162499503Y-132000000D01*
X132212500Y-132000000D02*
X130762500Y-130550000D01*
%TO.N,Net-(U2-PA2)*%
X179850000Y-122400000D02*
X178150000Y-124100000D01*
X179600000Y-121750000D02*
X179850000Y-122000000D01*
X126362500Y-133100000D02*
X123862500Y-130600000D01*
X178300000Y-121750000D02*
X179600000Y-121750000D01*
X162500000Y-133100000D02*
X126362500Y-133100000D01*
X179850000Y-122000000D02*
X179850000Y-122400000D01*
%TD*%
%TA.AperFunction,Conductor*%
%TO.N,+BATT*%
G36*
X179477284Y-85318907D02*
G01*
X179483388Y-85323720D01*
X179489035Y-85328543D01*
X179499357Y-85337358D01*
X179569315Y-85376536D01*
X179627506Y-85395443D01*
X179635134Y-85396651D01*
X179691004Y-85405500D01*
X179691008Y-85405500D01*
X180058573Y-85405500D01*
X180077298Y-85402721D01*
X180118224Y-85396651D01*
X180173226Y-85379966D01*
X180205911Y-85364505D01*
X180248241Y-85355000D01*
X180884757Y-85355000D01*
X180904071Y-85356902D01*
X180935985Y-85363250D01*
X180935984Y-85363250D01*
X180972044Y-85367159D01*
X180989444Y-85367500D01*
X181006844Y-85367842D01*
X181006844Y-85367841D01*
X181006845Y-85367842D01*
X181015487Y-85367830D01*
X181015488Y-85367829D01*
X181021569Y-85367821D01*
X181021571Y-85369477D01*
X181074060Y-85379566D01*
X181096250Y-85396250D01*
X181171004Y-85471004D01*
X181198781Y-85525521D01*
X181200000Y-85541008D01*
X181200000Y-88858992D01*
X181181093Y-88917183D01*
X181171004Y-88928996D01*
X181028996Y-89071004D01*
X180974479Y-89098781D01*
X180958992Y-89100000D01*
X179470561Y-89100000D01*
X179431140Y-89091813D01*
X179132282Y-88962081D01*
X179099381Y-88938873D01*
X177249433Y-86959858D01*
X177229666Y-86928592D01*
X177106911Y-86617513D01*
X177100000Y-86581174D01*
X177100000Y-85541008D01*
X177118907Y-85482817D01*
X177128996Y-85471004D01*
X177271004Y-85328996D01*
X177325521Y-85301219D01*
X177341008Y-85300000D01*
X179419093Y-85300000D01*
X179477284Y-85318907D01*
G37*
%TD.AperFunction*%
%TD*%
%TA.AperFunction,Conductor*%
%TO.N,+3V3*%
G36*
X184167183Y-82468907D02*
G01*
X184178996Y-82478996D01*
X184321004Y-82621004D01*
X184348781Y-82675521D01*
X184350000Y-82691008D01*
X184350000Y-84958992D01*
X184331093Y-85017183D01*
X184321004Y-85028996D01*
X184268110Y-85081890D01*
X184213593Y-85109667D01*
X184167514Y-85106041D01*
X184162943Y-85104556D01*
X184162944Y-85104556D01*
X184099447Y-85094500D01*
X184099444Y-85094500D01*
X182541431Y-85094500D01*
X182541427Y-85094500D01*
X182481779Y-85103348D01*
X182426770Y-85120035D01*
X182426769Y-85120036D01*
X182394084Y-85135495D01*
X182351756Y-85145000D01*
X181715246Y-85145000D01*
X181695933Y-85143098D01*
X181664013Y-85136749D01*
X181664015Y-85136749D01*
X181639978Y-85134143D01*
X181627961Y-85132841D01*
X181610560Y-85132499D01*
X181593160Y-85132157D01*
X181593159Y-85132157D01*
X181584515Y-85132169D01*
X181584513Y-85132169D01*
X181578434Y-85132178D01*
X181578431Y-85130529D01*
X181525907Y-85120415D01*
X181503748Y-85103748D01*
X181434378Y-85034378D01*
X181406601Y-84979861D01*
X181405937Y-84962881D01*
X181405500Y-84962881D01*
X181405500Y-82736973D01*
X181405183Y-82728907D01*
X181405183Y-82728906D01*
X181403647Y-82709396D01*
X181403643Y-82709384D01*
X181403181Y-82706791D01*
X181403347Y-82705589D01*
X181403265Y-82704547D01*
X181403493Y-82704529D01*
X181411554Y-82646181D01*
X181430633Y-82619367D01*
X181571005Y-82478996D01*
X181625521Y-82451219D01*
X181641008Y-82450000D01*
X184108992Y-82450000D01*
X184167183Y-82468907D01*
G37*
%TD.AperFunction*%
%TD*%
%TA.AperFunction,Conductor*%
%TO.N,Net-(U7-SW)*%
G36*
X184157635Y-85318907D02*
G01*
X184179639Y-85340951D01*
X184257863Y-85449030D01*
X184276664Y-85507254D01*
X184271707Y-85538009D01*
X183172515Y-88879553D01*
X183136517Y-88928816D01*
X182925978Y-89081198D01*
X182867933Y-89100000D01*
X181691008Y-89100000D01*
X181632817Y-89081093D01*
X181621004Y-89071004D01*
X181478996Y-88928996D01*
X181451219Y-88874479D01*
X181450000Y-88858992D01*
X181450000Y-87891008D01*
X181468907Y-87832817D01*
X181478996Y-87821004D01*
X181621004Y-87678996D01*
X181675521Y-87651219D01*
X181691008Y-87650000D01*
X182449999Y-87650000D01*
X182450000Y-87650000D01*
X182650000Y-87650000D01*
X182650000Y-86996406D01*
X182650424Y-86989938D01*
X182655682Y-86950000D01*
X182655682Y-86949999D01*
X182650424Y-86910060D01*
X182650000Y-86903592D01*
X182650000Y-85900000D01*
X182650000Y-85700000D01*
X182511399Y-85700000D01*
X182453233Y-85661134D01*
X182453231Y-85661133D01*
X182453228Y-85661132D01*
X182453227Y-85661132D01*
X182394758Y-85649501D01*
X182394748Y-85649500D01*
X181685252Y-85649500D01*
X181685249Y-85649500D01*
X181623923Y-85661699D01*
X181563162Y-85654507D01*
X181534605Y-85634605D01*
X181470003Y-85570003D01*
X181442226Y-85515486D01*
X181451797Y-85455054D01*
X181469997Y-85430002D01*
X181534608Y-85365391D01*
X181589121Y-85337617D01*
X181623923Y-85338301D01*
X181685241Y-85350498D01*
X181685246Y-85350498D01*
X181685252Y-85350500D01*
X181685253Y-85350500D01*
X182394747Y-85350500D01*
X182394748Y-85350500D01*
X182453231Y-85338867D01*
X182474517Y-85324643D01*
X182486429Y-85316685D01*
X182541431Y-85300000D01*
X184099444Y-85300000D01*
X184157635Y-85318907D01*
G37*
%TD.AperFunction*%
%TD*%
%TA.AperFunction,Conductor*%
%TO.N,Net-(U7-FB)*%
G36*
X181017183Y-82518907D02*
G01*
X181028996Y-82528996D01*
X181171004Y-82671004D01*
X181198781Y-82725521D01*
X181200000Y-82741008D01*
X181200000Y-84958992D01*
X181181093Y-85017183D01*
X181171003Y-85028996D01*
X181065393Y-85134605D01*
X181010877Y-85162382D01*
X180976076Y-85161699D01*
X180914750Y-85149500D01*
X180914748Y-85149500D01*
X180205252Y-85149500D01*
X180205251Y-85149500D01*
X180205241Y-85149501D01*
X180146772Y-85161132D01*
X180146770Y-85161132D01*
X180146769Y-85161133D01*
X180146767Y-85161133D01*
X180146765Y-85161135D01*
X180113571Y-85183315D01*
X180058569Y-85200000D01*
X179691008Y-85200000D01*
X179632817Y-85181093D01*
X179621004Y-85171004D01*
X179478996Y-85028996D01*
X179451219Y-84974479D01*
X179450000Y-84958992D01*
X179450000Y-82741008D01*
X179468907Y-82682817D01*
X179478996Y-82671004D01*
X179621004Y-82528996D01*
X179675521Y-82501219D01*
X179691008Y-82500000D01*
X180958992Y-82500000D01*
X181017183Y-82518907D01*
G37*
%TD.AperFunction*%
%TD*%
M02*
