%TF.GenerationSoftware,KiCad,Pcbnew,7.0.8*%
%TF.CreationDate,2024-01-02T21:28:18+01:00*%
%TF.ProjectId,Computer Mouse,436f6d70-7574-4657-9220-4d6f7573652e,rev?*%
%TF.SameCoordinates,Original*%
%TF.FileFunction,Legend,Bot*%
%TF.FilePolarity,Positive*%
%FSLAX46Y46*%
G04 Gerber Fmt 4.6, Leading zero omitted, Abs format (unit mm)*
G04 Created by KiCad (PCBNEW 7.0.8) date 2024-01-02 21:28:18*
%MOMM*%
%LPD*%
G01*
G04 APERTURE LIST*
%ADD10C,0.150000*%
%ADD11C,0.120000*%
G04 APERTURE END LIST*
D10*
X165043332Y-89067200D02*
X164900475Y-89114819D01*
X164900475Y-89114819D02*
X164662380Y-89114819D01*
X164662380Y-89114819D02*
X164567142Y-89067200D01*
X164567142Y-89067200D02*
X164519523Y-89019580D01*
X164519523Y-89019580D02*
X164471904Y-88924342D01*
X164471904Y-88924342D02*
X164471904Y-88829104D01*
X164471904Y-88829104D02*
X164519523Y-88733866D01*
X164519523Y-88733866D02*
X164567142Y-88686247D01*
X164567142Y-88686247D02*
X164662380Y-88638628D01*
X164662380Y-88638628D02*
X164852856Y-88591009D01*
X164852856Y-88591009D02*
X164948094Y-88543390D01*
X164948094Y-88543390D02*
X164995713Y-88495771D01*
X164995713Y-88495771D02*
X165043332Y-88400533D01*
X165043332Y-88400533D02*
X165043332Y-88305295D01*
X165043332Y-88305295D02*
X164995713Y-88210057D01*
X164995713Y-88210057D02*
X164948094Y-88162438D01*
X164948094Y-88162438D02*
X164852856Y-88114819D01*
X164852856Y-88114819D02*
X164614761Y-88114819D01*
X164614761Y-88114819D02*
X164471904Y-88162438D01*
X164138570Y-88114819D02*
X163900475Y-89114819D01*
X163900475Y-89114819D02*
X163709999Y-88400533D01*
X163709999Y-88400533D02*
X163519523Y-89114819D01*
X163519523Y-89114819D02*
X163281428Y-88114819D01*
X162376666Y-89114819D02*
X162948094Y-89114819D01*
X162662380Y-89114819D02*
X162662380Y-88114819D01*
X162662380Y-88114819D02*
X162757618Y-88257676D01*
X162757618Y-88257676D02*
X162852856Y-88352914D01*
X162852856Y-88352914D02*
X162948094Y-88400533D01*
D11*
%TO.C,SW1*%
X160060000Y-87900000D02*
X160060000Y-86590000D01*
X160060000Y-87900000D02*
X161443000Y-87900000D01*
X160300000Y-83440000D02*
X167121000Y-83440000D01*
X160300000Y-84510000D02*
X160300000Y-83440000D01*
X160300000Y-87660000D02*
X160300000Y-86590000D01*
X160300000Y-87660000D02*
X167121000Y-87660000D01*
X161900000Y-84915000D02*
X165520000Y-84915000D01*
X161900000Y-84985000D02*
X163106667Y-84985000D01*
X161900000Y-85105000D02*
X163106667Y-85105000D01*
X161900000Y-85225000D02*
X163106667Y-85225000D01*
X161900000Y-85345000D02*
X163106667Y-85345000D01*
X161900000Y-85465000D02*
X163106667Y-85465000D01*
X161900000Y-85585000D02*
X163106667Y-85585000D01*
X161900000Y-85705000D02*
X163106667Y-85705000D01*
X161900000Y-85825000D02*
X163106667Y-85825000D01*
X161900000Y-85945000D02*
X163106667Y-85945000D01*
X161900000Y-86065000D02*
X163106667Y-86065000D01*
X161900000Y-86185000D02*
X161900000Y-84915000D01*
X163106667Y-86185000D02*
X163106667Y-84915000D01*
X165520000Y-84915000D02*
X165520000Y-86185000D01*
X165520000Y-86185000D02*
X161900000Y-86185000D01*
X167121000Y-84560000D02*
X167121000Y-83440000D01*
X167121000Y-87660000D02*
X167121000Y-86540000D01*
%TD*%
M02*
