%TF.GenerationSoftware,KiCad,Pcbnew,7.0.8*%
%TF.CreationDate,2024-01-02T21:28:18+01:00*%
%TF.ProjectId,Computer Mouse,436f6d70-7574-4657-9220-4d6f7573652e,rev?*%
%TF.SameCoordinates,Original*%
%TF.FileFunction,Soldermask,Bot*%
%TF.FilePolarity,Negative*%
%FSLAX46Y46*%
G04 Gerber Fmt 4.6, Leading zero omitted, Abs format (unit mm)*
G04 Created by KiCad (PCBNEW 7.0.8) date 2024-01-02 21:28:18*
%MOMM*%
%LPD*%
G01*
G04 APERTURE LIST*
G04 Aperture macros list*
%AMRoundRect*
0 Rectangle with rounded corners*
0 $1 Rounding radius*
0 $2 $3 $4 $5 $6 $7 $8 $9 X,Y pos of 4 corners*
0 Add a 4 corners polygon primitive as box body*
4,1,4,$2,$3,$4,$5,$6,$7,$8,$9,$2,$3,0*
0 Add four circle primitives for the rounded corners*
1,1,$1+$1,$2,$3*
1,1,$1+$1,$4,$5*
1,1,$1+$1,$6,$7*
1,1,$1+$1,$8,$9*
0 Add four rect primitives between the rounded corners*
20,1,$1+$1,$2,$3,$4,$5,0*
20,1,$1+$1,$4,$5,$6,$7,0*
20,1,$1+$1,$6,$7,$8,$9,0*
20,1,$1+$1,$8,$9,$2,$3,0*%
G04 Aperture macros list end*
%ADD10R,1.800000X2.100000*%
%ADD11C,1.524000*%
%ADD12R,1.800000X1.800000*%
%ADD13C,1.800000*%
%ADD14R,2.100000X1.800000*%
%ADD15C,0.650000*%
%ADD16O,2.100000X1.000000*%
%ADD17O,1.600000X1.000000*%
%ADD18RoundRect,0.250000X-0.750000X0.600000X-0.750000X-0.600000X0.750000X-0.600000X0.750000X0.600000X0*%
%ADD19O,2.000000X1.700000*%
%ADD20RoundRect,0.250000X0.600000X0.725000X-0.600000X0.725000X-0.600000X-0.725000X0.600000X-0.725000X0*%
%ADD21O,1.700000X1.950000*%
%ADD22R,1.600000X1.600000*%
%ADD23O,1.600000X1.600000*%
G04 APERTURE END LIST*
D10*
%TO.C,SW4*%
X109975000Y-107920000D03*
X118975000Y-107920000D03*
D11*
X114475000Y-109920000D03*
X116975000Y-109920000D03*
%TD*%
D12*
%TO.C,D1*%
X130790000Y-112200000D03*
D13*
X128631000Y-112200000D03*
X126472000Y-112200000D03*
X124313000Y-112200000D03*
%TD*%
D11*
%TO.C,SW2*%
X113975000Y-83920000D03*
X113975000Y-89000000D03*
X113975000Y-94080000D03*
%TD*%
%TO.C,SW5*%
X132135000Y-100920000D03*
X127055000Y-100920000D03*
X121975000Y-100920000D03*
%TD*%
D14*
%TO.C,SW7*%
X151975000Y-125500000D03*
X151975000Y-116500000D03*
D11*
X153975000Y-121000000D03*
X153975000Y-118500000D03*
%TD*%
D15*
%TO.C,J2*%
X84740000Y-98030000D03*
X84740000Y-103810000D03*
D16*
X85270000Y-96600000D03*
D17*
X81090000Y-96600000D03*
D16*
X85270000Y-105240000D03*
D17*
X81090000Y-105240000D03*
%TD*%
D18*
%TO.C,J3*%
X154975000Y-83000000D03*
D19*
X154975000Y-85500000D03*
%TD*%
D12*
%TO.C,D2*%
X172275000Y-99725000D03*
D13*
X172275000Y-102265000D03*
%TD*%
D11*
%TO.C,U9*%
X154975000Y-94625000D03*
X152975000Y-94625000D03*
X150975000Y-94625000D03*
X148975000Y-94625000D03*
X146975000Y-94625000D03*
X144975000Y-94625000D03*
X142975000Y-94625000D03*
X140975000Y-94625000D03*
X138975000Y-94625000D03*
X137000000Y-94625000D03*
X137975000Y-107375000D03*
X139975000Y-107375000D03*
X141975000Y-107375000D03*
X143975000Y-107375000D03*
X145975000Y-107375000D03*
X147975000Y-107375000D03*
X149975000Y-107375000D03*
X151975000Y-107375000D03*
X153975000Y-107375000D03*
X155975000Y-107375000D03*
%TD*%
%TO.C,SW3*%
X104975000Y-83840000D03*
X104975000Y-88920000D03*
X104975000Y-94000000D03*
%TD*%
%TO.C,SW6*%
X104975000Y-118000000D03*
X104975000Y-112920000D03*
X104975000Y-107840000D03*
%TD*%
D20*
%TO.C,J1*%
X138975000Y-85300000D03*
D21*
X136475000Y-85300000D03*
X133975000Y-85300000D03*
X131475000Y-85300000D03*
X128975000Y-85300000D03*
%TD*%
D22*
%TO.C,SW1*%
X159900000Y-85550000D03*
D23*
X167520000Y-85550000D03*
%TD*%
M02*
