%TF.GenerationSoftware,KiCad,Pcbnew,7.0.8*%
%TF.CreationDate,2024-01-02T21:28:18+01:00*%
%TF.ProjectId,Computer Mouse,436f6d70-7574-4657-9220-4d6f7573652e,rev?*%
%TF.SameCoordinates,Original*%
%TF.FileFunction,Soldermask,Top*%
%TF.FilePolarity,Negative*%
%FSLAX46Y46*%
G04 Gerber Fmt 4.6, Leading zero omitted, Abs format (unit mm)*
G04 Created by KiCad (PCBNEW 7.0.8) date 2024-01-02 21:28:18*
%MOMM*%
%LPD*%
G01*
G04 APERTURE LIST*
G04 Aperture macros list*
%AMRoundRect*
0 Rectangle with rounded corners*
0 $1 Rounding radius*
0 $2 $3 $4 $5 $6 $7 $8 $9 X,Y pos of 4 corners*
0 Add a 4 corners polygon primitive as box body*
4,1,4,$2,$3,$4,$5,$6,$7,$8,$9,$2,$3,0*
0 Add four circle primitives for the rounded corners*
1,1,$1+$1,$2,$3*
1,1,$1+$1,$4,$5*
1,1,$1+$1,$6,$7*
1,1,$1+$1,$8,$9*
0 Add four rect primitives between the rounded corners*
20,1,$1+$1,$2,$3,$4,$5,0*
20,1,$1+$1,$4,$5,$6,$7,0*
20,1,$1+$1,$6,$7,$8,$9,0*
20,1,$1+$1,$8,$9,$2,$3,0*%
G04 Aperture macros list end*
%ADD10RoundRect,0.250000X-0.450000X0.262500X-0.450000X-0.262500X0.450000X-0.262500X0.450000X0.262500X0*%
%ADD11RoundRect,0.150000X-0.512500X-0.150000X0.512500X-0.150000X0.512500X0.150000X-0.512500X0.150000X0*%
%ADD12R,0.700000X1.500000*%
%ADD13R,1.500000X0.700000*%
%ADD14RoundRect,0.075000X-0.700000X-0.075000X0.700000X-0.075000X0.700000X0.075000X-0.700000X0.075000X0*%
%ADD15RoundRect,0.075000X-0.075000X-0.700000X0.075000X-0.700000X0.075000X0.700000X-0.075000X0.700000X0*%
%ADD16RoundRect,0.250000X-0.475000X0.250000X-0.475000X-0.250000X0.475000X-0.250000X0.475000X0.250000X0*%
%ADD17RoundRect,0.225000X-0.225000X-0.250000X0.225000X-0.250000X0.225000X0.250000X-0.225000X0.250000X0*%
%ADD18RoundRect,0.200000X0.275000X-0.200000X0.275000X0.200000X-0.275000X0.200000X-0.275000X-0.200000X0*%
%ADD19RoundRect,0.250000X-0.312500X-0.625000X0.312500X-0.625000X0.312500X0.625000X-0.312500X0.625000X0*%
%ADD20RoundRect,0.150000X0.150000X-0.512500X0.150000X0.512500X-0.150000X0.512500X-0.150000X-0.512500X0*%
%ADD21R,1.800000X2.100000*%
%ADD22C,1.540000*%
%ADD23C,1.524000*%
%ADD24RoundRect,0.250000X-1.075000X0.375000X-1.075000X-0.375000X1.075000X-0.375000X1.075000X0.375000X0*%
%ADD25RoundRect,0.200000X0.200000X0.275000X-0.200000X0.275000X-0.200000X-0.275000X0.200000X-0.275000X0*%
%ADD26RoundRect,0.250000X0.650000X2.450000X-0.650000X2.450000X-0.650000X-2.450000X0.650000X-2.450000X0*%
%ADD27RoundRect,0.250000X-0.250000X-0.475000X0.250000X-0.475000X0.250000X0.475000X-0.250000X0.475000X0*%
%ADD28RoundRect,0.137500X0.137500X-0.587500X0.137500X0.587500X-0.137500X0.587500X-0.137500X-0.587500X0*%
%ADD29RoundRect,0.225000X-0.250000X0.225000X-0.250000X-0.225000X0.250000X-0.225000X0.250000X0.225000X0*%
%ADD30RoundRect,0.250000X-0.625000X0.312500X-0.625000X-0.312500X0.625000X-0.312500X0.625000X0.312500X0*%
%ADD31RoundRect,0.200000X-0.200000X-0.275000X0.200000X-0.275000X0.200000X0.275000X-0.200000X0.275000X0*%
%ADD32RoundRect,0.250000X0.262500X0.450000X-0.262500X0.450000X-0.262500X-0.450000X0.262500X-0.450000X0*%
%ADD33RoundRect,0.250000X0.475000X-0.250000X0.475000X0.250000X-0.475000X0.250000X-0.475000X-0.250000X0*%
%ADD34R,1.500000X1.000000*%
%ADD35RoundRect,0.250000X0.450000X-0.262500X0.450000X0.262500X-0.450000X0.262500X-0.450000X-0.262500X0*%
%ADD36R,1.800000X1.800000*%
%ADD37C,1.800000*%
%ADD38RoundRect,0.200000X-0.275000X0.200000X-0.275000X-0.200000X0.275000X-0.200000X0.275000X0.200000X0*%
%ADD39RoundRect,0.250000X0.325000X0.650000X-0.325000X0.650000X-0.325000X-0.650000X0.325000X-0.650000X0*%
%ADD40RoundRect,0.250000X0.250000X0.475000X-0.250000X0.475000X-0.250000X-0.475000X0.250000X-0.475000X0*%
%ADD41RoundRect,0.225000X0.250000X-0.225000X0.250000X0.225000X-0.250000X0.225000X-0.250000X-0.225000X0*%
%ADD42RoundRect,0.237500X-0.287500X-0.237500X0.287500X-0.237500X0.287500X0.237500X-0.287500X0.237500X0*%
%ADD43RoundRect,0.225000X0.225000X0.250000X-0.225000X0.250000X-0.225000X-0.250000X0.225000X-0.250000X0*%
%ADD44R,2.100000X1.800000*%
%ADD45RoundRect,0.137500X-0.587500X-0.137500X0.587500X-0.137500X0.587500X0.137500X-0.587500X0.137500X0*%
%ADD46C,0.650000*%
%ADD47R,1.450000X0.600000*%
%ADD48R,1.450000X0.300000*%
%ADD49O,2.100000X1.000000*%
%ADD50O,1.600000X1.000000*%
%ADD51RoundRect,0.250000X-0.750000X0.600000X-0.750000X-0.600000X0.750000X-0.600000X0.750000X0.600000X0*%
%ADD52O,2.000000X1.700000*%
%ADD53R,0.670000X0.300000*%
%ADD54RoundRect,0.147500X-0.147500X-0.172500X0.147500X-0.172500X0.147500X0.172500X-0.147500X0.172500X0*%
%ADD55RoundRect,0.250000X0.312500X0.625000X-0.312500X0.625000X-0.312500X-0.625000X0.312500X-0.625000X0*%
%ADD56RoundRect,0.250000X0.600000X0.725000X-0.600000X0.725000X-0.600000X-0.725000X0.600000X-0.725000X0*%
%ADD57O,1.700000X1.950000*%
%ADD58R,1.600000X1.600000*%
%ADD59O,1.600000X1.600000*%
G04 APERTURE END LIST*
D10*
%TO.C,R11*%
X162900000Y-76737500D03*
X162900000Y-78562500D03*
%TD*%
D11*
%TO.C,U5*%
X89837500Y-99970000D03*
X89837500Y-100920000D03*
X89837500Y-101870000D03*
X92112500Y-101870000D03*
X92112500Y-100920000D03*
X92112500Y-99970000D03*
%TD*%
D12*
%TO.C,U10*%
X195600000Y-96250000D03*
X194400000Y-96250000D03*
X193200000Y-96250000D03*
X192000000Y-96250000D03*
X190800000Y-96250000D03*
D13*
X189100000Y-97600000D03*
X189100000Y-98800000D03*
X189100000Y-100000000D03*
X189100000Y-101200000D03*
X189100000Y-102400000D03*
X189100000Y-103600000D03*
D12*
X190800000Y-104950000D03*
X192000000Y-104950000D03*
X193200000Y-104950000D03*
X194450000Y-104950000D03*
X195600000Y-104950000D03*
%TD*%
D14*
%TO.C,U2*%
X178300000Y-114250000D03*
X178300000Y-114750000D03*
X178300000Y-115250000D03*
X178300000Y-115750000D03*
X178300000Y-116250000D03*
X178300000Y-116750000D03*
X178300000Y-117250000D03*
X178300000Y-117750000D03*
X178300000Y-118250000D03*
X178300000Y-118750000D03*
X178300000Y-119250000D03*
X178300000Y-119750000D03*
X178300000Y-120250000D03*
X178300000Y-120750000D03*
X178300000Y-121250000D03*
X178300000Y-121750000D03*
D15*
X180225000Y-123675000D03*
X180725000Y-123675000D03*
X181225000Y-123675000D03*
X181725000Y-123675000D03*
X182225000Y-123675000D03*
X182725000Y-123675000D03*
X183225000Y-123675000D03*
X183725000Y-123675000D03*
X184225000Y-123675000D03*
X184725000Y-123675000D03*
X185225000Y-123675000D03*
X185725000Y-123675000D03*
X186225000Y-123675000D03*
X186725000Y-123675000D03*
X187225000Y-123675000D03*
X187725000Y-123675000D03*
D14*
X189650000Y-121750000D03*
X189650000Y-121250000D03*
X189650000Y-120750000D03*
X189650000Y-120250000D03*
X189650000Y-119750000D03*
X189650000Y-119250000D03*
X189650000Y-118750000D03*
X189650000Y-118250000D03*
X189650000Y-117750000D03*
X189650000Y-117250000D03*
X189650000Y-116750000D03*
X189650000Y-116250000D03*
X189650000Y-115750000D03*
X189650000Y-115250000D03*
X189650000Y-114750000D03*
X189650000Y-114250000D03*
D15*
X187725000Y-112325000D03*
X187225000Y-112325000D03*
X186725000Y-112325000D03*
X186225000Y-112325000D03*
X185725000Y-112325000D03*
X185225000Y-112325000D03*
X184725000Y-112325000D03*
X184225000Y-112325000D03*
X183725000Y-112325000D03*
X183225000Y-112325000D03*
X182725000Y-112325000D03*
X182225000Y-112325000D03*
X181725000Y-112325000D03*
X181225000Y-112325000D03*
X180725000Y-112325000D03*
X180225000Y-112325000D03*
%TD*%
D16*
%TO.C,C2*%
X191850000Y-112850000D03*
X191850000Y-114750000D03*
%TD*%
D17*
%TO.C,C27*%
X160575000Y-123500000D03*
X162125000Y-123500000D03*
%TD*%
%TO.C,C11*%
X97825000Y-108600000D03*
X99375000Y-108600000D03*
%TD*%
D18*
%TO.C,R23*%
X116600000Y-113625000D03*
X116600000Y-111975000D03*
%TD*%
D19*
%TO.C,R7*%
X134837500Y-130500000D03*
X137762500Y-130500000D03*
%TD*%
D20*
%TO.C,U6*%
X165750000Y-78987500D03*
X166700000Y-78987500D03*
X167650000Y-78987500D03*
X167650000Y-76712500D03*
X165750000Y-76712500D03*
%TD*%
D21*
%TO.C,SW4*%
X109975000Y-107920000D03*
X118975000Y-107920000D03*
D22*
X111975000Y-109920000D03*
D23*
X114475000Y-109920000D03*
X116975000Y-109920000D03*
%TD*%
D24*
%TO.C,L1*%
X174350000Y-123900000D03*
X174350000Y-126700000D03*
%TD*%
D18*
%TO.C,R22*%
X111950000Y-113675000D03*
X111950000Y-112025000D03*
%TD*%
D25*
%TO.C,R30*%
X158675000Y-123500000D03*
X157025000Y-123500000D03*
%TD*%
D19*
%TO.C,R14*%
X165512500Y-92080000D03*
X168437500Y-92080000D03*
%TD*%
D26*
%TO.C,FB1*%
X103350000Y-101050000D03*
X98250000Y-101050000D03*
%TD*%
D27*
%TO.C,C17*%
X137050000Y-90250000D03*
X138950000Y-90250000D03*
%TD*%
D28*
%TO.C,U1*%
X121030000Y-128050000D03*
X123570000Y-128050000D03*
X123570000Y-122550000D03*
X121030000Y-122550000D03*
%TD*%
D29*
%TO.C,C13*%
X169550000Y-76725000D03*
X169550000Y-78275000D03*
%TD*%
D30*
%TO.C,R6*%
X135050000Y-116987500D03*
X135050000Y-119912500D03*
%TD*%
D31*
%TO.C,R27*%
X99425000Y-112900000D03*
X101075000Y-112900000D03*
%TD*%
D32*
%TO.C,R15*%
X177612500Y-102250000D03*
X175787500Y-102250000D03*
%TD*%
D33*
%TO.C,C14*%
X178150000Y-86000000D03*
X178150000Y-84100000D03*
%TD*%
D29*
%TO.C,C24*%
X116600000Y-115425000D03*
X116600000Y-116975000D03*
%TD*%
D18*
%TO.C,R19*%
X110200000Y-113675000D03*
X110200000Y-112025000D03*
%TD*%
D34*
%TO.C,JP1*%
X172200000Y-114850000D03*
X172200000Y-116150000D03*
%TD*%
D35*
%TO.C,R3*%
X121050000Y-118762500D03*
X121050000Y-116937500D03*
%TD*%
D17*
%TO.C,C28*%
X160575000Y-121000000D03*
X162125000Y-121000000D03*
%TD*%
D36*
%TO.C,D1*%
X130790000Y-112200000D03*
D37*
X128631000Y-112200000D03*
X126472000Y-112200000D03*
X124313000Y-112200000D03*
%TD*%
D38*
%TO.C,R8*%
X89650000Y-103575000D03*
X89650000Y-105225000D03*
%TD*%
D27*
%TO.C,C5*%
X178850000Y-110050000D03*
X180750000Y-110050000D03*
%TD*%
D17*
%TO.C,C19*%
X142975000Y-92550000D03*
X144525000Y-92550000D03*
%TD*%
D31*
%TO.C,R21*%
X99175000Y-88900000D03*
X100825000Y-88900000D03*
%TD*%
D25*
%TO.C,R20*%
X119825000Y-89000000D03*
X118175000Y-89000000D03*
%TD*%
D39*
%TO.C,C20*%
X193225000Y-108250000D03*
X190275000Y-108250000D03*
%TD*%
D19*
%TO.C,R5*%
X127837500Y-130550000D03*
X130762500Y-130550000D03*
%TD*%
D16*
%TO.C,C1*%
X176050000Y-114250000D03*
X176050000Y-116150000D03*
%TD*%
D40*
%TO.C,C12*%
X87150000Y-110350000D03*
X85250000Y-110350000D03*
%TD*%
D23*
%TO.C,SW2*%
X113975000Y-83920000D03*
X113975000Y-89000000D03*
X113975000Y-94080000D03*
%TD*%
D41*
%TO.C,C7*%
X172200000Y-121275000D03*
X172200000Y-119725000D03*
%TD*%
D23*
%TO.C,SW5*%
X132135000Y-100920000D03*
X127055000Y-100920000D03*
X121975000Y-100920000D03*
%TD*%
D18*
%TO.C,R9*%
X89650000Y-98375000D03*
X89650000Y-96725000D03*
%TD*%
D42*
%TO.C,L2*%
X180475000Y-88300000D03*
X182225000Y-88300000D03*
%TD*%
D41*
%TO.C,C26*%
X97800000Y-112925000D03*
X97800000Y-111375000D03*
%TD*%
D43*
%TO.C,C25*%
X123475000Y-106300000D03*
X121925000Y-106300000D03*
%TD*%
D27*
%TO.C,C16*%
X137050000Y-92450000D03*
X138950000Y-92450000D03*
%TD*%
D33*
%TO.C,C8*%
X174350000Y-121650000D03*
X174350000Y-119750000D03*
%TD*%
D44*
%TO.C,SW7*%
X151975000Y-125500000D03*
X151975000Y-116500000D03*
D22*
X153975000Y-123500000D03*
D23*
X153975000Y-121000000D03*
X153975000Y-118500000D03*
%TD*%
D45*
%TO.C,U8*%
X172150000Y-92080000D03*
X172150000Y-94620000D03*
X177650000Y-94620000D03*
X177650000Y-92080000D03*
%TD*%
D19*
%TO.C,R2*%
X120937500Y-130600000D03*
X123862500Y-130600000D03*
%TD*%
D10*
%TO.C,R4*%
X126450000Y-116937500D03*
X126450000Y-118762500D03*
%TD*%
D35*
%TO.C,R13*%
X180300000Y-81312500D03*
X180300000Y-79487500D03*
%TD*%
D46*
%TO.C,J2*%
X84740000Y-98030000D03*
X84740000Y-103810000D03*
D47*
X86185000Y-97670000D03*
X86185000Y-98470000D03*
D48*
X86185000Y-99670000D03*
X86185000Y-100670000D03*
X86185000Y-101170000D03*
X86185000Y-102170000D03*
D47*
X86185000Y-103370000D03*
X86185000Y-104170000D03*
X86185000Y-104170000D03*
X86185000Y-103370000D03*
D48*
X86185000Y-102670000D03*
X86185000Y-101670000D03*
X86185000Y-100170000D03*
X86185000Y-99170000D03*
D47*
X86185000Y-98470000D03*
X86185000Y-97670000D03*
D49*
X85270000Y-96600000D03*
D50*
X81090000Y-96600000D03*
D49*
X85270000Y-105240000D03*
D50*
X81090000Y-105240000D03*
%TD*%
D51*
%TO.C,J3*%
X154975000Y-83000000D03*
D52*
X154975000Y-85500000D03*
%TD*%
D18*
%TO.C,R26*%
X127100000Y-106325000D03*
X127100000Y-104675000D03*
%TD*%
D36*
%TO.C,D2*%
X172275000Y-99725000D03*
D37*
X172275000Y-102265000D03*
%TD*%
D41*
%TO.C,C15*%
X182100000Y-81025000D03*
X182100000Y-79475000D03*
%TD*%
D25*
%TO.C,R31*%
X158675000Y-121000000D03*
X157025000Y-121000000D03*
%TD*%
D38*
%TO.C,R16*%
X118150000Y-83275000D03*
X118150000Y-84925000D03*
%TD*%
D29*
%TO.C,C23*%
X111950000Y-115475000D03*
X111950000Y-117025000D03*
%TD*%
D18*
%TO.C,R18*%
X118350000Y-113625000D03*
X118350000Y-111975000D03*
%TD*%
D32*
%TO.C,R12*%
X182112500Y-83400000D03*
X180287500Y-83400000D03*
%TD*%
D38*
%TO.C,R17*%
X100850000Y-83125000D03*
X100850000Y-84775000D03*
%TD*%
D23*
%TO.C,U9*%
X154975000Y-94625000D03*
X152975000Y-94625000D03*
X150975000Y-94625000D03*
X148975000Y-94625000D03*
X146975000Y-94625000D03*
X144975000Y-94625000D03*
X142975000Y-94625000D03*
X140975000Y-94625000D03*
X138975000Y-94625000D03*
X137000000Y-94625000D03*
X137975000Y-107375000D03*
X139975000Y-107375000D03*
X141975000Y-107375000D03*
X143975000Y-107375000D03*
X145975000Y-107375000D03*
X147975000Y-107375000D03*
X149975000Y-107375000D03*
X151975000Y-107375000D03*
X153975000Y-107375000D03*
X155975000Y-107375000D03*
%TD*%
D31*
%TO.C,R29*%
X147425000Y-123500000D03*
X149075000Y-123500000D03*
%TD*%
D53*
%TO.C,U7*%
X180560000Y-85000000D03*
X180560000Y-85500000D03*
X180560000Y-86000000D03*
X182040000Y-86000000D03*
X182040000Y-85500000D03*
X182040000Y-85000000D03*
%TD*%
D29*
%TO.C,C22*%
X99150000Y-92475000D03*
X99150000Y-94025000D03*
%TD*%
%TO.C,C21*%
X119850000Y-92525000D03*
X119850000Y-94075000D03*
%TD*%
D23*
%TO.C,SW3*%
X104975000Y-83840000D03*
X104975000Y-88920000D03*
X104975000Y-94000000D03*
%TD*%
D28*
%TO.C,U4*%
X135030000Y-128050000D03*
X137570000Y-128050000D03*
X137570000Y-122550000D03*
X135030000Y-122550000D03*
%TD*%
D27*
%TO.C,C10*%
X97800000Y-105700000D03*
X99700000Y-105700000D03*
%TD*%
D25*
%TO.C,R25*%
X106625000Y-120400000D03*
X104975000Y-120400000D03*
%TD*%
D41*
%TO.C,C9*%
X92650000Y-105175000D03*
X92650000Y-103625000D03*
%TD*%
D17*
%TO.C,C6*%
X179075000Y-128100000D03*
X180625000Y-128100000D03*
%TD*%
D18*
%TO.C,R24*%
X132150000Y-106325000D03*
X132150000Y-104675000D03*
%TD*%
D40*
%TO.C,C3*%
X189150000Y-125950000D03*
X187250000Y-125950000D03*
%TD*%
D54*
%TO.C,F1*%
X102365000Y-97000000D03*
X103335000Y-97000000D03*
%TD*%
D23*
%TO.C,SW6*%
X104975000Y-118000000D03*
X104975000Y-112920000D03*
X104975000Y-107840000D03*
%TD*%
D10*
%TO.C,R1*%
X172200000Y-110587500D03*
X172200000Y-112412500D03*
%TD*%
D55*
%TO.C,R10*%
X88175000Y-107850000D03*
X85250000Y-107850000D03*
%TD*%
D56*
%TO.C,J1*%
X138975000Y-85300000D03*
D57*
X136475000Y-85300000D03*
X133975000Y-85300000D03*
X131475000Y-85300000D03*
X128975000Y-85300000D03*
%TD*%
D28*
%TO.C,U3*%
X128030000Y-128050000D03*
X130570000Y-128050000D03*
X130570000Y-122550000D03*
X128030000Y-122550000D03*
%TD*%
D31*
%TO.C,R28*%
X147425000Y-121000000D03*
X149075000Y-121000000D03*
%TD*%
D27*
%TO.C,C18*%
X141950000Y-110750000D03*
X143850000Y-110750000D03*
%TD*%
D40*
%TO.C,C4*%
X182550000Y-125950000D03*
X180650000Y-125950000D03*
%TD*%
D58*
%TO.C,SW1*%
X159900000Y-85550000D03*
D59*
X167520000Y-85550000D03*
%TD*%
M02*
