%TF.GenerationSoftware,KiCad,Pcbnew,7.0.8*%
%TF.CreationDate,2024-01-02T21:28:18+01:00*%
%TF.ProjectId,Computer Mouse,436f6d70-7574-4657-9220-4d6f7573652e,rev?*%
%TF.SameCoordinates,Original*%
%TF.FileFunction,Legend,Top*%
%TF.FilePolarity,Positive*%
%FSLAX46Y46*%
G04 Gerber Fmt 4.6, Leading zero omitted, Abs format (unit mm)*
G04 Created by KiCad (PCBNEW 7.0.8) date 2024-01-02 21:28:18*
%MOMM*%
%LPD*%
G01*
G04 APERTURE LIST*
%ADD10C,0.150000*%
%ADD11C,0.100000*%
%ADD12C,0.120000*%
G04 APERTURE END LIST*
D10*
X161354819Y-78292857D02*
X160878628Y-78626190D01*
X161354819Y-78864285D02*
X160354819Y-78864285D01*
X160354819Y-78864285D02*
X160354819Y-78483333D01*
X160354819Y-78483333D02*
X160402438Y-78388095D01*
X160402438Y-78388095D02*
X160450057Y-78340476D01*
X160450057Y-78340476D02*
X160545295Y-78292857D01*
X160545295Y-78292857D02*
X160688152Y-78292857D01*
X160688152Y-78292857D02*
X160783390Y-78340476D01*
X160783390Y-78340476D02*
X160831009Y-78388095D01*
X160831009Y-78388095D02*
X160878628Y-78483333D01*
X160878628Y-78483333D02*
X160878628Y-78864285D01*
X161354819Y-77340476D02*
X161354819Y-77911904D01*
X161354819Y-77626190D02*
X160354819Y-77626190D01*
X160354819Y-77626190D02*
X160497676Y-77721428D01*
X160497676Y-77721428D02*
X160592914Y-77816666D01*
X160592914Y-77816666D02*
X160640533Y-77911904D01*
X161354819Y-76388095D02*
X161354819Y-76959523D01*
X161354819Y-76673809D02*
X160354819Y-76673809D01*
X160354819Y-76673809D02*
X160497676Y-76769047D01*
X160497676Y-76769047D02*
X160592914Y-76864285D01*
X160592914Y-76864285D02*
X160640533Y-76959523D01*
X91738095Y-98004819D02*
X91738095Y-98814342D01*
X91738095Y-98814342D02*
X91785714Y-98909580D01*
X91785714Y-98909580D02*
X91833333Y-98957200D01*
X91833333Y-98957200D02*
X91928571Y-99004819D01*
X91928571Y-99004819D02*
X92119047Y-99004819D01*
X92119047Y-99004819D02*
X92214285Y-98957200D01*
X92214285Y-98957200D02*
X92261904Y-98909580D01*
X92261904Y-98909580D02*
X92309523Y-98814342D01*
X92309523Y-98814342D02*
X92309523Y-98004819D01*
X93261904Y-98004819D02*
X92785714Y-98004819D01*
X92785714Y-98004819D02*
X92738095Y-98481009D01*
X92738095Y-98481009D02*
X92785714Y-98433390D01*
X92785714Y-98433390D02*
X92880952Y-98385771D01*
X92880952Y-98385771D02*
X93119047Y-98385771D01*
X93119047Y-98385771D02*
X93214285Y-98433390D01*
X93214285Y-98433390D02*
X93261904Y-98481009D01*
X93261904Y-98481009D02*
X93309523Y-98576247D01*
X93309523Y-98576247D02*
X93309523Y-98814342D01*
X93309523Y-98814342D02*
X93261904Y-98909580D01*
X93261904Y-98909580D02*
X93214285Y-98957200D01*
X93214285Y-98957200D02*
X93119047Y-99004819D01*
X93119047Y-99004819D02*
X92880952Y-99004819D01*
X92880952Y-99004819D02*
X92785714Y-98957200D01*
X92785714Y-98957200D02*
X92738095Y-98909580D01*
X186554819Y-97488094D02*
X187364342Y-97488094D01*
X187364342Y-97488094D02*
X187459580Y-97440475D01*
X187459580Y-97440475D02*
X187507200Y-97392856D01*
X187507200Y-97392856D02*
X187554819Y-97297618D01*
X187554819Y-97297618D02*
X187554819Y-97107142D01*
X187554819Y-97107142D02*
X187507200Y-97011904D01*
X187507200Y-97011904D02*
X187459580Y-96964285D01*
X187459580Y-96964285D02*
X187364342Y-96916666D01*
X187364342Y-96916666D02*
X186554819Y-96916666D01*
X187554819Y-95916666D02*
X187554819Y-96488094D01*
X187554819Y-96202380D02*
X186554819Y-96202380D01*
X186554819Y-96202380D02*
X186697676Y-96297618D01*
X186697676Y-96297618D02*
X186792914Y-96392856D01*
X186792914Y-96392856D02*
X186840533Y-96488094D01*
X186554819Y-95297618D02*
X186554819Y-95202380D01*
X186554819Y-95202380D02*
X186602438Y-95107142D01*
X186602438Y-95107142D02*
X186650057Y-95059523D01*
X186650057Y-95059523D02*
X186745295Y-95011904D01*
X186745295Y-95011904D02*
X186935771Y-94964285D01*
X186935771Y-94964285D02*
X187173866Y-94964285D01*
X187173866Y-94964285D02*
X187364342Y-95011904D01*
X187364342Y-95011904D02*
X187459580Y-95059523D01*
X187459580Y-95059523D02*
X187507200Y-95107142D01*
X187507200Y-95107142D02*
X187554819Y-95202380D01*
X187554819Y-95202380D02*
X187554819Y-95297618D01*
X187554819Y-95297618D02*
X187507200Y-95392856D01*
X187507200Y-95392856D02*
X187459580Y-95440475D01*
X187459580Y-95440475D02*
X187364342Y-95488094D01*
X187364342Y-95488094D02*
X187173866Y-95535713D01*
X187173866Y-95535713D02*
X186935771Y-95535713D01*
X186935771Y-95535713D02*
X186745295Y-95488094D01*
X186745295Y-95488094D02*
X186650057Y-95440475D01*
X186650057Y-95440475D02*
X186602438Y-95392856D01*
X186602438Y-95392856D02*
X186554819Y-95297618D01*
X177638095Y-111504819D02*
X177638095Y-112314342D01*
X177638095Y-112314342D02*
X177685714Y-112409580D01*
X177685714Y-112409580D02*
X177733333Y-112457200D01*
X177733333Y-112457200D02*
X177828571Y-112504819D01*
X177828571Y-112504819D02*
X178019047Y-112504819D01*
X178019047Y-112504819D02*
X178114285Y-112457200D01*
X178114285Y-112457200D02*
X178161904Y-112409580D01*
X178161904Y-112409580D02*
X178209523Y-112314342D01*
X178209523Y-112314342D02*
X178209523Y-111504819D01*
X178638095Y-111600057D02*
X178685714Y-111552438D01*
X178685714Y-111552438D02*
X178780952Y-111504819D01*
X178780952Y-111504819D02*
X179019047Y-111504819D01*
X179019047Y-111504819D02*
X179114285Y-111552438D01*
X179114285Y-111552438D02*
X179161904Y-111600057D01*
X179161904Y-111600057D02*
X179209523Y-111695295D01*
X179209523Y-111695295D02*
X179209523Y-111790533D01*
X179209523Y-111790533D02*
X179161904Y-111933390D01*
X179161904Y-111933390D02*
X178590476Y-112504819D01*
X178590476Y-112504819D02*
X179209523Y-112504819D01*
X190559580Y-113066666D02*
X190607200Y-113114285D01*
X190607200Y-113114285D02*
X190654819Y-113257142D01*
X190654819Y-113257142D02*
X190654819Y-113352380D01*
X190654819Y-113352380D02*
X190607200Y-113495237D01*
X190607200Y-113495237D02*
X190511961Y-113590475D01*
X190511961Y-113590475D02*
X190416723Y-113638094D01*
X190416723Y-113638094D02*
X190226247Y-113685713D01*
X190226247Y-113685713D02*
X190083390Y-113685713D01*
X190083390Y-113685713D02*
X189892914Y-113638094D01*
X189892914Y-113638094D02*
X189797676Y-113590475D01*
X189797676Y-113590475D02*
X189702438Y-113495237D01*
X189702438Y-113495237D02*
X189654819Y-113352380D01*
X189654819Y-113352380D02*
X189654819Y-113257142D01*
X189654819Y-113257142D02*
X189702438Y-113114285D01*
X189702438Y-113114285D02*
X189750057Y-113066666D01*
X189750057Y-112685713D02*
X189702438Y-112638094D01*
X189702438Y-112638094D02*
X189654819Y-112542856D01*
X189654819Y-112542856D02*
X189654819Y-112304761D01*
X189654819Y-112304761D02*
X189702438Y-112209523D01*
X189702438Y-112209523D02*
X189750057Y-112161904D01*
X189750057Y-112161904D02*
X189845295Y-112114285D01*
X189845295Y-112114285D02*
X189940533Y-112114285D01*
X189940533Y-112114285D02*
X190083390Y-112161904D01*
X190083390Y-112161904D02*
X190654819Y-112733332D01*
X190654819Y-112733332D02*
X190654819Y-112114285D01*
X163657142Y-123859580D02*
X163609523Y-123907200D01*
X163609523Y-123907200D02*
X163466666Y-123954819D01*
X163466666Y-123954819D02*
X163371428Y-123954819D01*
X163371428Y-123954819D02*
X163228571Y-123907200D01*
X163228571Y-123907200D02*
X163133333Y-123811961D01*
X163133333Y-123811961D02*
X163085714Y-123716723D01*
X163085714Y-123716723D02*
X163038095Y-123526247D01*
X163038095Y-123526247D02*
X163038095Y-123383390D01*
X163038095Y-123383390D02*
X163085714Y-123192914D01*
X163085714Y-123192914D02*
X163133333Y-123097676D01*
X163133333Y-123097676D02*
X163228571Y-123002438D01*
X163228571Y-123002438D02*
X163371428Y-122954819D01*
X163371428Y-122954819D02*
X163466666Y-122954819D01*
X163466666Y-122954819D02*
X163609523Y-123002438D01*
X163609523Y-123002438D02*
X163657142Y-123050057D01*
X164038095Y-123050057D02*
X164085714Y-123002438D01*
X164085714Y-123002438D02*
X164180952Y-122954819D01*
X164180952Y-122954819D02*
X164419047Y-122954819D01*
X164419047Y-122954819D02*
X164514285Y-123002438D01*
X164514285Y-123002438D02*
X164561904Y-123050057D01*
X164561904Y-123050057D02*
X164609523Y-123145295D01*
X164609523Y-123145295D02*
X164609523Y-123240533D01*
X164609523Y-123240533D02*
X164561904Y-123383390D01*
X164561904Y-123383390D02*
X163990476Y-123954819D01*
X163990476Y-123954819D02*
X164609523Y-123954819D01*
X164942857Y-122954819D02*
X165609523Y-122954819D01*
X165609523Y-122954819D02*
X165180952Y-123954819D01*
X99557142Y-110459580D02*
X99509523Y-110507200D01*
X99509523Y-110507200D02*
X99366666Y-110554819D01*
X99366666Y-110554819D02*
X99271428Y-110554819D01*
X99271428Y-110554819D02*
X99128571Y-110507200D01*
X99128571Y-110507200D02*
X99033333Y-110411961D01*
X99033333Y-110411961D02*
X98985714Y-110316723D01*
X98985714Y-110316723D02*
X98938095Y-110126247D01*
X98938095Y-110126247D02*
X98938095Y-109983390D01*
X98938095Y-109983390D02*
X98985714Y-109792914D01*
X98985714Y-109792914D02*
X99033333Y-109697676D01*
X99033333Y-109697676D02*
X99128571Y-109602438D01*
X99128571Y-109602438D02*
X99271428Y-109554819D01*
X99271428Y-109554819D02*
X99366666Y-109554819D01*
X99366666Y-109554819D02*
X99509523Y-109602438D01*
X99509523Y-109602438D02*
X99557142Y-109650057D01*
X100509523Y-110554819D02*
X99938095Y-110554819D01*
X100223809Y-110554819D02*
X100223809Y-109554819D01*
X100223809Y-109554819D02*
X100128571Y-109697676D01*
X100128571Y-109697676D02*
X100033333Y-109792914D01*
X100033333Y-109792914D02*
X99938095Y-109840533D01*
X101461904Y-110554819D02*
X100890476Y-110554819D01*
X101176190Y-110554819D02*
X101176190Y-109554819D01*
X101176190Y-109554819D02*
X101080952Y-109697676D01*
X101080952Y-109697676D02*
X100985714Y-109792914D01*
X100985714Y-109792914D02*
X100890476Y-109840533D01*
X115454819Y-113542857D02*
X114978628Y-113876190D01*
X115454819Y-114114285D02*
X114454819Y-114114285D01*
X114454819Y-114114285D02*
X114454819Y-113733333D01*
X114454819Y-113733333D02*
X114502438Y-113638095D01*
X114502438Y-113638095D02*
X114550057Y-113590476D01*
X114550057Y-113590476D02*
X114645295Y-113542857D01*
X114645295Y-113542857D02*
X114788152Y-113542857D01*
X114788152Y-113542857D02*
X114883390Y-113590476D01*
X114883390Y-113590476D02*
X114931009Y-113638095D01*
X114931009Y-113638095D02*
X114978628Y-113733333D01*
X114978628Y-113733333D02*
X114978628Y-114114285D01*
X114550057Y-113161904D02*
X114502438Y-113114285D01*
X114502438Y-113114285D02*
X114454819Y-113019047D01*
X114454819Y-113019047D02*
X114454819Y-112780952D01*
X114454819Y-112780952D02*
X114502438Y-112685714D01*
X114502438Y-112685714D02*
X114550057Y-112638095D01*
X114550057Y-112638095D02*
X114645295Y-112590476D01*
X114645295Y-112590476D02*
X114740533Y-112590476D01*
X114740533Y-112590476D02*
X114883390Y-112638095D01*
X114883390Y-112638095D02*
X115454819Y-113209523D01*
X115454819Y-113209523D02*
X115454819Y-112590476D01*
X114454819Y-112257142D02*
X114454819Y-111638095D01*
X114454819Y-111638095D02*
X114835771Y-111971428D01*
X114835771Y-111971428D02*
X114835771Y-111828571D01*
X114835771Y-111828571D02*
X114883390Y-111733333D01*
X114883390Y-111733333D02*
X114931009Y-111685714D01*
X114931009Y-111685714D02*
X115026247Y-111638095D01*
X115026247Y-111638095D02*
X115264342Y-111638095D01*
X115264342Y-111638095D02*
X115359580Y-111685714D01*
X115359580Y-111685714D02*
X115407200Y-111733333D01*
X115407200Y-111733333D02*
X115454819Y-111828571D01*
X115454819Y-111828571D02*
X115454819Y-112114285D01*
X115454819Y-112114285D02*
X115407200Y-112209523D01*
X115407200Y-112209523D02*
X115359580Y-112257142D01*
X139733333Y-130054819D02*
X139400000Y-129578628D01*
X139161905Y-130054819D02*
X139161905Y-129054819D01*
X139161905Y-129054819D02*
X139542857Y-129054819D01*
X139542857Y-129054819D02*
X139638095Y-129102438D01*
X139638095Y-129102438D02*
X139685714Y-129150057D01*
X139685714Y-129150057D02*
X139733333Y-129245295D01*
X139733333Y-129245295D02*
X139733333Y-129388152D01*
X139733333Y-129388152D02*
X139685714Y-129483390D01*
X139685714Y-129483390D02*
X139638095Y-129531009D01*
X139638095Y-129531009D02*
X139542857Y-129578628D01*
X139542857Y-129578628D02*
X139161905Y-129578628D01*
X140066667Y-129054819D02*
X140733333Y-129054819D01*
X140733333Y-129054819D02*
X140304762Y-130054819D01*
X166154819Y-75611904D02*
X166964342Y-75611904D01*
X166964342Y-75611904D02*
X167059580Y-75564285D01*
X167059580Y-75564285D02*
X167107200Y-75516666D01*
X167107200Y-75516666D02*
X167154819Y-75421428D01*
X167154819Y-75421428D02*
X167154819Y-75230952D01*
X167154819Y-75230952D02*
X167107200Y-75135714D01*
X167107200Y-75135714D02*
X167059580Y-75088095D01*
X167059580Y-75088095D02*
X166964342Y-75040476D01*
X166964342Y-75040476D02*
X166154819Y-75040476D01*
X166154819Y-74135714D02*
X166154819Y-74326190D01*
X166154819Y-74326190D02*
X166202438Y-74421428D01*
X166202438Y-74421428D02*
X166250057Y-74469047D01*
X166250057Y-74469047D02*
X166392914Y-74564285D01*
X166392914Y-74564285D02*
X166583390Y-74611904D01*
X166583390Y-74611904D02*
X166964342Y-74611904D01*
X166964342Y-74611904D02*
X167059580Y-74564285D01*
X167059580Y-74564285D02*
X167107200Y-74516666D01*
X167107200Y-74516666D02*
X167154819Y-74421428D01*
X167154819Y-74421428D02*
X167154819Y-74230952D01*
X167154819Y-74230952D02*
X167107200Y-74135714D01*
X167107200Y-74135714D02*
X167059580Y-74088095D01*
X167059580Y-74088095D02*
X166964342Y-74040476D01*
X166964342Y-74040476D02*
X166726247Y-74040476D01*
X166726247Y-74040476D02*
X166631009Y-74088095D01*
X166631009Y-74088095D02*
X166583390Y-74135714D01*
X166583390Y-74135714D02*
X166535771Y-74230952D01*
X166535771Y-74230952D02*
X166535771Y-74421428D01*
X166535771Y-74421428D02*
X166583390Y-74516666D01*
X166583390Y-74516666D02*
X166631009Y-74564285D01*
X166631009Y-74564285D02*
X166726247Y-74611904D01*
D11*
X120516667Y-110359800D02*
X120659524Y-110407419D01*
X120659524Y-110407419D02*
X120897619Y-110407419D01*
X120897619Y-110407419D02*
X120992857Y-110359800D01*
X120992857Y-110359800D02*
X121040476Y-110312180D01*
X121040476Y-110312180D02*
X121088095Y-110216942D01*
X121088095Y-110216942D02*
X121088095Y-110121704D01*
X121088095Y-110121704D02*
X121040476Y-110026466D01*
X121040476Y-110026466D02*
X120992857Y-109978847D01*
X120992857Y-109978847D02*
X120897619Y-109931228D01*
X120897619Y-109931228D02*
X120707143Y-109883609D01*
X120707143Y-109883609D02*
X120611905Y-109835990D01*
X120611905Y-109835990D02*
X120564286Y-109788371D01*
X120564286Y-109788371D02*
X120516667Y-109693133D01*
X120516667Y-109693133D02*
X120516667Y-109597895D01*
X120516667Y-109597895D02*
X120564286Y-109502657D01*
X120564286Y-109502657D02*
X120611905Y-109455038D01*
X120611905Y-109455038D02*
X120707143Y-109407419D01*
X120707143Y-109407419D02*
X120945238Y-109407419D01*
X120945238Y-109407419D02*
X121088095Y-109455038D01*
X121421429Y-109407419D02*
X121659524Y-110407419D01*
X121659524Y-110407419D02*
X121850000Y-109693133D01*
X121850000Y-109693133D02*
X122040476Y-110407419D01*
X122040476Y-110407419D02*
X122278572Y-109407419D01*
X123088095Y-109740752D02*
X123088095Y-110407419D01*
X122850000Y-109359800D02*
X122611905Y-110074085D01*
X122611905Y-110074085D02*
X123230952Y-110074085D01*
D10*
X172404819Y-125416666D02*
X172404819Y-125892856D01*
X172404819Y-125892856D02*
X171404819Y-125892856D01*
X172404819Y-124559523D02*
X172404819Y-125130951D01*
X172404819Y-124845237D02*
X171404819Y-124845237D01*
X171404819Y-124845237D02*
X171547676Y-124940475D01*
X171547676Y-124940475D02*
X171642914Y-125035713D01*
X171642914Y-125035713D02*
X171690533Y-125130951D01*
X114004819Y-113492857D02*
X113528628Y-113826190D01*
X114004819Y-114064285D02*
X113004819Y-114064285D01*
X113004819Y-114064285D02*
X113004819Y-113683333D01*
X113004819Y-113683333D02*
X113052438Y-113588095D01*
X113052438Y-113588095D02*
X113100057Y-113540476D01*
X113100057Y-113540476D02*
X113195295Y-113492857D01*
X113195295Y-113492857D02*
X113338152Y-113492857D01*
X113338152Y-113492857D02*
X113433390Y-113540476D01*
X113433390Y-113540476D02*
X113481009Y-113588095D01*
X113481009Y-113588095D02*
X113528628Y-113683333D01*
X113528628Y-113683333D02*
X113528628Y-114064285D01*
X113100057Y-113111904D02*
X113052438Y-113064285D01*
X113052438Y-113064285D02*
X113004819Y-112969047D01*
X113004819Y-112969047D02*
X113004819Y-112730952D01*
X113004819Y-112730952D02*
X113052438Y-112635714D01*
X113052438Y-112635714D02*
X113100057Y-112588095D01*
X113100057Y-112588095D02*
X113195295Y-112540476D01*
X113195295Y-112540476D02*
X113290533Y-112540476D01*
X113290533Y-112540476D02*
X113433390Y-112588095D01*
X113433390Y-112588095D02*
X114004819Y-113159523D01*
X114004819Y-113159523D02*
X114004819Y-112540476D01*
X113100057Y-112159523D02*
X113052438Y-112111904D01*
X113052438Y-112111904D02*
X113004819Y-112016666D01*
X113004819Y-112016666D02*
X113004819Y-111778571D01*
X113004819Y-111778571D02*
X113052438Y-111683333D01*
X113052438Y-111683333D02*
X113100057Y-111635714D01*
X113100057Y-111635714D02*
X113195295Y-111588095D01*
X113195295Y-111588095D02*
X113290533Y-111588095D01*
X113290533Y-111588095D02*
X113433390Y-111635714D01*
X113433390Y-111635714D02*
X114004819Y-112207142D01*
X114004819Y-112207142D02*
X114004819Y-111588095D01*
X157207142Y-125384819D02*
X156873809Y-124908628D01*
X156635714Y-125384819D02*
X156635714Y-124384819D01*
X156635714Y-124384819D02*
X157016666Y-124384819D01*
X157016666Y-124384819D02*
X157111904Y-124432438D01*
X157111904Y-124432438D02*
X157159523Y-124480057D01*
X157159523Y-124480057D02*
X157207142Y-124575295D01*
X157207142Y-124575295D02*
X157207142Y-124718152D01*
X157207142Y-124718152D02*
X157159523Y-124813390D01*
X157159523Y-124813390D02*
X157111904Y-124861009D01*
X157111904Y-124861009D02*
X157016666Y-124908628D01*
X157016666Y-124908628D02*
X156635714Y-124908628D01*
X157540476Y-124384819D02*
X158159523Y-124384819D01*
X158159523Y-124384819D02*
X157826190Y-124765771D01*
X157826190Y-124765771D02*
X157969047Y-124765771D01*
X157969047Y-124765771D02*
X158064285Y-124813390D01*
X158064285Y-124813390D02*
X158111904Y-124861009D01*
X158111904Y-124861009D02*
X158159523Y-124956247D01*
X158159523Y-124956247D02*
X158159523Y-125194342D01*
X158159523Y-125194342D02*
X158111904Y-125289580D01*
X158111904Y-125289580D02*
X158064285Y-125337200D01*
X158064285Y-125337200D02*
X157969047Y-125384819D01*
X157969047Y-125384819D02*
X157683333Y-125384819D01*
X157683333Y-125384819D02*
X157588095Y-125337200D01*
X157588095Y-125337200D02*
X157540476Y-125289580D01*
X158778571Y-124384819D02*
X158873809Y-124384819D01*
X158873809Y-124384819D02*
X158969047Y-124432438D01*
X158969047Y-124432438D02*
X159016666Y-124480057D01*
X159016666Y-124480057D02*
X159064285Y-124575295D01*
X159064285Y-124575295D02*
X159111904Y-124765771D01*
X159111904Y-124765771D02*
X159111904Y-125003866D01*
X159111904Y-125003866D02*
X159064285Y-125194342D01*
X159064285Y-125194342D02*
X159016666Y-125289580D01*
X159016666Y-125289580D02*
X158969047Y-125337200D01*
X158969047Y-125337200D02*
X158873809Y-125384819D01*
X158873809Y-125384819D02*
X158778571Y-125384819D01*
X158778571Y-125384819D02*
X158683333Y-125337200D01*
X158683333Y-125337200D02*
X158635714Y-125289580D01*
X158635714Y-125289580D02*
X158588095Y-125194342D01*
X158588095Y-125194342D02*
X158540476Y-125003866D01*
X158540476Y-125003866D02*
X158540476Y-124765771D01*
X158540476Y-124765771D02*
X158588095Y-124575295D01*
X158588095Y-124575295D02*
X158635714Y-124480057D01*
X158635714Y-124480057D02*
X158683333Y-124432438D01*
X158683333Y-124432438D02*
X158778571Y-124384819D01*
X162357142Y-91454819D02*
X162023809Y-90978628D01*
X161785714Y-91454819D02*
X161785714Y-90454819D01*
X161785714Y-90454819D02*
X162166666Y-90454819D01*
X162166666Y-90454819D02*
X162261904Y-90502438D01*
X162261904Y-90502438D02*
X162309523Y-90550057D01*
X162309523Y-90550057D02*
X162357142Y-90645295D01*
X162357142Y-90645295D02*
X162357142Y-90788152D01*
X162357142Y-90788152D02*
X162309523Y-90883390D01*
X162309523Y-90883390D02*
X162261904Y-90931009D01*
X162261904Y-90931009D02*
X162166666Y-90978628D01*
X162166666Y-90978628D02*
X161785714Y-90978628D01*
X163309523Y-91454819D02*
X162738095Y-91454819D01*
X163023809Y-91454819D02*
X163023809Y-90454819D01*
X163023809Y-90454819D02*
X162928571Y-90597676D01*
X162928571Y-90597676D02*
X162833333Y-90692914D01*
X162833333Y-90692914D02*
X162738095Y-90740533D01*
X164166666Y-90788152D02*
X164166666Y-91454819D01*
X163928571Y-90407200D02*
X163690476Y-91121485D01*
X163690476Y-91121485D02*
X164309523Y-91121485D01*
X94866666Y-100131009D02*
X94533333Y-100131009D01*
X94533333Y-100654819D02*
X94533333Y-99654819D01*
X94533333Y-99654819D02*
X95009523Y-99654819D01*
X95723809Y-100131009D02*
X95866666Y-100178628D01*
X95866666Y-100178628D02*
X95914285Y-100226247D01*
X95914285Y-100226247D02*
X95961904Y-100321485D01*
X95961904Y-100321485D02*
X95961904Y-100464342D01*
X95961904Y-100464342D02*
X95914285Y-100559580D01*
X95914285Y-100559580D02*
X95866666Y-100607200D01*
X95866666Y-100607200D02*
X95771428Y-100654819D01*
X95771428Y-100654819D02*
X95390476Y-100654819D01*
X95390476Y-100654819D02*
X95390476Y-99654819D01*
X95390476Y-99654819D02*
X95723809Y-99654819D01*
X95723809Y-99654819D02*
X95819047Y-99702438D01*
X95819047Y-99702438D02*
X95866666Y-99750057D01*
X95866666Y-99750057D02*
X95914285Y-99845295D01*
X95914285Y-99845295D02*
X95914285Y-99940533D01*
X95914285Y-99940533D02*
X95866666Y-100035771D01*
X95866666Y-100035771D02*
X95819047Y-100083390D01*
X95819047Y-100083390D02*
X95723809Y-100131009D01*
X95723809Y-100131009D02*
X95390476Y-100131009D01*
X96914285Y-100654819D02*
X96342857Y-100654819D01*
X96628571Y-100654819D02*
X96628571Y-99654819D01*
X96628571Y-99654819D02*
X96533333Y-99797676D01*
X96533333Y-99797676D02*
X96438095Y-99892914D01*
X96438095Y-99892914D02*
X96342857Y-99940533D01*
X133957142Y-90609580D02*
X133909523Y-90657200D01*
X133909523Y-90657200D02*
X133766666Y-90704819D01*
X133766666Y-90704819D02*
X133671428Y-90704819D01*
X133671428Y-90704819D02*
X133528571Y-90657200D01*
X133528571Y-90657200D02*
X133433333Y-90561961D01*
X133433333Y-90561961D02*
X133385714Y-90466723D01*
X133385714Y-90466723D02*
X133338095Y-90276247D01*
X133338095Y-90276247D02*
X133338095Y-90133390D01*
X133338095Y-90133390D02*
X133385714Y-89942914D01*
X133385714Y-89942914D02*
X133433333Y-89847676D01*
X133433333Y-89847676D02*
X133528571Y-89752438D01*
X133528571Y-89752438D02*
X133671428Y-89704819D01*
X133671428Y-89704819D02*
X133766666Y-89704819D01*
X133766666Y-89704819D02*
X133909523Y-89752438D01*
X133909523Y-89752438D02*
X133957142Y-89800057D01*
X134909523Y-90704819D02*
X134338095Y-90704819D01*
X134623809Y-90704819D02*
X134623809Y-89704819D01*
X134623809Y-89704819D02*
X134528571Y-89847676D01*
X134528571Y-89847676D02*
X134433333Y-89942914D01*
X134433333Y-89942914D02*
X134338095Y-89990533D01*
X135242857Y-89704819D02*
X135909523Y-89704819D01*
X135909523Y-89704819D02*
X135480952Y-90704819D01*
X118754819Y-126061904D02*
X119564342Y-126061904D01*
X119564342Y-126061904D02*
X119659580Y-126014285D01*
X119659580Y-126014285D02*
X119707200Y-125966666D01*
X119707200Y-125966666D02*
X119754819Y-125871428D01*
X119754819Y-125871428D02*
X119754819Y-125680952D01*
X119754819Y-125680952D02*
X119707200Y-125585714D01*
X119707200Y-125585714D02*
X119659580Y-125538095D01*
X119659580Y-125538095D02*
X119564342Y-125490476D01*
X119564342Y-125490476D02*
X118754819Y-125490476D01*
X119754819Y-124490476D02*
X119754819Y-125061904D01*
X119754819Y-124776190D02*
X118754819Y-124776190D01*
X118754819Y-124776190D02*
X118897676Y-124871428D01*
X118897676Y-124871428D02*
X118992914Y-124966666D01*
X118992914Y-124966666D02*
X119040533Y-125061904D01*
X169859580Y-75092857D02*
X169907200Y-75140476D01*
X169907200Y-75140476D02*
X169954819Y-75283333D01*
X169954819Y-75283333D02*
X169954819Y-75378571D01*
X169954819Y-75378571D02*
X169907200Y-75521428D01*
X169907200Y-75521428D02*
X169811961Y-75616666D01*
X169811961Y-75616666D02*
X169716723Y-75664285D01*
X169716723Y-75664285D02*
X169526247Y-75711904D01*
X169526247Y-75711904D02*
X169383390Y-75711904D01*
X169383390Y-75711904D02*
X169192914Y-75664285D01*
X169192914Y-75664285D02*
X169097676Y-75616666D01*
X169097676Y-75616666D02*
X169002438Y-75521428D01*
X169002438Y-75521428D02*
X168954819Y-75378571D01*
X168954819Y-75378571D02*
X168954819Y-75283333D01*
X168954819Y-75283333D02*
X169002438Y-75140476D01*
X169002438Y-75140476D02*
X169050057Y-75092857D01*
X169954819Y-74140476D02*
X169954819Y-74711904D01*
X169954819Y-74426190D02*
X168954819Y-74426190D01*
X168954819Y-74426190D02*
X169097676Y-74521428D01*
X169097676Y-74521428D02*
X169192914Y-74616666D01*
X169192914Y-74616666D02*
X169240533Y-74711904D01*
X168954819Y-73807142D02*
X168954819Y-73188095D01*
X168954819Y-73188095D02*
X169335771Y-73521428D01*
X169335771Y-73521428D02*
X169335771Y-73378571D01*
X169335771Y-73378571D02*
X169383390Y-73283333D01*
X169383390Y-73283333D02*
X169431009Y-73235714D01*
X169431009Y-73235714D02*
X169526247Y-73188095D01*
X169526247Y-73188095D02*
X169764342Y-73188095D01*
X169764342Y-73188095D02*
X169859580Y-73235714D01*
X169859580Y-73235714D02*
X169907200Y-73283333D01*
X169907200Y-73283333D02*
X169954819Y-73378571D01*
X169954819Y-73378571D02*
X169954819Y-73664285D01*
X169954819Y-73664285D02*
X169907200Y-73759523D01*
X169907200Y-73759523D02*
X169859580Y-73807142D01*
X137324819Y-118616666D02*
X136848628Y-118949999D01*
X137324819Y-119188094D02*
X136324819Y-119188094D01*
X136324819Y-119188094D02*
X136324819Y-118807142D01*
X136324819Y-118807142D02*
X136372438Y-118711904D01*
X136372438Y-118711904D02*
X136420057Y-118664285D01*
X136420057Y-118664285D02*
X136515295Y-118616666D01*
X136515295Y-118616666D02*
X136658152Y-118616666D01*
X136658152Y-118616666D02*
X136753390Y-118664285D01*
X136753390Y-118664285D02*
X136801009Y-118711904D01*
X136801009Y-118711904D02*
X136848628Y-118807142D01*
X136848628Y-118807142D02*
X136848628Y-119188094D01*
X136324819Y-117759523D02*
X136324819Y-117949999D01*
X136324819Y-117949999D02*
X136372438Y-118045237D01*
X136372438Y-118045237D02*
X136420057Y-118092856D01*
X136420057Y-118092856D02*
X136562914Y-118188094D01*
X136562914Y-118188094D02*
X136753390Y-118235713D01*
X136753390Y-118235713D02*
X137134342Y-118235713D01*
X137134342Y-118235713D02*
X137229580Y-118188094D01*
X137229580Y-118188094D02*
X137277200Y-118140475D01*
X137277200Y-118140475D02*
X137324819Y-118045237D01*
X137324819Y-118045237D02*
X137324819Y-117854761D01*
X137324819Y-117854761D02*
X137277200Y-117759523D01*
X137277200Y-117759523D02*
X137229580Y-117711904D01*
X137229580Y-117711904D02*
X137134342Y-117664285D01*
X137134342Y-117664285D02*
X136896247Y-117664285D01*
X136896247Y-117664285D02*
X136801009Y-117711904D01*
X136801009Y-117711904D02*
X136753390Y-117759523D01*
X136753390Y-117759523D02*
X136705771Y-117854761D01*
X136705771Y-117854761D02*
X136705771Y-118045237D01*
X136705771Y-118045237D02*
X136753390Y-118140475D01*
X136753390Y-118140475D02*
X136801009Y-118188094D01*
X136801009Y-118188094D02*
X136896247Y-118235713D01*
X99607142Y-115104819D02*
X99273809Y-114628628D01*
X99035714Y-115104819D02*
X99035714Y-114104819D01*
X99035714Y-114104819D02*
X99416666Y-114104819D01*
X99416666Y-114104819D02*
X99511904Y-114152438D01*
X99511904Y-114152438D02*
X99559523Y-114200057D01*
X99559523Y-114200057D02*
X99607142Y-114295295D01*
X99607142Y-114295295D02*
X99607142Y-114438152D01*
X99607142Y-114438152D02*
X99559523Y-114533390D01*
X99559523Y-114533390D02*
X99511904Y-114581009D01*
X99511904Y-114581009D02*
X99416666Y-114628628D01*
X99416666Y-114628628D02*
X99035714Y-114628628D01*
X99988095Y-114200057D02*
X100035714Y-114152438D01*
X100035714Y-114152438D02*
X100130952Y-114104819D01*
X100130952Y-114104819D02*
X100369047Y-114104819D01*
X100369047Y-114104819D02*
X100464285Y-114152438D01*
X100464285Y-114152438D02*
X100511904Y-114200057D01*
X100511904Y-114200057D02*
X100559523Y-114295295D01*
X100559523Y-114295295D02*
X100559523Y-114390533D01*
X100559523Y-114390533D02*
X100511904Y-114533390D01*
X100511904Y-114533390D02*
X99940476Y-115104819D01*
X99940476Y-115104819D02*
X100559523Y-115104819D01*
X100892857Y-114104819D02*
X101559523Y-114104819D01*
X101559523Y-114104819D02*
X101130952Y-115104819D01*
X176177142Y-105204819D02*
X175843809Y-104728628D01*
X175605714Y-105204819D02*
X175605714Y-104204819D01*
X175605714Y-104204819D02*
X175986666Y-104204819D01*
X175986666Y-104204819D02*
X176081904Y-104252438D01*
X176081904Y-104252438D02*
X176129523Y-104300057D01*
X176129523Y-104300057D02*
X176177142Y-104395295D01*
X176177142Y-104395295D02*
X176177142Y-104538152D01*
X176177142Y-104538152D02*
X176129523Y-104633390D01*
X176129523Y-104633390D02*
X176081904Y-104681009D01*
X176081904Y-104681009D02*
X175986666Y-104728628D01*
X175986666Y-104728628D02*
X175605714Y-104728628D01*
X177129523Y-105204819D02*
X176558095Y-105204819D01*
X176843809Y-105204819D02*
X176843809Y-104204819D01*
X176843809Y-104204819D02*
X176748571Y-104347676D01*
X176748571Y-104347676D02*
X176653333Y-104442914D01*
X176653333Y-104442914D02*
X176558095Y-104490533D01*
X178034285Y-104204819D02*
X177558095Y-104204819D01*
X177558095Y-104204819D02*
X177510476Y-104681009D01*
X177510476Y-104681009D02*
X177558095Y-104633390D01*
X177558095Y-104633390D02*
X177653333Y-104585771D01*
X177653333Y-104585771D02*
X177891428Y-104585771D01*
X177891428Y-104585771D02*
X177986666Y-104633390D01*
X177986666Y-104633390D02*
X178034285Y-104681009D01*
X178034285Y-104681009D02*
X178081904Y-104776247D01*
X178081904Y-104776247D02*
X178081904Y-105014342D01*
X178081904Y-105014342D02*
X178034285Y-105109580D01*
X178034285Y-105109580D02*
X177986666Y-105157200D01*
X177986666Y-105157200D02*
X177891428Y-105204819D01*
X177891428Y-105204819D02*
X177653333Y-105204819D01*
X177653333Y-105204819D02*
X177558095Y-105157200D01*
X177558095Y-105157200D02*
X177510476Y-105109580D01*
X176609580Y-82292857D02*
X176657200Y-82340476D01*
X176657200Y-82340476D02*
X176704819Y-82483333D01*
X176704819Y-82483333D02*
X176704819Y-82578571D01*
X176704819Y-82578571D02*
X176657200Y-82721428D01*
X176657200Y-82721428D02*
X176561961Y-82816666D01*
X176561961Y-82816666D02*
X176466723Y-82864285D01*
X176466723Y-82864285D02*
X176276247Y-82911904D01*
X176276247Y-82911904D02*
X176133390Y-82911904D01*
X176133390Y-82911904D02*
X175942914Y-82864285D01*
X175942914Y-82864285D02*
X175847676Y-82816666D01*
X175847676Y-82816666D02*
X175752438Y-82721428D01*
X175752438Y-82721428D02*
X175704819Y-82578571D01*
X175704819Y-82578571D02*
X175704819Y-82483333D01*
X175704819Y-82483333D02*
X175752438Y-82340476D01*
X175752438Y-82340476D02*
X175800057Y-82292857D01*
X176704819Y-81340476D02*
X176704819Y-81911904D01*
X176704819Y-81626190D02*
X175704819Y-81626190D01*
X175704819Y-81626190D02*
X175847676Y-81721428D01*
X175847676Y-81721428D02*
X175942914Y-81816666D01*
X175942914Y-81816666D02*
X175990533Y-81911904D01*
X176038152Y-80483333D02*
X176704819Y-80483333D01*
X175657200Y-80721428D02*
X176371485Y-80959523D01*
X176371485Y-80959523D02*
X176371485Y-80340476D01*
X116909580Y-119942857D02*
X116957200Y-119990476D01*
X116957200Y-119990476D02*
X117004819Y-120133333D01*
X117004819Y-120133333D02*
X117004819Y-120228571D01*
X117004819Y-120228571D02*
X116957200Y-120371428D01*
X116957200Y-120371428D02*
X116861961Y-120466666D01*
X116861961Y-120466666D02*
X116766723Y-120514285D01*
X116766723Y-120514285D02*
X116576247Y-120561904D01*
X116576247Y-120561904D02*
X116433390Y-120561904D01*
X116433390Y-120561904D02*
X116242914Y-120514285D01*
X116242914Y-120514285D02*
X116147676Y-120466666D01*
X116147676Y-120466666D02*
X116052438Y-120371428D01*
X116052438Y-120371428D02*
X116004819Y-120228571D01*
X116004819Y-120228571D02*
X116004819Y-120133333D01*
X116004819Y-120133333D02*
X116052438Y-119990476D01*
X116052438Y-119990476D02*
X116100057Y-119942857D01*
X116100057Y-119561904D02*
X116052438Y-119514285D01*
X116052438Y-119514285D02*
X116004819Y-119419047D01*
X116004819Y-119419047D02*
X116004819Y-119180952D01*
X116004819Y-119180952D02*
X116052438Y-119085714D01*
X116052438Y-119085714D02*
X116100057Y-119038095D01*
X116100057Y-119038095D02*
X116195295Y-118990476D01*
X116195295Y-118990476D02*
X116290533Y-118990476D01*
X116290533Y-118990476D02*
X116433390Y-119038095D01*
X116433390Y-119038095D02*
X117004819Y-119609523D01*
X117004819Y-119609523D02*
X117004819Y-118990476D01*
X116338152Y-118133333D02*
X117004819Y-118133333D01*
X115957200Y-118371428D02*
X116671485Y-118609523D01*
X116671485Y-118609523D02*
X116671485Y-117990476D01*
X109204819Y-113542857D02*
X108728628Y-113876190D01*
X109204819Y-114114285D02*
X108204819Y-114114285D01*
X108204819Y-114114285D02*
X108204819Y-113733333D01*
X108204819Y-113733333D02*
X108252438Y-113638095D01*
X108252438Y-113638095D02*
X108300057Y-113590476D01*
X108300057Y-113590476D02*
X108395295Y-113542857D01*
X108395295Y-113542857D02*
X108538152Y-113542857D01*
X108538152Y-113542857D02*
X108633390Y-113590476D01*
X108633390Y-113590476D02*
X108681009Y-113638095D01*
X108681009Y-113638095D02*
X108728628Y-113733333D01*
X108728628Y-113733333D02*
X108728628Y-114114285D01*
X109204819Y-112590476D02*
X109204819Y-113161904D01*
X109204819Y-112876190D02*
X108204819Y-112876190D01*
X108204819Y-112876190D02*
X108347676Y-112971428D01*
X108347676Y-112971428D02*
X108442914Y-113066666D01*
X108442914Y-113066666D02*
X108490533Y-113161904D01*
X109204819Y-112114285D02*
X109204819Y-111923809D01*
X109204819Y-111923809D02*
X109157200Y-111828571D01*
X109157200Y-111828571D02*
X109109580Y-111780952D01*
X109109580Y-111780952D02*
X108966723Y-111685714D01*
X108966723Y-111685714D02*
X108776247Y-111638095D01*
X108776247Y-111638095D02*
X108395295Y-111638095D01*
X108395295Y-111638095D02*
X108300057Y-111685714D01*
X108300057Y-111685714D02*
X108252438Y-111733333D01*
X108252438Y-111733333D02*
X108204819Y-111828571D01*
X108204819Y-111828571D02*
X108204819Y-112019047D01*
X108204819Y-112019047D02*
X108252438Y-112114285D01*
X108252438Y-112114285D02*
X108300057Y-112161904D01*
X108300057Y-112161904D02*
X108395295Y-112209523D01*
X108395295Y-112209523D02*
X108633390Y-112209523D01*
X108633390Y-112209523D02*
X108728628Y-112161904D01*
X108728628Y-112161904D02*
X108776247Y-112114285D01*
X108776247Y-112114285D02*
X108823866Y-112019047D01*
X108823866Y-112019047D02*
X108823866Y-111828571D01*
X108823866Y-111828571D02*
X108776247Y-111733333D01*
X108776247Y-111733333D02*
X108728628Y-111685714D01*
X108728628Y-111685714D02*
X108633390Y-111638095D01*
X169554819Y-115333333D02*
X170269104Y-115333333D01*
X170269104Y-115333333D02*
X170411961Y-115380952D01*
X170411961Y-115380952D02*
X170507200Y-115476190D01*
X170507200Y-115476190D02*
X170554819Y-115619047D01*
X170554819Y-115619047D02*
X170554819Y-115714285D01*
X170554819Y-114857142D02*
X169554819Y-114857142D01*
X169554819Y-114857142D02*
X169554819Y-114476190D01*
X169554819Y-114476190D02*
X169602438Y-114380952D01*
X169602438Y-114380952D02*
X169650057Y-114333333D01*
X169650057Y-114333333D02*
X169745295Y-114285714D01*
X169745295Y-114285714D02*
X169888152Y-114285714D01*
X169888152Y-114285714D02*
X169983390Y-114333333D01*
X169983390Y-114333333D02*
X170031009Y-114380952D01*
X170031009Y-114380952D02*
X170078628Y-114476190D01*
X170078628Y-114476190D02*
X170078628Y-114857142D01*
X170554819Y-113333333D02*
X170554819Y-113904761D01*
X170554819Y-113619047D02*
X169554819Y-113619047D01*
X169554819Y-113619047D02*
X169697676Y-113714285D01*
X169697676Y-113714285D02*
X169792914Y-113809523D01*
X169792914Y-113809523D02*
X169840533Y-113904761D01*
X119659819Y-118016666D02*
X119183628Y-118349999D01*
X119659819Y-118588094D02*
X118659819Y-118588094D01*
X118659819Y-118588094D02*
X118659819Y-118207142D01*
X118659819Y-118207142D02*
X118707438Y-118111904D01*
X118707438Y-118111904D02*
X118755057Y-118064285D01*
X118755057Y-118064285D02*
X118850295Y-118016666D01*
X118850295Y-118016666D02*
X118993152Y-118016666D01*
X118993152Y-118016666D02*
X119088390Y-118064285D01*
X119088390Y-118064285D02*
X119136009Y-118111904D01*
X119136009Y-118111904D02*
X119183628Y-118207142D01*
X119183628Y-118207142D02*
X119183628Y-118588094D01*
X118659819Y-117683332D02*
X118659819Y-117064285D01*
X118659819Y-117064285D02*
X119040771Y-117397618D01*
X119040771Y-117397618D02*
X119040771Y-117254761D01*
X119040771Y-117254761D02*
X119088390Y-117159523D01*
X119088390Y-117159523D02*
X119136009Y-117111904D01*
X119136009Y-117111904D02*
X119231247Y-117064285D01*
X119231247Y-117064285D02*
X119469342Y-117064285D01*
X119469342Y-117064285D02*
X119564580Y-117111904D01*
X119564580Y-117111904D02*
X119612200Y-117159523D01*
X119612200Y-117159523D02*
X119659819Y-117254761D01*
X119659819Y-117254761D02*
X119659819Y-117540475D01*
X119659819Y-117540475D02*
X119612200Y-117635713D01*
X119612200Y-117635713D02*
X119564580Y-117683332D01*
X163657142Y-121359580D02*
X163609523Y-121407200D01*
X163609523Y-121407200D02*
X163466666Y-121454819D01*
X163466666Y-121454819D02*
X163371428Y-121454819D01*
X163371428Y-121454819D02*
X163228571Y-121407200D01*
X163228571Y-121407200D02*
X163133333Y-121311961D01*
X163133333Y-121311961D02*
X163085714Y-121216723D01*
X163085714Y-121216723D02*
X163038095Y-121026247D01*
X163038095Y-121026247D02*
X163038095Y-120883390D01*
X163038095Y-120883390D02*
X163085714Y-120692914D01*
X163085714Y-120692914D02*
X163133333Y-120597676D01*
X163133333Y-120597676D02*
X163228571Y-120502438D01*
X163228571Y-120502438D02*
X163371428Y-120454819D01*
X163371428Y-120454819D02*
X163466666Y-120454819D01*
X163466666Y-120454819D02*
X163609523Y-120502438D01*
X163609523Y-120502438D02*
X163657142Y-120550057D01*
X164038095Y-120550057D02*
X164085714Y-120502438D01*
X164085714Y-120502438D02*
X164180952Y-120454819D01*
X164180952Y-120454819D02*
X164419047Y-120454819D01*
X164419047Y-120454819D02*
X164514285Y-120502438D01*
X164514285Y-120502438D02*
X164561904Y-120550057D01*
X164561904Y-120550057D02*
X164609523Y-120645295D01*
X164609523Y-120645295D02*
X164609523Y-120740533D01*
X164609523Y-120740533D02*
X164561904Y-120883390D01*
X164561904Y-120883390D02*
X163990476Y-121454819D01*
X163990476Y-121454819D02*
X164609523Y-121454819D01*
X165180952Y-120883390D02*
X165085714Y-120835771D01*
X165085714Y-120835771D02*
X165038095Y-120788152D01*
X165038095Y-120788152D02*
X164990476Y-120692914D01*
X164990476Y-120692914D02*
X164990476Y-120645295D01*
X164990476Y-120645295D02*
X165038095Y-120550057D01*
X165038095Y-120550057D02*
X165085714Y-120502438D01*
X165085714Y-120502438D02*
X165180952Y-120454819D01*
X165180952Y-120454819D02*
X165371428Y-120454819D01*
X165371428Y-120454819D02*
X165466666Y-120502438D01*
X165466666Y-120502438D02*
X165514285Y-120550057D01*
X165514285Y-120550057D02*
X165561904Y-120645295D01*
X165561904Y-120645295D02*
X165561904Y-120692914D01*
X165561904Y-120692914D02*
X165514285Y-120788152D01*
X165514285Y-120788152D02*
X165466666Y-120835771D01*
X165466666Y-120835771D02*
X165371428Y-120883390D01*
X165371428Y-120883390D02*
X165180952Y-120883390D01*
X165180952Y-120883390D02*
X165085714Y-120931009D01*
X165085714Y-120931009D02*
X165038095Y-120978628D01*
X165038095Y-120978628D02*
X164990476Y-121073866D01*
X164990476Y-121073866D02*
X164990476Y-121264342D01*
X164990476Y-121264342D02*
X165038095Y-121359580D01*
X165038095Y-121359580D02*
X165085714Y-121407200D01*
X165085714Y-121407200D02*
X165180952Y-121454819D01*
X165180952Y-121454819D02*
X165371428Y-121454819D01*
X165371428Y-121454819D02*
X165466666Y-121407200D01*
X165466666Y-121407200D02*
X165514285Y-121359580D01*
X165514285Y-121359580D02*
X165561904Y-121264342D01*
X165561904Y-121264342D02*
X165561904Y-121073866D01*
X165561904Y-121073866D02*
X165514285Y-120978628D01*
X165514285Y-120978628D02*
X165466666Y-120931009D01*
X165466666Y-120931009D02*
X165371428Y-120883390D01*
X132361905Y-113254819D02*
X132361905Y-112254819D01*
X132361905Y-112254819D02*
X132600000Y-112254819D01*
X132600000Y-112254819D02*
X132742857Y-112302438D01*
X132742857Y-112302438D02*
X132838095Y-112397676D01*
X132838095Y-112397676D02*
X132885714Y-112492914D01*
X132885714Y-112492914D02*
X132933333Y-112683390D01*
X132933333Y-112683390D02*
X132933333Y-112826247D01*
X132933333Y-112826247D02*
X132885714Y-113016723D01*
X132885714Y-113016723D02*
X132838095Y-113111961D01*
X132838095Y-113111961D02*
X132742857Y-113207200D01*
X132742857Y-113207200D02*
X132600000Y-113254819D01*
X132600000Y-113254819D02*
X132361905Y-113254819D01*
X133885714Y-113254819D02*
X133314286Y-113254819D01*
X133600000Y-113254819D02*
X133600000Y-112254819D01*
X133600000Y-112254819D02*
X133504762Y-112397676D01*
X133504762Y-112397676D02*
X133409524Y-112492914D01*
X133409524Y-112492914D02*
X133314286Y-112540533D01*
X91594819Y-107066666D02*
X91118628Y-107399999D01*
X91594819Y-107638094D02*
X90594819Y-107638094D01*
X90594819Y-107638094D02*
X90594819Y-107257142D01*
X90594819Y-107257142D02*
X90642438Y-107161904D01*
X90642438Y-107161904D02*
X90690057Y-107114285D01*
X90690057Y-107114285D02*
X90785295Y-107066666D01*
X90785295Y-107066666D02*
X90928152Y-107066666D01*
X90928152Y-107066666D02*
X91023390Y-107114285D01*
X91023390Y-107114285D02*
X91071009Y-107161904D01*
X91071009Y-107161904D02*
X91118628Y-107257142D01*
X91118628Y-107257142D02*
X91118628Y-107638094D01*
X91023390Y-106495237D02*
X90975771Y-106590475D01*
X90975771Y-106590475D02*
X90928152Y-106638094D01*
X90928152Y-106638094D02*
X90832914Y-106685713D01*
X90832914Y-106685713D02*
X90785295Y-106685713D01*
X90785295Y-106685713D02*
X90690057Y-106638094D01*
X90690057Y-106638094D02*
X90642438Y-106590475D01*
X90642438Y-106590475D02*
X90594819Y-106495237D01*
X90594819Y-106495237D02*
X90594819Y-106304761D01*
X90594819Y-106304761D02*
X90642438Y-106209523D01*
X90642438Y-106209523D02*
X90690057Y-106161904D01*
X90690057Y-106161904D02*
X90785295Y-106114285D01*
X90785295Y-106114285D02*
X90832914Y-106114285D01*
X90832914Y-106114285D02*
X90928152Y-106161904D01*
X90928152Y-106161904D02*
X90975771Y-106209523D01*
X90975771Y-106209523D02*
X91023390Y-106304761D01*
X91023390Y-106304761D02*
X91023390Y-106495237D01*
X91023390Y-106495237D02*
X91071009Y-106590475D01*
X91071009Y-106590475D02*
X91118628Y-106638094D01*
X91118628Y-106638094D02*
X91213866Y-106685713D01*
X91213866Y-106685713D02*
X91404342Y-106685713D01*
X91404342Y-106685713D02*
X91499580Y-106638094D01*
X91499580Y-106638094D02*
X91547200Y-106590475D01*
X91547200Y-106590475D02*
X91594819Y-106495237D01*
X91594819Y-106495237D02*
X91594819Y-106304761D01*
X91594819Y-106304761D02*
X91547200Y-106209523D01*
X91547200Y-106209523D02*
X91499580Y-106161904D01*
X91499580Y-106161904D02*
X91404342Y-106114285D01*
X91404342Y-106114285D02*
X91213866Y-106114285D01*
X91213866Y-106114285D02*
X91118628Y-106161904D01*
X91118628Y-106161904D02*
X91071009Y-106209523D01*
X91071009Y-106209523D02*
X91023390Y-106304761D01*
X176833333Y-109609580D02*
X176785714Y-109657200D01*
X176785714Y-109657200D02*
X176642857Y-109704819D01*
X176642857Y-109704819D02*
X176547619Y-109704819D01*
X176547619Y-109704819D02*
X176404762Y-109657200D01*
X176404762Y-109657200D02*
X176309524Y-109561961D01*
X176309524Y-109561961D02*
X176261905Y-109466723D01*
X176261905Y-109466723D02*
X176214286Y-109276247D01*
X176214286Y-109276247D02*
X176214286Y-109133390D01*
X176214286Y-109133390D02*
X176261905Y-108942914D01*
X176261905Y-108942914D02*
X176309524Y-108847676D01*
X176309524Y-108847676D02*
X176404762Y-108752438D01*
X176404762Y-108752438D02*
X176547619Y-108704819D01*
X176547619Y-108704819D02*
X176642857Y-108704819D01*
X176642857Y-108704819D02*
X176785714Y-108752438D01*
X176785714Y-108752438D02*
X176833333Y-108800057D01*
X177738095Y-108704819D02*
X177261905Y-108704819D01*
X177261905Y-108704819D02*
X177214286Y-109181009D01*
X177214286Y-109181009D02*
X177261905Y-109133390D01*
X177261905Y-109133390D02*
X177357143Y-109085771D01*
X177357143Y-109085771D02*
X177595238Y-109085771D01*
X177595238Y-109085771D02*
X177690476Y-109133390D01*
X177690476Y-109133390D02*
X177738095Y-109181009D01*
X177738095Y-109181009D02*
X177785714Y-109276247D01*
X177785714Y-109276247D02*
X177785714Y-109514342D01*
X177785714Y-109514342D02*
X177738095Y-109609580D01*
X177738095Y-109609580D02*
X177690476Y-109657200D01*
X177690476Y-109657200D02*
X177595238Y-109704819D01*
X177595238Y-109704819D02*
X177357143Y-109704819D01*
X177357143Y-109704819D02*
X177261905Y-109657200D01*
X177261905Y-109657200D02*
X177214286Y-109609580D01*
X145627142Y-91409580D02*
X145579523Y-91457200D01*
X145579523Y-91457200D02*
X145436666Y-91504819D01*
X145436666Y-91504819D02*
X145341428Y-91504819D01*
X145341428Y-91504819D02*
X145198571Y-91457200D01*
X145198571Y-91457200D02*
X145103333Y-91361961D01*
X145103333Y-91361961D02*
X145055714Y-91266723D01*
X145055714Y-91266723D02*
X145008095Y-91076247D01*
X145008095Y-91076247D02*
X145008095Y-90933390D01*
X145008095Y-90933390D02*
X145055714Y-90742914D01*
X145055714Y-90742914D02*
X145103333Y-90647676D01*
X145103333Y-90647676D02*
X145198571Y-90552438D01*
X145198571Y-90552438D02*
X145341428Y-90504819D01*
X145341428Y-90504819D02*
X145436666Y-90504819D01*
X145436666Y-90504819D02*
X145579523Y-90552438D01*
X145579523Y-90552438D02*
X145627142Y-90600057D01*
X146579523Y-91504819D02*
X146008095Y-91504819D01*
X146293809Y-91504819D02*
X146293809Y-90504819D01*
X146293809Y-90504819D02*
X146198571Y-90647676D01*
X146198571Y-90647676D02*
X146103333Y-90742914D01*
X146103333Y-90742914D02*
X146008095Y-90790533D01*
X147055714Y-91504819D02*
X147246190Y-91504819D01*
X147246190Y-91504819D02*
X147341428Y-91457200D01*
X147341428Y-91457200D02*
X147389047Y-91409580D01*
X147389047Y-91409580D02*
X147484285Y-91266723D01*
X147484285Y-91266723D02*
X147531904Y-91076247D01*
X147531904Y-91076247D02*
X147531904Y-90695295D01*
X147531904Y-90695295D02*
X147484285Y-90600057D01*
X147484285Y-90600057D02*
X147436666Y-90552438D01*
X147436666Y-90552438D02*
X147341428Y-90504819D01*
X147341428Y-90504819D02*
X147150952Y-90504819D01*
X147150952Y-90504819D02*
X147055714Y-90552438D01*
X147055714Y-90552438D02*
X147008095Y-90600057D01*
X147008095Y-90600057D02*
X146960476Y-90695295D01*
X146960476Y-90695295D02*
X146960476Y-90933390D01*
X146960476Y-90933390D02*
X147008095Y-91028628D01*
X147008095Y-91028628D02*
X147055714Y-91076247D01*
X147055714Y-91076247D02*
X147150952Y-91123866D01*
X147150952Y-91123866D02*
X147341428Y-91123866D01*
X147341428Y-91123866D02*
X147436666Y-91076247D01*
X147436666Y-91076247D02*
X147484285Y-91028628D01*
X147484285Y-91028628D02*
X147531904Y-90933390D01*
X97057142Y-87804819D02*
X96723809Y-87328628D01*
X96485714Y-87804819D02*
X96485714Y-86804819D01*
X96485714Y-86804819D02*
X96866666Y-86804819D01*
X96866666Y-86804819D02*
X96961904Y-86852438D01*
X96961904Y-86852438D02*
X97009523Y-86900057D01*
X97009523Y-86900057D02*
X97057142Y-86995295D01*
X97057142Y-86995295D02*
X97057142Y-87138152D01*
X97057142Y-87138152D02*
X97009523Y-87233390D01*
X97009523Y-87233390D02*
X96961904Y-87281009D01*
X96961904Y-87281009D02*
X96866666Y-87328628D01*
X96866666Y-87328628D02*
X96485714Y-87328628D01*
X97438095Y-86900057D02*
X97485714Y-86852438D01*
X97485714Y-86852438D02*
X97580952Y-86804819D01*
X97580952Y-86804819D02*
X97819047Y-86804819D01*
X97819047Y-86804819D02*
X97914285Y-86852438D01*
X97914285Y-86852438D02*
X97961904Y-86900057D01*
X97961904Y-86900057D02*
X98009523Y-86995295D01*
X98009523Y-86995295D02*
X98009523Y-87090533D01*
X98009523Y-87090533D02*
X97961904Y-87233390D01*
X97961904Y-87233390D02*
X97390476Y-87804819D01*
X97390476Y-87804819D02*
X98009523Y-87804819D01*
X98961904Y-87804819D02*
X98390476Y-87804819D01*
X98676190Y-87804819D02*
X98676190Y-86804819D01*
X98676190Y-86804819D02*
X98580952Y-86947676D01*
X98580952Y-86947676D02*
X98485714Y-87042914D01*
X98485714Y-87042914D02*
X98390476Y-87090533D01*
X121407142Y-89504819D02*
X121073809Y-89028628D01*
X120835714Y-89504819D02*
X120835714Y-88504819D01*
X120835714Y-88504819D02*
X121216666Y-88504819D01*
X121216666Y-88504819D02*
X121311904Y-88552438D01*
X121311904Y-88552438D02*
X121359523Y-88600057D01*
X121359523Y-88600057D02*
X121407142Y-88695295D01*
X121407142Y-88695295D02*
X121407142Y-88838152D01*
X121407142Y-88838152D02*
X121359523Y-88933390D01*
X121359523Y-88933390D02*
X121311904Y-88981009D01*
X121311904Y-88981009D02*
X121216666Y-89028628D01*
X121216666Y-89028628D02*
X120835714Y-89028628D01*
X121788095Y-88600057D02*
X121835714Y-88552438D01*
X121835714Y-88552438D02*
X121930952Y-88504819D01*
X121930952Y-88504819D02*
X122169047Y-88504819D01*
X122169047Y-88504819D02*
X122264285Y-88552438D01*
X122264285Y-88552438D02*
X122311904Y-88600057D01*
X122311904Y-88600057D02*
X122359523Y-88695295D01*
X122359523Y-88695295D02*
X122359523Y-88790533D01*
X122359523Y-88790533D02*
X122311904Y-88933390D01*
X122311904Y-88933390D02*
X121740476Y-89504819D01*
X121740476Y-89504819D02*
X122359523Y-89504819D01*
X122978571Y-88504819D02*
X123073809Y-88504819D01*
X123073809Y-88504819D02*
X123169047Y-88552438D01*
X123169047Y-88552438D02*
X123216666Y-88600057D01*
X123216666Y-88600057D02*
X123264285Y-88695295D01*
X123264285Y-88695295D02*
X123311904Y-88885771D01*
X123311904Y-88885771D02*
X123311904Y-89123866D01*
X123311904Y-89123866D02*
X123264285Y-89314342D01*
X123264285Y-89314342D02*
X123216666Y-89409580D01*
X123216666Y-89409580D02*
X123169047Y-89457200D01*
X123169047Y-89457200D02*
X123073809Y-89504819D01*
X123073809Y-89504819D02*
X122978571Y-89504819D01*
X122978571Y-89504819D02*
X122883333Y-89457200D01*
X122883333Y-89457200D02*
X122835714Y-89409580D01*
X122835714Y-89409580D02*
X122788095Y-89314342D01*
X122788095Y-89314342D02*
X122740476Y-89123866D01*
X122740476Y-89123866D02*
X122740476Y-88885771D01*
X122740476Y-88885771D02*
X122788095Y-88695295D01*
X122788095Y-88695295D02*
X122835714Y-88600057D01*
X122835714Y-88600057D02*
X122883333Y-88552438D01*
X122883333Y-88552438D02*
X122978571Y-88504819D01*
X191007142Y-110459580D02*
X190959523Y-110507200D01*
X190959523Y-110507200D02*
X190816666Y-110554819D01*
X190816666Y-110554819D02*
X190721428Y-110554819D01*
X190721428Y-110554819D02*
X190578571Y-110507200D01*
X190578571Y-110507200D02*
X190483333Y-110411961D01*
X190483333Y-110411961D02*
X190435714Y-110316723D01*
X190435714Y-110316723D02*
X190388095Y-110126247D01*
X190388095Y-110126247D02*
X190388095Y-109983390D01*
X190388095Y-109983390D02*
X190435714Y-109792914D01*
X190435714Y-109792914D02*
X190483333Y-109697676D01*
X190483333Y-109697676D02*
X190578571Y-109602438D01*
X190578571Y-109602438D02*
X190721428Y-109554819D01*
X190721428Y-109554819D02*
X190816666Y-109554819D01*
X190816666Y-109554819D02*
X190959523Y-109602438D01*
X190959523Y-109602438D02*
X191007142Y-109650057D01*
X191388095Y-109650057D02*
X191435714Y-109602438D01*
X191435714Y-109602438D02*
X191530952Y-109554819D01*
X191530952Y-109554819D02*
X191769047Y-109554819D01*
X191769047Y-109554819D02*
X191864285Y-109602438D01*
X191864285Y-109602438D02*
X191911904Y-109650057D01*
X191911904Y-109650057D02*
X191959523Y-109745295D01*
X191959523Y-109745295D02*
X191959523Y-109840533D01*
X191959523Y-109840533D02*
X191911904Y-109983390D01*
X191911904Y-109983390D02*
X191340476Y-110554819D01*
X191340476Y-110554819D02*
X191959523Y-110554819D01*
X192578571Y-109554819D02*
X192673809Y-109554819D01*
X192673809Y-109554819D02*
X192769047Y-109602438D01*
X192769047Y-109602438D02*
X192816666Y-109650057D01*
X192816666Y-109650057D02*
X192864285Y-109745295D01*
X192864285Y-109745295D02*
X192911904Y-109935771D01*
X192911904Y-109935771D02*
X192911904Y-110173866D01*
X192911904Y-110173866D02*
X192864285Y-110364342D01*
X192864285Y-110364342D02*
X192816666Y-110459580D01*
X192816666Y-110459580D02*
X192769047Y-110507200D01*
X192769047Y-110507200D02*
X192673809Y-110554819D01*
X192673809Y-110554819D02*
X192578571Y-110554819D01*
X192578571Y-110554819D02*
X192483333Y-110507200D01*
X192483333Y-110507200D02*
X192435714Y-110459580D01*
X192435714Y-110459580D02*
X192388095Y-110364342D01*
X192388095Y-110364342D02*
X192340476Y-110173866D01*
X192340476Y-110173866D02*
X192340476Y-109935771D01*
X192340476Y-109935771D02*
X192388095Y-109745295D01*
X192388095Y-109745295D02*
X192435714Y-109650057D01*
X192435714Y-109650057D02*
X192483333Y-109602438D01*
X192483333Y-109602438D02*
X192578571Y-109554819D01*
X129133333Y-132854819D02*
X128800000Y-132378628D01*
X128561905Y-132854819D02*
X128561905Y-131854819D01*
X128561905Y-131854819D02*
X128942857Y-131854819D01*
X128942857Y-131854819D02*
X129038095Y-131902438D01*
X129038095Y-131902438D02*
X129085714Y-131950057D01*
X129085714Y-131950057D02*
X129133333Y-132045295D01*
X129133333Y-132045295D02*
X129133333Y-132188152D01*
X129133333Y-132188152D02*
X129085714Y-132283390D01*
X129085714Y-132283390D02*
X129038095Y-132331009D01*
X129038095Y-132331009D02*
X128942857Y-132378628D01*
X128942857Y-132378628D02*
X128561905Y-132378628D01*
X130038095Y-131854819D02*
X129561905Y-131854819D01*
X129561905Y-131854819D02*
X129514286Y-132331009D01*
X129514286Y-132331009D02*
X129561905Y-132283390D01*
X129561905Y-132283390D02*
X129657143Y-132235771D01*
X129657143Y-132235771D02*
X129895238Y-132235771D01*
X129895238Y-132235771D02*
X129990476Y-132283390D01*
X129990476Y-132283390D02*
X130038095Y-132331009D01*
X130038095Y-132331009D02*
X130085714Y-132426247D01*
X130085714Y-132426247D02*
X130085714Y-132664342D01*
X130085714Y-132664342D02*
X130038095Y-132759580D01*
X130038095Y-132759580D02*
X129990476Y-132807200D01*
X129990476Y-132807200D02*
X129895238Y-132854819D01*
X129895238Y-132854819D02*
X129657143Y-132854819D01*
X129657143Y-132854819D02*
X129561905Y-132807200D01*
X129561905Y-132807200D02*
X129514286Y-132759580D01*
X174759580Y-114066666D02*
X174807200Y-114114285D01*
X174807200Y-114114285D02*
X174854819Y-114257142D01*
X174854819Y-114257142D02*
X174854819Y-114352380D01*
X174854819Y-114352380D02*
X174807200Y-114495237D01*
X174807200Y-114495237D02*
X174711961Y-114590475D01*
X174711961Y-114590475D02*
X174616723Y-114638094D01*
X174616723Y-114638094D02*
X174426247Y-114685713D01*
X174426247Y-114685713D02*
X174283390Y-114685713D01*
X174283390Y-114685713D02*
X174092914Y-114638094D01*
X174092914Y-114638094D02*
X173997676Y-114590475D01*
X173997676Y-114590475D02*
X173902438Y-114495237D01*
X173902438Y-114495237D02*
X173854819Y-114352380D01*
X173854819Y-114352380D02*
X173854819Y-114257142D01*
X173854819Y-114257142D02*
X173902438Y-114114285D01*
X173902438Y-114114285D02*
X173950057Y-114066666D01*
X174854819Y-113114285D02*
X174854819Y-113685713D01*
X174854819Y-113399999D02*
X173854819Y-113399999D01*
X173854819Y-113399999D02*
X173997676Y-113495237D01*
X173997676Y-113495237D02*
X174092914Y-113590475D01*
X174092914Y-113590475D02*
X174140533Y-113685713D01*
X81557142Y-110709580D02*
X81509523Y-110757200D01*
X81509523Y-110757200D02*
X81366666Y-110804819D01*
X81366666Y-110804819D02*
X81271428Y-110804819D01*
X81271428Y-110804819D02*
X81128571Y-110757200D01*
X81128571Y-110757200D02*
X81033333Y-110661961D01*
X81033333Y-110661961D02*
X80985714Y-110566723D01*
X80985714Y-110566723D02*
X80938095Y-110376247D01*
X80938095Y-110376247D02*
X80938095Y-110233390D01*
X80938095Y-110233390D02*
X80985714Y-110042914D01*
X80985714Y-110042914D02*
X81033333Y-109947676D01*
X81033333Y-109947676D02*
X81128571Y-109852438D01*
X81128571Y-109852438D02*
X81271428Y-109804819D01*
X81271428Y-109804819D02*
X81366666Y-109804819D01*
X81366666Y-109804819D02*
X81509523Y-109852438D01*
X81509523Y-109852438D02*
X81557142Y-109900057D01*
X82509523Y-110804819D02*
X81938095Y-110804819D01*
X82223809Y-110804819D02*
X82223809Y-109804819D01*
X82223809Y-109804819D02*
X82128571Y-109947676D01*
X82128571Y-109947676D02*
X82033333Y-110042914D01*
X82033333Y-110042914D02*
X81938095Y-110090533D01*
X82890476Y-109900057D02*
X82938095Y-109852438D01*
X82938095Y-109852438D02*
X83033333Y-109804819D01*
X83033333Y-109804819D02*
X83271428Y-109804819D01*
X83271428Y-109804819D02*
X83366666Y-109852438D01*
X83366666Y-109852438D02*
X83414285Y-109900057D01*
X83414285Y-109900057D02*
X83461904Y-109995295D01*
X83461904Y-109995295D02*
X83461904Y-110090533D01*
X83461904Y-110090533D02*
X83414285Y-110233390D01*
X83414285Y-110233390D02*
X82842857Y-110804819D01*
X82842857Y-110804819D02*
X83461904Y-110804819D01*
D11*
X109265200Y-87966667D02*
X109217580Y-88109524D01*
X109217580Y-88109524D02*
X109217580Y-88347619D01*
X109217580Y-88347619D02*
X109265200Y-88442857D01*
X109265200Y-88442857D02*
X109312819Y-88490476D01*
X109312819Y-88490476D02*
X109408057Y-88538095D01*
X109408057Y-88538095D02*
X109503295Y-88538095D01*
X109503295Y-88538095D02*
X109598533Y-88490476D01*
X109598533Y-88490476D02*
X109646152Y-88442857D01*
X109646152Y-88442857D02*
X109693771Y-88347619D01*
X109693771Y-88347619D02*
X109741390Y-88157143D01*
X109741390Y-88157143D02*
X109789009Y-88061905D01*
X109789009Y-88061905D02*
X109836628Y-88014286D01*
X109836628Y-88014286D02*
X109931866Y-87966667D01*
X109931866Y-87966667D02*
X110027104Y-87966667D01*
X110027104Y-87966667D02*
X110122342Y-88014286D01*
X110122342Y-88014286D02*
X110169961Y-88061905D01*
X110169961Y-88061905D02*
X110217580Y-88157143D01*
X110217580Y-88157143D02*
X110217580Y-88395238D01*
X110217580Y-88395238D02*
X110169961Y-88538095D01*
X110217580Y-88871429D02*
X109217580Y-89109524D01*
X109217580Y-89109524D02*
X109931866Y-89300000D01*
X109931866Y-89300000D02*
X109217580Y-89490476D01*
X109217580Y-89490476D02*
X110217580Y-89728572D01*
X110122342Y-90061905D02*
X110169961Y-90109524D01*
X110169961Y-90109524D02*
X110217580Y-90204762D01*
X110217580Y-90204762D02*
X110217580Y-90442857D01*
X110217580Y-90442857D02*
X110169961Y-90538095D01*
X110169961Y-90538095D02*
X110122342Y-90585714D01*
X110122342Y-90585714D02*
X110027104Y-90633333D01*
X110027104Y-90633333D02*
X109931866Y-90633333D01*
X109931866Y-90633333D02*
X109789009Y-90585714D01*
X109789009Y-90585714D02*
X109217580Y-90014286D01*
X109217580Y-90014286D02*
X109217580Y-90633333D01*
D10*
X170859580Y-121816666D02*
X170907200Y-121864285D01*
X170907200Y-121864285D02*
X170954819Y-122007142D01*
X170954819Y-122007142D02*
X170954819Y-122102380D01*
X170954819Y-122102380D02*
X170907200Y-122245237D01*
X170907200Y-122245237D02*
X170811961Y-122340475D01*
X170811961Y-122340475D02*
X170716723Y-122388094D01*
X170716723Y-122388094D02*
X170526247Y-122435713D01*
X170526247Y-122435713D02*
X170383390Y-122435713D01*
X170383390Y-122435713D02*
X170192914Y-122388094D01*
X170192914Y-122388094D02*
X170097676Y-122340475D01*
X170097676Y-122340475D02*
X170002438Y-122245237D01*
X170002438Y-122245237D02*
X169954819Y-122102380D01*
X169954819Y-122102380D02*
X169954819Y-122007142D01*
X169954819Y-122007142D02*
X170002438Y-121864285D01*
X170002438Y-121864285D02*
X170050057Y-121816666D01*
X169954819Y-121483332D02*
X169954819Y-120816666D01*
X169954819Y-120816666D02*
X170954819Y-121245237D01*
D11*
X125641667Y-97409800D02*
X125784524Y-97457419D01*
X125784524Y-97457419D02*
X126022619Y-97457419D01*
X126022619Y-97457419D02*
X126117857Y-97409800D01*
X126117857Y-97409800D02*
X126165476Y-97362180D01*
X126165476Y-97362180D02*
X126213095Y-97266942D01*
X126213095Y-97266942D02*
X126213095Y-97171704D01*
X126213095Y-97171704D02*
X126165476Y-97076466D01*
X126165476Y-97076466D02*
X126117857Y-97028847D01*
X126117857Y-97028847D02*
X126022619Y-96981228D01*
X126022619Y-96981228D02*
X125832143Y-96933609D01*
X125832143Y-96933609D02*
X125736905Y-96885990D01*
X125736905Y-96885990D02*
X125689286Y-96838371D01*
X125689286Y-96838371D02*
X125641667Y-96743133D01*
X125641667Y-96743133D02*
X125641667Y-96647895D01*
X125641667Y-96647895D02*
X125689286Y-96552657D01*
X125689286Y-96552657D02*
X125736905Y-96505038D01*
X125736905Y-96505038D02*
X125832143Y-96457419D01*
X125832143Y-96457419D02*
X126070238Y-96457419D01*
X126070238Y-96457419D02*
X126213095Y-96505038D01*
X126546429Y-96457419D02*
X126784524Y-97457419D01*
X126784524Y-97457419D02*
X126975000Y-96743133D01*
X126975000Y-96743133D02*
X127165476Y-97457419D01*
X127165476Y-97457419D02*
X127403572Y-96457419D01*
X128260714Y-96457419D02*
X127784524Y-96457419D01*
X127784524Y-96457419D02*
X127736905Y-96933609D01*
X127736905Y-96933609D02*
X127784524Y-96885990D01*
X127784524Y-96885990D02*
X127879762Y-96838371D01*
X127879762Y-96838371D02*
X128117857Y-96838371D01*
X128117857Y-96838371D02*
X128213095Y-96885990D01*
X128213095Y-96885990D02*
X128260714Y-96933609D01*
X128260714Y-96933609D02*
X128308333Y-97028847D01*
X128308333Y-97028847D02*
X128308333Y-97266942D01*
X128308333Y-97266942D02*
X128260714Y-97362180D01*
X128260714Y-97362180D02*
X128213095Y-97409800D01*
X128213095Y-97409800D02*
X128117857Y-97457419D01*
X128117857Y-97457419D02*
X127879762Y-97457419D01*
X127879762Y-97457419D02*
X127784524Y-97409800D01*
X127784524Y-97409800D02*
X127736905Y-97362180D01*
D10*
X90104819Y-95216666D02*
X89628628Y-95549999D01*
X90104819Y-95788094D02*
X89104819Y-95788094D01*
X89104819Y-95788094D02*
X89104819Y-95407142D01*
X89104819Y-95407142D02*
X89152438Y-95311904D01*
X89152438Y-95311904D02*
X89200057Y-95264285D01*
X89200057Y-95264285D02*
X89295295Y-95216666D01*
X89295295Y-95216666D02*
X89438152Y-95216666D01*
X89438152Y-95216666D02*
X89533390Y-95264285D01*
X89533390Y-95264285D02*
X89581009Y-95311904D01*
X89581009Y-95311904D02*
X89628628Y-95407142D01*
X89628628Y-95407142D02*
X89628628Y-95788094D01*
X90104819Y-94740475D02*
X90104819Y-94549999D01*
X90104819Y-94549999D02*
X90057200Y-94454761D01*
X90057200Y-94454761D02*
X90009580Y-94407142D01*
X90009580Y-94407142D02*
X89866723Y-94311904D01*
X89866723Y-94311904D02*
X89676247Y-94264285D01*
X89676247Y-94264285D02*
X89295295Y-94264285D01*
X89295295Y-94264285D02*
X89200057Y-94311904D01*
X89200057Y-94311904D02*
X89152438Y-94359523D01*
X89152438Y-94359523D02*
X89104819Y-94454761D01*
X89104819Y-94454761D02*
X89104819Y-94645237D01*
X89104819Y-94645237D02*
X89152438Y-94740475D01*
X89152438Y-94740475D02*
X89200057Y-94788094D01*
X89200057Y-94788094D02*
X89295295Y-94835713D01*
X89295295Y-94835713D02*
X89533390Y-94835713D01*
X89533390Y-94835713D02*
X89628628Y-94788094D01*
X89628628Y-94788094D02*
X89676247Y-94740475D01*
X89676247Y-94740475D02*
X89723866Y-94645237D01*
X89723866Y-94645237D02*
X89723866Y-94454761D01*
X89723866Y-94454761D02*
X89676247Y-94359523D01*
X89676247Y-94359523D02*
X89628628Y-94311904D01*
X89628628Y-94311904D02*
X89533390Y-94264285D01*
X177733333Y-89504819D02*
X177257143Y-89504819D01*
X177257143Y-89504819D02*
X177257143Y-88504819D01*
X178019048Y-88600057D02*
X178066667Y-88552438D01*
X178066667Y-88552438D02*
X178161905Y-88504819D01*
X178161905Y-88504819D02*
X178400000Y-88504819D01*
X178400000Y-88504819D02*
X178495238Y-88552438D01*
X178495238Y-88552438D02*
X178542857Y-88600057D01*
X178542857Y-88600057D02*
X178590476Y-88695295D01*
X178590476Y-88695295D02*
X178590476Y-88790533D01*
X178590476Y-88790533D02*
X178542857Y-88933390D01*
X178542857Y-88933390D02*
X177971429Y-89504819D01*
X177971429Y-89504819D02*
X178590476Y-89504819D01*
X96584580Y-113942857D02*
X96632200Y-113990476D01*
X96632200Y-113990476D02*
X96679819Y-114133333D01*
X96679819Y-114133333D02*
X96679819Y-114228571D01*
X96679819Y-114228571D02*
X96632200Y-114371428D01*
X96632200Y-114371428D02*
X96536961Y-114466666D01*
X96536961Y-114466666D02*
X96441723Y-114514285D01*
X96441723Y-114514285D02*
X96251247Y-114561904D01*
X96251247Y-114561904D02*
X96108390Y-114561904D01*
X96108390Y-114561904D02*
X95917914Y-114514285D01*
X95917914Y-114514285D02*
X95822676Y-114466666D01*
X95822676Y-114466666D02*
X95727438Y-114371428D01*
X95727438Y-114371428D02*
X95679819Y-114228571D01*
X95679819Y-114228571D02*
X95679819Y-114133333D01*
X95679819Y-114133333D02*
X95727438Y-113990476D01*
X95727438Y-113990476D02*
X95775057Y-113942857D01*
X95775057Y-113561904D02*
X95727438Y-113514285D01*
X95727438Y-113514285D02*
X95679819Y-113419047D01*
X95679819Y-113419047D02*
X95679819Y-113180952D01*
X95679819Y-113180952D02*
X95727438Y-113085714D01*
X95727438Y-113085714D02*
X95775057Y-113038095D01*
X95775057Y-113038095D02*
X95870295Y-112990476D01*
X95870295Y-112990476D02*
X95965533Y-112990476D01*
X95965533Y-112990476D02*
X96108390Y-113038095D01*
X96108390Y-113038095D02*
X96679819Y-113609523D01*
X96679819Y-113609523D02*
X96679819Y-112990476D01*
X95679819Y-112133333D02*
X95679819Y-112323809D01*
X95679819Y-112323809D02*
X95727438Y-112419047D01*
X95727438Y-112419047D02*
X95775057Y-112466666D01*
X95775057Y-112466666D02*
X95917914Y-112561904D01*
X95917914Y-112561904D02*
X96108390Y-112609523D01*
X96108390Y-112609523D02*
X96489342Y-112609523D01*
X96489342Y-112609523D02*
X96584580Y-112561904D01*
X96584580Y-112561904D02*
X96632200Y-112514285D01*
X96632200Y-112514285D02*
X96679819Y-112419047D01*
X96679819Y-112419047D02*
X96679819Y-112228571D01*
X96679819Y-112228571D02*
X96632200Y-112133333D01*
X96632200Y-112133333D02*
X96584580Y-112085714D01*
X96584580Y-112085714D02*
X96489342Y-112038095D01*
X96489342Y-112038095D02*
X96251247Y-112038095D01*
X96251247Y-112038095D02*
X96156009Y-112085714D01*
X96156009Y-112085714D02*
X96108390Y-112133333D01*
X96108390Y-112133333D02*
X96060771Y-112228571D01*
X96060771Y-112228571D02*
X96060771Y-112419047D01*
X96060771Y-112419047D02*
X96108390Y-112514285D01*
X96108390Y-112514285D02*
X96156009Y-112561904D01*
X96156009Y-112561904D02*
X96251247Y-112609523D01*
X121757142Y-108309580D02*
X121709523Y-108357200D01*
X121709523Y-108357200D02*
X121566666Y-108404819D01*
X121566666Y-108404819D02*
X121471428Y-108404819D01*
X121471428Y-108404819D02*
X121328571Y-108357200D01*
X121328571Y-108357200D02*
X121233333Y-108261961D01*
X121233333Y-108261961D02*
X121185714Y-108166723D01*
X121185714Y-108166723D02*
X121138095Y-107976247D01*
X121138095Y-107976247D02*
X121138095Y-107833390D01*
X121138095Y-107833390D02*
X121185714Y-107642914D01*
X121185714Y-107642914D02*
X121233333Y-107547676D01*
X121233333Y-107547676D02*
X121328571Y-107452438D01*
X121328571Y-107452438D02*
X121471428Y-107404819D01*
X121471428Y-107404819D02*
X121566666Y-107404819D01*
X121566666Y-107404819D02*
X121709523Y-107452438D01*
X121709523Y-107452438D02*
X121757142Y-107500057D01*
X122138095Y-107500057D02*
X122185714Y-107452438D01*
X122185714Y-107452438D02*
X122280952Y-107404819D01*
X122280952Y-107404819D02*
X122519047Y-107404819D01*
X122519047Y-107404819D02*
X122614285Y-107452438D01*
X122614285Y-107452438D02*
X122661904Y-107500057D01*
X122661904Y-107500057D02*
X122709523Y-107595295D01*
X122709523Y-107595295D02*
X122709523Y-107690533D01*
X122709523Y-107690533D02*
X122661904Y-107833390D01*
X122661904Y-107833390D02*
X122090476Y-108404819D01*
X122090476Y-108404819D02*
X122709523Y-108404819D01*
X123614285Y-107404819D02*
X123138095Y-107404819D01*
X123138095Y-107404819D02*
X123090476Y-107881009D01*
X123090476Y-107881009D02*
X123138095Y-107833390D01*
X123138095Y-107833390D02*
X123233333Y-107785771D01*
X123233333Y-107785771D02*
X123471428Y-107785771D01*
X123471428Y-107785771D02*
X123566666Y-107833390D01*
X123566666Y-107833390D02*
X123614285Y-107881009D01*
X123614285Y-107881009D02*
X123661904Y-107976247D01*
X123661904Y-107976247D02*
X123661904Y-108214342D01*
X123661904Y-108214342D02*
X123614285Y-108309580D01*
X123614285Y-108309580D02*
X123566666Y-108357200D01*
X123566666Y-108357200D02*
X123471428Y-108404819D01*
X123471428Y-108404819D02*
X123233333Y-108404819D01*
X123233333Y-108404819D02*
X123138095Y-108357200D01*
X123138095Y-108357200D02*
X123090476Y-108309580D01*
X133857142Y-92909580D02*
X133809523Y-92957200D01*
X133809523Y-92957200D02*
X133666666Y-93004819D01*
X133666666Y-93004819D02*
X133571428Y-93004819D01*
X133571428Y-93004819D02*
X133428571Y-92957200D01*
X133428571Y-92957200D02*
X133333333Y-92861961D01*
X133333333Y-92861961D02*
X133285714Y-92766723D01*
X133285714Y-92766723D02*
X133238095Y-92576247D01*
X133238095Y-92576247D02*
X133238095Y-92433390D01*
X133238095Y-92433390D02*
X133285714Y-92242914D01*
X133285714Y-92242914D02*
X133333333Y-92147676D01*
X133333333Y-92147676D02*
X133428571Y-92052438D01*
X133428571Y-92052438D02*
X133571428Y-92004819D01*
X133571428Y-92004819D02*
X133666666Y-92004819D01*
X133666666Y-92004819D02*
X133809523Y-92052438D01*
X133809523Y-92052438D02*
X133857142Y-92100057D01*
X134809523Y-93004819D02*
X134238095Y-93004819D01*
X134523809Y-93004819D02*
X134523809Y-92004819D01*
X134523809Y-92004819D02*
X134428571Y-92147676D01*
X134428571Y-92147676D02*
X134333333Y-92242914D01*
X134333333Y-92242914D02*
X134238095Y-92290533D01*
X135666666Y-92004819D02*
X135476190Y-92004819D01*
X135476190Y-92004819D02*
X135380952Y-92052438D01*
X135380952Y-92052438D02*
X135333333Y-92100057D01*
X135333333Y-92100057D02*
X135238095Y-92242914D01*
X135238095Y-92242914D02*
X135190476Y-92433390D01*
X135190476Y-92433390D02*
X135190476Y-92814342D01*
X135190476Y-92814342D02*
X135238095Y-92909580D01*
X135238095Y-92909580D02*
X135285714Y-92957200D01*
X135285714Y-92957200D02*
X135380952Y-93004819D01*
X135380952Y-93004819D02*
X135571428Y-93004819D01*
X135571428Y-93004819D02*
X135666666Y-92957200D01*
X135666666Y-92957200D02*
X135714285Y-92909580D01*
X135714285Y-92909580D02*
X135761904Y-92814342D01*
X135761904Y-92814342D02*
X135761904Y-92576247D01*
X135761904Y-92576247D02*
X135714285Y-92481009D01*
X135714285Y-92481009D02*
X135666666Y-92433390D01*
X135666666Y-92433390D02*
X135571428Y-92385771D01*
X135571428Y-92385771D02*
X135380952Y-92385771D01*
X135380952Y-92385771D02*
X135285714Y-92433390D01*
X135285714Y-92433390D02*
X135238095Y-92481009D01*
X135238095Y-92481009D02*
X135190476Y-92576247D01*
X174333333Y-117959580D02*
X174285714Y-118007200D01*
X174285714Y-118007200D02*
X174142857Y-118054819D01*
X174142857Y-118054819D02*
X174047619Y-118054819D01*
X174047619Y-118054819D02*
X173904762Y-118007200D01*
X173904762Y-118007200D02*
X173809524Y-117911961D01*
X173809524Y-117911961D02*
X173761905Y-117816723D01*
X173761905Y-117816723D02*
X173714286Y-117626247D01*
X173714286Y-117626247D02*
X173714286Y-117483390D01*
X173714286Y-117483390D02*
X173761905Y-117292914D01*
X173761905Y-117292914D02*
X173809524Y-117197676D01*
X173809524Y-117197676D02*
X173904762Y-117102438D01*
X173904762Y-117102438D02*
X174047619Y-117054819D01*
X174047619Y-117054819D02*
X174142857Y-117054819D01*
X174142857Y-117054819D02*
X174285714Y-117102438D01*
X174285714Y-117102438D02*
X174333333Y-117150057D01*
X174904762Y-117483390D02*
X174809524Y-117435771D01*
X174809524Y-117435771D02*
X174761905Y-117388152D01*
X174761905Y-117388152D02*
X174714286Y-117292914D01*
X174714286Y-117292914D02*
X174714286Y-117245295D01*
X174714286Y-117245295D02*
X174761905Y-117150057D01*
X174761905Y-117150057D02*
X174809524Y-117102438D01*
X174809524Y-117102438D02*
X174904762Y-117054819D01*
X174904762Y-117054819D02*
X175095238Y-117054819D01*
X175095238Y-117054819D02*
X175190476Y-117102438D01*
X175190476Y-117102438D02*
X175238095Y-117150057D01*
X175238095Y-117150057D02*
X175285714Y-117245295D01*
X175285714Y-117245295D02*
X175285714Y-117292914D01*
X175285714Y-117292914D02*
X175238095Y-117388152D01*
X175238095Y-117388152D02*
X175190476Y-117435771D01*
X175190476Y-117435771D02*
X175095238Y-117483390D01*
X175095238Y-117483390D02*
X174904762Y-117483390D01*
X174904762Y-117483390D02*
X174809524Y-117531009D01*
X174809524Y-117531009D02*
X174761905Y-117578628D01*
X174761905Y-117578628D02*
X174714286Y-117673866D01*
X174714286Y-117673866D02*
X174714286Y-117864342D01*
X174714286Y-117864342D02*
X174761905Y-117959580D01*
X174761905Y-117959580D02*
X174809524Y-118007200D01*
X174809524Y-118007200D02*
X174904762Y-118054819D01*
X174904762Y-118054819D02*
X175095238Y-118054819D01*
X175095238Y-118054819D02*
X175190476Y-118007200D01*
X175190476Y-118007200D02*
X175238095Y-117959580D01*
X175238095Y-117959580D02*
X175285714Y-117864342D01*
X175285714Y-117864342D02*
X175285714Y-117673866D01*
X175285714Y-117673866D02*
X175238095Y-117578628D01*
X175238095Y-117578628D02*
X175190476Y-117531009D01*
X175190476Y-117531009D02*
X175095238Y-117483390D01*
D11*
X150209800Y-127933332D02*
X150257419Y-127790475D01*
X150257419Y-127790475D02*
X150257419Y-127552380D01*
X150257419Y-127552380D02*
X150209800Y-127457142D01*
X150209800Y-127457142D02*
X150162180Y-127409523D01*
X150162180Y-127409523D02*
X150066942Y-127361904D01*
X150066942Y-127361904D02*
X149971704Y-127361904D01*
X149971704Y-127361904D02*
X149876466Y-127409523D01*
X149876466Y-127409523D02*
X149828847Y-127457142D01*
X149828847Y-127457142D02*
X149781228Y-127552380D01*
X149781228Y-127552380D02*
X149733609Y-127742856D01*
X149733609Y-127742856D02*
X149685990Y-127838094D01*
X149685990Y-127838094D02*
X149638371Y-127885713D01*
X149638371Y-127885713D02*
X149543133Y-127933332D01*
X149543133Y-127933332D02*
X149447895Y-127933332D01*
X149447895Y-127933332D02*
X149352657Y-127885713D01*
X149352657Y-127885713D02*
X149305038Y-127838094D01*
X149305038Y-127838094D02*
X149257419Y-127742856D01*
X149257419Y-127742856D02*
X149257419Y-127504761D01*
X149257419Y-127504761D02*
X149305038Y-127361904D01*
X149257419Y-127028570D02*
X150257419Y-126790475D01*
X150257419Y-126790475D02*
X149543133Y-126599999D01*
X149543133Y-126599999D02*
X150257419Y-126409523D01*
X150257419Y-126409523D02*
X149257419Y-126171428D01*
X149257419Y-125885713D02*
X149257419Y-125219047D01*
X149257419Y-125219047D02*
X150257419Y-125647618D01*
D10*
X172488095Y-89804819D02*
X172488095Y-90614342D01*
X172488095Y-90614342D02*
X172535714Y-90709580D01*
X172535714Y-90709580D02*
X172583333Y-90757200D01*
X172583333Y-90757200D02*
X172678571Y-90804819D01*
X172678571Y-90804819D02*
X172869047Y-90804819D01*
X172869047Y-90804819D02*
X172964285Y-90757200D01*
X172964285Y-90757200D02*
X173011904Y-90709580D01*
X173011904Y-90709580D02*
X173059523Y-90614342D01*
X173059523Y-90614342D02*
X173059523Y-89804819D01*
X173678571Y-90233390D02*
X173583333Y-90185771D01*
X173583333Y-90185771D02*
X173535714Y-90138152D01*
X173535714Y-90138152D02*
X173488095Y-90042914D01*
X173488095Y-90042914D02*
X173488095Y-89995295D01*
X173488095Y-89995295D02*
X173535714Y-89900057D01*
X173535714Y-89900057D02*
X173583333Y-89852438D01*
X173583333Y-89852438D02*
X173678571Y-89804819D01*
X173678571Y-89804819D02*
X173869047Y-89804819D01*
X173869047Y-89804819D02*
X173964285Y-89852438D01*
X173964285Y-89852438D02*
X174011904Y-89900057D01*
X174011904Y-89900057D02*
X174059523Y-89995295D01*
X174059523Y-89995295D02*
X174059523Y-90042914D01*
X174059523Y-90042914D02*
X174011904Y-90138152D01*
X174011904Y-90138152D02*
X173964285Y-90185771D01*
X173964285Y-90185771D02*
X173869047Y-90233390D01*
X173869047Y-90233390D02*
X173678571Y-90233390D01*
X173678571Y-90233390D02*
X173583333Y-90281009D01*
X173583333Y-90281009D02*
X173535714Y-90328628D01*
X173535714Y-90328628D02*
X173488095Y-90423866D01*
X173488095Y-90423866D02*
X173488095Y-90614342D01*
X173488095Y-90614342D02*
X173535714Y-90709580D01*
X173535714Y-90709580D02*
X173583333Y-90757200D01*
X173583333Y-90757200D02*
X173678571Y-90804819D01*
X173678571Y-90804819D02*
X173869047Y-90804819D01*
X173869047Y-90804819D02*
X173964285Y-90757200D01*
X173964285Y-90757200D02*
X174011904Y-90709580D01*
X174011904Y-90709580D02*
X174059523Y-90614342D01*
X174059523Y-90614342D02*
X174059523Y-90423866D01*
X174059523Y-90423866D02*
X174011904Y-90328628D01*
X174011904Y-90328628D02*
X173964285Y-90281009D01*
X173964285Y-90281009D02*
X173869047Y-90233390D01*
X122183333Y-133054819D02*
X121850000Y-132578628D01*
X121611905Y-133054819D02*
X121611905Y-132054819D01*
X121611905Y-132054819D02*
X121992857Y-132054819D01*
X121992857Y-132054819D02*
X122088095Y-132102438D01*
X122088095Y-132102438D02*
X122135714Y-132150057D01*
X122135714Y-132150057D02*
X122183333Y-132245295D01*
X122183333Y-132245295D02*
X122183333Y-132388152D01*
X122183333Y-132388152D02*
X122135714Y-132483390D01*
X122135714Y-132483390D02*
X122088095Y-132531009D01*
X122088095Y-132531009D02*
X121992857Y-132578628D01*
X121992857Y-132578628D02*
X121611905Y-132578628D01*
X122564286Y-132150057D02*
X122611905Y-132102438D01*
X122611905Y-132102438D02*
X122707143Y-132054819D01*
X122707143Y-132054819D02*
X122945238Y-132054819D01*
X122945238Y-132054819D02*
X123040476Y-132102438D01*
X123040476Y-132102438D02*
X123088095Y-132150057D01*
X123088095Y-132150057D02*
X123135714Y-132245295D01*
X123135714Y-132245295D02*
X123135714Y-132340533D01*
X123135714Y-132340533D02*
X123088095Y-132483390D01*
X123088095Y-132483390D02*
X122516667Y-133054819D01*
X122516667Y-133054819D02*
X123135714Y-133054819D01*
X125783333Y-120854819D02*
X125450000Y-120378628D01*
X125211905Y-120854819D02*
X125211905Y-119854819D01*
X125211905Y-119854819D02*
X125592857Y-119854819D01*
X125592857Y-119854819D02*
X125688095Y-119902438D01*
X125688095Y-119902438D02*
X125735714Y-119950057D01*
X125735714Y-119950057D02*
X125783333Y-120045295D01*
X125783333Y-120045295D02*
X125783333Y-120188152D01*
X125783333Y-120188152D02*
X125735714Y-120283390D01*
X125735714Y-120283390D02*
X125688095Y-120331009D01*
X125688095Y-120331009D02*
X125592857Y-120378628D01*
X125592857Y-120378628D02*
X125211905Y-120378628D01*
X126640476Y-120188152D02*
X126640476Y-120854819D01*
X126402381Y-119807200D02*
X126164286Y-120521485D01*
X126164286Y-120521485D02*
X126783333Y-120521485D01*
X180704819Y-77892857D02*
X180228628Y-78226190D01*
X180704819Y-78464285D02*
X179704819Y-78464285D01*
X179704819Y-78464285D02*
X179704819Y-78083333D01*
X179704819Y-78083333D02*
X179752438Y-77988095D01*
X179752438Y-77988095D02*
X179800057Y-77940476D01*
X179800057Y-77940476D02*
X179895295Y-77892857D01*
X179895295Y-77892857D02*
X180038152Y-77892857D01*
X180038152Y-77892857D02*
X180133390Y-77940476D01*
X180133390Y-77940476D02*
X180181009Y-77988095D01*
X180181009Y-77988095D02*
X180228628Y-78083333D01*
X180228628Y-78083333D02*
X180228628Y-78464285D01*
X180704819Y-76940476D02*
X180704819Y-77511904D01*
X180704819Y-77226190D02*
X179704819Y-77226190D01*
X179704819Y-77226190D02*
X179847676Y-77321428D01*
X179847676Y-77321428D02*
X179942914Y-77416666D01*
X179942914Y-77416666D02*
X179990533Y-77511904D01*
X179704819Y-76607142D02*
X179704819Y-75988095D01*
X179704819Y-75988095D02*
X180085771Y-76321428D01*
X180085771Y-76321428D02*
X180085771Y-76178571D01*
X180085771Y-76178571D02*
X180133390Y-76083333D01*
X180133390Y-76083333D02*
X180181009Y-76035714D01*
X180181009Y-76035714D02*
X180276247Y-75988095D01*
X180276247Y-75988095D02*
X180514342Y-75988095D01*
X180514342Y-75988095D02*
X180609580Y-76035714D01*
X180609580Y-76035714D02*
X180657200Y-76083333D01*
X180657200Y-76083333D02*
X180704819Y-76178571D01*
X180704819Y-76178571D02*
X180704819Y-76464285D01*
X180704819Y-76464285D02*
X180657200Y-76559523D01*
X180657200Y-76559523D02*
X180609580Y-76607142D01*
X81869819Y-94933333D02*
X82584104Y-94933333D01*
X82584104Y-94933333D02*
X82726961Y-94980952D01*
X82726961Y-94980952D02*
X82822200Y-95076190D01*
X82822200Y-95076190D02*
X82869819Y-95219047D01*
X82869819Y-95219047D02*
X82869819Y-95314285D01*
X81965057Y-94504761D02*
X81917438Y-94457142D01*
X81917438Y-94457142D02*
X81869819Y-94361904D01*
X81869819Y-94361904D02*
X81869819Y-94123809D01*
X81869819Y-94123809D02*
X81917438Y-94028571D01*
X81917438Y-94028571D02*
X81965057Y-93980952D01*
X81965057Y-93980952D02*
X82060295Y-93933333D01*
X82060295Y-93933333D02*
X82155533Y-93933333D01*
X82155533Y-93933333D02*
X82298390Y-93980952D01*
X82298390Y-93980952D02*
X82869819Y-94552380D01*
X82869819Y-94552380D02*
X82869819Y-93933333D01*
X157229819Y-84583333D02*
X157944104Y-84583333D01*
X157944104Y-84583333D02*
X158086961Y-84630952D01*
X158086961Y-84630952D02*
X158182200Y-84726190D01*
X158182200Y-84726190D02*
X158229819Y-84869047D01*
X158229819Y-84869047D02*
X158229819Y-84964285D01*
X157229819Y-84202380D02*
X157229819Y-83583333D01*
X157229819Y-83583333D02*
X157610771Y-83916666D01*
X157610771Y-83916666D02*
X157610771Y-83773809D01*
X157610771Y-83773809D02*
X157658390Y-83678571D01*
X157658390Y-83678571D02*
X157706009Y-83630952D01*
X157706009Y-83630952D02*
X157801247Y-83583333D01*
X157801247Y-83583333D02*
X158039342Y-83583333D01*
X158039342Y-83583333D02*
X158134580Y-83630952D01*
X158134580Y-83630952D02*
X158182200Y-83678571D01*
X158182200Y-83678571D02*
X158229819Y-83773809D01*
X158229819Y-83773809D02*
X158229819Y-84059523D01*
X158229819Y-84059523D02*
X158182200Y-84154761D01*
X158182200Y-84154761D02*
X158134580Y-84202380D01*
X124107142Y-105104819D02*
X123773809Y-104628628D01*
X123535714Y-105104819D02*
X123535714Y-104104819D01*
X123535714Y-104104819D02*
X123916666Y-104104819D01*
X123916666Y-104104819D02*
X124011904Y-104152438D01*
X124011904Y-104152438D02*
X124059523Y-104200057D01*
X124059523Y-104200057D02*
X124107142Y-104295295D01*
X124107142Y-104295295D02*
X124107142Y-104438152D01*
X124107142Y-104438152D02*
X124059523Y-104533390D01*
X124059523Y-104533390D02*
X124011904Y-104581009D01*
X124011904Y-104581009D02*
X123916666Y-104628628D01*
X123916666Y-104628628D02*
X123535714Y-104628628D01*
X124488095Y-104200057D02*
X124535714Y-104152438D01*
X124535714Y-104152438D02*
X124630952Y-104104819D01*
X124630952Y-104104819D02*
X124869047Y-104104819D01*
X124869047Y-104104819D02*
X124964285Y-104152438D01*
X124964285Y-104152438D02*
X125011904Y-104200057D01*
X125011904Y-104200057D02*
X125059523Y-104295295D01*
X125059523Y-104295295D02*
X125059523Y-104390533D01*
X125059523Y-104390533D02*
X125011904Y-104533390D01*
X125011904Y-104533390D02*
X124440476Y-105104819D01*
X124440476Y-105104819D02*
X125059523Y-105104819D01*
X125916666Y-104104819D02*
X125726190Y-104104819D01*
X125726190Y-104104819D02*
X125630952Y-104152438D01*
X125630952Y-104152438D02*
X125583333Y-104200057D01*
X125583333Y-104200057D02*
X125488095Y-104342914D01*
X125488095Y-104342914D02*
X125440476Y-104533390D01*
X125440476Y-104533390D02*
X125440476Y-104914342D01*
X125440476Y-104914342D02*
X125488095Y-105009580D01*
X125488095Y-105009580D02*
X125535714Y-105057200D01*
X125535714Y-105057200D02*
X125630952Y-105104819D01*
X125630952Y-105104819D02*
X125821428Y-105104819D01*
X125821428Y-105104819D02*
X125916666Y-105057200D01*
X125916666Y-105057200D02*
X125964285Y-105009580D01*
X125964285Y-105009580D02*
X126011904Y-104914342D01*
X126011904Y-104914342D02*
X126011904Y-104676247D01*
X126011904Y-104676247D02*
X125964285Y-104581009D01*
X125964285Y-104581009D02*
X125916666Y-104533390D01*
X125916666Y-104533390D02*
X125821428Y-104485771D01*
X125821428Y-104485771D02*
X125630952Y-104485771D01*
X125630952Y-104485771D02*
X125535714Y-104533390D01*
X125535714Y-104533390D02*
X125488095Y-104581009D01*
X125488095Y-104581009D02*
X125440476Y-104676247D01*
X171061905Y-105374819D02*
X171061905Y-104374819D01*
X171061905Y-104374819D02*
X171300000Y-104374819D01*
X171300000Y-104374819D02*
X171442857Y-104422438D01*
X171442857Y-104422438D02*
X171538095Y-104517676D01*
X171538095Y-104517676D02*
X171585714Y-104612914D01*
X171585714Y-104612914D02*
X171633333Y-104803390D01*
X171633333Y-104803390D02*
X171633333Y-104946247D01*
X171633333Y-104946247D02*
X171585714Y-105136723D01*
X171585714Y-105136723D02*
X171538095Y-105231961D01*
X171538095Y-105231961D02*
X171442857Y-105327200D01*
X171442857Y-105327200D02*
X171300000Y-105374819D01*
X171300000Y-105374819D02*
X171061905Y-105374819D01*
X172014286Y-104470057D02*
X172061905Y-104422438D01*
X172061905Y-104422438D02*
X172157143Y-104374819D01*
X172157143Y-104374819D02*
X172395238Y-104374819D01*
X172395238Y-104374819D02*
X172490476Y-104422438D01*
X172490476Y-104422438D02*
X172538095Y-104470057D01*
X172538095Y-104470057D02*
X172585714Y-104565295D01*
X172585714Y-104565295D02*
X172585714Y-104660533D01*
X172585714Y-104660533D02*
X172538095Y-104803390D01*
X172538095Y-104803390D02*
X171966667Y-105374819D01*
X171966667Y-105374819D02*
X172585714Y-105374819D01*
X184209580Y-80767857D02*
X184257200Y-80815476D01*
X184257200Y-80815476D02*
X184304819Y-80958333D01*
X184304819Y-80958333D02*
X184304819Y-81053571D01*
X184304819Y-81053571D02*
X184257200Y-81196428D01*
X184257200Y-81196428D02*
X184161961Y-81291666D01*
X184161961Y-81291666D02*
X184066723Y-81339285D01*
X184066723Y-81339285D02*
X183876247Y-81386904D01*
X183876247Y-81386904D02*
X183733390Y-81386904D01*
X183733390Y-81386904D02*
X183542914Y-81339285D01*
X183542914Y-81339285D02*
X183447676Y-81291666D01*
X183447676Y-81291666D02*
X183352438Y-81196428D01*
X183352438Y-81196428D02*
X183304819Y-81053571D01*
X183304819Y-81053571D02*
X183304819Y-80958333D01*
X183304819Y-80958333D02*
X183352438Y-80815476D01*
X183352438Y-80815476D02*
X183400057Y-80767857D01*
X184304819Y-79815476D02*
X184304819Y-80386904D01*
X184304819Y-80101190D02*
X183304819Y-80101190D01*
X183304819Y-80101190D02*
X183447676Y-80196428D01*
X183447676Y-80196428D02*
X183542914Y-80291666D01*
X183542914Y-80291666D02*
X183590533Y-80386904D01*
X183304819Y-78910714D02*
X183304819Y-79386904D01*
X183304819Y-79386904D02*
X183781009Y-79434523D01*
X183781009Y-79434523D02*
X183733390Y-79386904D01*
X183733390Y-79386904D02*
X183685771Y-79291666D01*
X183685771Y-79291666D02*
X183685771Y-79053571D01*
X183685771Y-79053571D02*
X183733390Y-78958333D01*
X183733390Y-78958333D02*
X183781009Y-78910714D01*
X183781009Y-78910714D02*
X183876247Y-78863095D01*
X183876247Y-78863095D02*
X184114342Y-78863095D01*
X184114342Y-78863095D02*
X184209580Y-78910714D01*
X184209580Y-78910714D02*
X184257200Y-78958333D01*
X184257200Y-78958333D02*
X184304819Y-79053571D01*
X184304819Y-79053571D02*
X184304819Y-79291666D01*
X184304819Y-79291666D02*
X184257200Y-79386904D01*
X184257200Y-79386904D02*
X184209580Y-79434523D01*
X157207142Y-119854819D02*
X156873809Y-119378628D01*
X156635714Y-119854819D02*
X156635714Y-118854819D01*
X156635714Y-118854819D02*
X157016666Y-118854819D01*
X157016666Y-118854819D02*
X157111904Y-118902438D01*
X157111904Y-118902438D02*
X157159523Y-118950057D01*
X157159523Y-118950057D02*
X157207142Y-119045295D01*
X157207142Y-119045295D02*
X157207142Y-119188152D01*
X157207142Y-119188152D02*
X157159523Y-119283390D01*
X157159523Y-119283390D02*
X157111904Y-119331009D01*
X157111904Y-119331009D02*
X157016666Y-119378628D01*
X157016666Y-119378628D02*
X156635714Y-119378628D01*
X157540476Y-118854819D02*
X158159523Y-118854819D01*
X158159523Y-118854819D02*
X157826190Y-119235771D01*
X157826190Y-119235771D02*
X157969047Y-119235771D01*
X157969047Y-119235771D02*
X158064285Y-119283390D01*
X158064285Y-119283390D02*
X158111904Y-119331009D01*
X158111904Y-119331009D02*
X158159523Y-119426247D01*
X158159523Y-119426247D02*
X158159523Y-119664342D01*
X158159523Y-119664342D02*
X158111904Y-119759580D01*
X158111904Y-119759580D02*
X158064285Y-119807200D01*
X158064285Y-119807200D02*
X157969047Y-119854819D01*
X157969047Y-119854819D02*
X157683333Y-119854819D01*
X157683333Y-119854819D02*
X157588095Y-119807200D01*
X157588095Y-119807200D02*
X157540476Y-119759580D01*
X159111904Y-119854819D02*
X158540476Y-119854819D01*
X158826190Y-119854819D02*
X158826190Y-118854819D01*
X158826190Y-118854819D02*
X158730952Y-118997676D01*
X158730952Y-118997676D02*
X158635714Y-119092914D01*
X158635714Y-119092914D02*
X158540476Y-119140533D01*
X120034819Y-84742857D02*
X119558628Y-85076190D01*
X120034819Y-85314285D02*
X119034819Y-85314285D01*
X119034819Y-85314285D02*
X119034819Y-84933333D01*
X119034819Y-84933333D02*
X119082438Y-84838095D01*
X119082438Y-84838095D02*
X119130057Y-84790476D01*
X119130057Y-84790476D02*
X119225295Y-84742857D01*
X119225295Y-84742857D02*
X119368152Y-84742857D01*
X119368152Y-84742857D02*
X119463390Y-84790476D01*
X119463390Y-84790476D02*
X119511009Y-84838095D01*
X119511009Y-84838095D02*
X119558628Y-84933333D01*
X119558628Y-84933333D02*
X119558628Y-85314285D01*
X120034819Y-83790476D02*
X120034819Y-84361904D01*
X120034819Y-84076190D02*
X119034819Y-84076190D01*
X119034819Y-84076190D02*
X119177676Y-84171428D01*
X119177676Y-84171428D02*
X119272914Y-84266666D01*
X119272914Y-84266666D02*
X119320533Y-84361904D01*
X119034819Y-82933333D02*
X119034819Y-83123809D01*
X119034819Y-83123809D02*
X119082438Y-83219047D01*
X119082438Y-83219047D02*
X119130057Y-83266666D01*
X119130057Y-83266666D02*
X119272914Y-83361904D01*
X119272914Y-83361904D02*
X119463390Y-83409523D01*
X119463390Y-83409523D02*
X119844342Y-83409523D01*
X119844342Y-83409523D02*
X119939580Y-83361904D01*
X119939580Y-83361904D02*
X119987200Y-83314285D01*
X119987200Y-83314285D02*
X120034819Y-83219047D01*
X120034819Y-83219047D02*
X120034819Y-83028571D01*
X120034819Y-83028571D02*
X119987200Y-82933333D01*
X119987200Y-82933333D02*
X119939580Y-82885714D01*
X119939580Y-82885714D02*
X119844342Y-82838095D01*
X119844342Y-82838095D02*
X119606247Y-82838095D01*
X119606247Y-82838095D02*
X119511009Y-82885714D01*
X119511009Y-82885714D02*
X119463390Y-82933333D01*
X119463390Y-82933333D02*
X119415771Y-83028571D01*
X119415771Y-83028571D02*
X119415771Y-83219047D01*
X119415771Y-83219047D02*
X119463390Y-83314285D01*
X119463390Y-83314285D02*
X119511009Y-83361904D01*
X119511009Y-83361904D02*
X119606247Y-83409523D01*
X114109580Y-119892857D02*
X114157200Y-119940476D01*
X114157200Y-119940476D02*
X114204819Y-120083333D01*
X114204819Y-120083333D02*
X114204819Y-120178571D01*
X114204819Y-120178571D02*
X114157200Y-120321428D01*
X114157200Y-120321428D02*
X114061961Y-120416666D01*
X114061961Y-120416666D02*
X113966723Y-120464285D01*
X113966723Y-120464285D02*
X113776247Y-120511904D01*
X113776247Y-120511904D02*
X113633390Y-120511904D01*
X113633390Y-120511904D02*
X113442914Y-120464285D01*
X113442914Y-120464285D02*
X113347676Y-120416666D01*
X113347676Y-120416666D02*
X113252438Y-120321428D01*
X113252438Y-120321428D02*
X113204819Y-120178571D01*
X113204819Y-120178571D02*
X113204819Y-120083333D01*
X113204819Y-120083333D02*
X113252438Y-119940476D01*
X113252438Y-119940476D02*
X113300057Y-119892857D01*
X113300057Y-119511904D02*
X113252438Y-119464285D01*
X113252438Y-119464285D02*
X113204819Y-119369047D01*
X113204819Y-119369047D02*
X113204819Y-119130952D01*
X113204819Y-119130952D02*
X113252438Y-119035714D01*
X113252438Y-119035714D02*
X113300057Y-118988095D01*
X113300057Y-118988095D02*
X113395295Y-118940476D01*
X113395295Y-118940476D02*
X113490533Y-118940476D01*
X113490533Y-118940476D02*
X113633390Y-118988095D01*
X113633390Y-118988095D02*
X114204819Y-119559523D01*
X114204819Y-119559523D02*
X114204819Y-118940476D01*
X113204819Y-118607142D02*
X113204819Y-117988095D01*
X113204819Y-117988095D02*
X113585771Y-118321428D01*
X113585771Y-118321428D02*
X113585771Y-118178571D01*
X113585771Y-118178571D02*
X113633390Y-118083333D01*
X113633390Y-118083333D02*
X113681009Y-118035714D01*
X113681009Y-118035714D02*
X113776247Y-117988095D01*
X113776247Y-117988095D02*
X114014342Y-117988095D01*
X114014342Y-117988095D02*
X114109580Y-118035714D01*
X114109580Y-118035714D02*
X114157200Y-118083333D01*
X114157200Y-118083333D02*
X114204819Y-118178571D01*
X114204819Y-118178571D02*
X114204819Y-118464285D01*
X114204819Y-118464285D02*
X114157200Y-118559523D01*
X114157200Y-118559523D02*
X114109580Y-118607142D01*
X120504819Y-113142857D02*
X120028628Y-113476190D01*
X120504819Y-113714285D02*
X119504819Y-113714285D01*
X119504819Y-113714285D02*
X119504819Y-113333333D01*
X119504819Y-113333333D02*
X119552438Y-113238095D01*
X119552438Y-113238095D02*
X119600057Y-113190476D01*
X119600057Y-113190476D02*
X119695295Y-113142857D01*
X119695295Y-113142857D02*
X119838152Y-113142857D01*
X119838152Y-113142857D02*
X119933390Y-113190476D01*
X119933390Y-113190476D02*
X119981009Y-113238095D01*
X119981009Y-113238095D02*
X120028628Y-113333333D01*
X120028628Y-113333333D02*
X120028628Y-113714285D01*
X120504819Y-112190476D02*
X120504819Y-112761904D01*
X120504819Y-112476190D02*
X119504819Y-112476190D01*
X119504819Y-112476190D02*
X119647676Y-112571428D01*
X119647676Y-112571428D02*
X119742914Y-112666666D01*
X119742914Y-112666666D02*
X119790533Y-112761904D01*
X119933390Y-111619047D02*
X119885771Y-111714285D01*
X119885771Y-111714285D02*
X119838152Y-111761904D01*
X119838152Y-111761904D02*
X119742914Y-111809523D01*
X119742914Y-111809523D02*
X119695295Y-111809523D01*
X119695295Y-111809523D02*
X119600057Y-111761904D01*
X119600057Y-111761904D02*
X119552438Y-111714285D01*
X119552438Y-111714285D02*
X119504819Y-111619047D01*
X119504819Y-111619047D02*
X119504819Y-111428571D01*
X119504819Y-111428571D02*
X119552438Y-111333333D01*
X119552438Y-111333333D02*
X119600057Y-111285714D01*
X119600057Y-111285714D02*
X119695295Y-111238095D01*
X119695295Y-111238095D02*
X119742914Y-111238095D01*
X119742914Y-111238095D02*
X119838152Y-111285714D01*
X119838152Y-111285714D02*
X119885771Y-111333333D01*
X119885771Y-111333333D02*
X119933390Y-111428571D01*
X119933390Y-111428571D02*
X119933390Y-111619047D01*
X119933390Y-111619047D02*
X119981009Y-111714285D01*
X119981009Y-111714285D02*
X120028628Y-111761904D01*
X120028628Y-111761904D02*
X120123866Y-111809523D01*
X120123866Y-111809523D02*
X120314342Y-111809523D01*
X120314342Y-111809523D02*
X120409580Y-111761904D01*
X120409580Y-111761904D02*
X120457200Y-111714285D01*
X120457200Y-111714285D02*
X120504819Y-111619047D01*
X120504819Y-111619047D02*
X120504819Y-111428571D01*
X120504819Y-111428571D02*
X120457200Y-111333333D01*
X120457200Y-111333333D02*
X120409580Y-111285714D01*
X120409580Y-111285714D02*
X120314342Y-111238095D01*
X120314342Y-111238095D02*
X120123866Y-111238095D01*
X120123866Y-111238095D02*
X120028628Y-111285714D01*
X120028628Y-111285714D02*
X119981009Y-111333333D01*
X119981009Y-111333333D02*
X119933390Y-111428571D01*
X185307142Y-83004819D02*
X184973809Y-82528628D01*
X184735714Y-83004819D02*
X184735714Y-82004819D01*
X184735714Y-82004819D02*
X185116666Y-82004819D01*
X185116666Y-82004819D02*
X185211904Y-82052438D01*
X185211904Y-82052438D02*
X185259523Y-82100057D01*
X185259523Y-82100057D02*
X185307142Y-82195295D01*
X185307142Y-82195295D02*
X185307142Y-82338152D01*
X185307142Y-82338152D02*
X185259523Y-82433390D01*
X185259523Y-82433390D02*
X185211904Y-82481009D01*
X185211904Y-82481009D02*
X185116666Y-82528628D01*
X185116666Y-82528628D02*
X184735714Y-82528628D01*
X186259523Y-83004819D02*
X185688095Y-83004819D01*
X185973809Y-83004819D02*
X185973809Y-82004819D01*
X185973809Y-82004819D02*
X185878571Y-82147676D01*
X185878571Y-82147676D02*
X185783333Y-82242914D01*
X185783333Y-82242914D02*
X185688095Y-82290533D01*
X186640476Y-82100057D02*
X186688095Y-82052438D01*
X186688095Y-82052438D02*
X186783333Y-82004819D01*
X186783333Y-82004819D02*
X187021428Y-82004819D01*
X187021428Y-82004819D02*
X187116666Y-82052438D01*
X187116666Y-82052438D02*
X187164285Y-82100057D01*
X187164285Y-82100057D02*
X187211904Y-82195295D01*
X187211904Y-82195295D02*
X187211904Y-82290533D01*
X187211904Y-82290533D02*
X187164285Y-82433390D01*
X187164285Y-82433390D02*
X186592857Y-83004819D01*
X186592857Y-83004819D02*
X187211904Y-83004819D01*
X99654819Y-84592857D02*
X99178628Y-84926190D01*
X99654819Y-85164285D02*
X98654819Y-85164285D01*
X98654819Y-85164285D02*
X98654819Y-84783333D01*
X98654819Y-84783333D02*
X98702438Y-84688095D01*
X98702438Y-84688095D02*
X98750057Y-84640476D01*
X98750057Y-84640476D02*
X98845295Y-84592857D01*
X98845295Y-84592857D02*
X98988152Y-84592857D01*
X98988152Y-84592857D02*
X99083390Y-84640476D01*
X99083390Y-84640476D02*
X99131009Y-84688095D01*
X99131009Y-84688095D02*
X99178628Y-84783333D01*
X99178628Y-84783333D02*
X99178628Y-85164285D01*
X99654819Y-83640476D02*
X99654819Y-84211904D01*
X99654819Y-83926190D02*
X98654819Y-83926190D01*
X98654819Y-83926190D02*
X98797676Y-84021428D01*
X98797676Y-84021428D02*
X98892914Y-84116666D01*
X98892914Y-84116666D02*
X98940533Y-84211904D01*
X98654819Y-83307142D02*
X98654819Y-82640476D01*
X98654819Y-82640476D02*
X99654819Y-83069047D01*
D11*
X152838095Y-92107419D02*
X152838095Y-92916942D01*
X152838095Y-92916942D02*
X152885714Y-93012180D01*
X152885714Y-93012180D02*
X152933333Y-93059800D01*
X152933333Y-93059800D02*
X153028571Y-93107419D01*
X153028571Y-93107419D02*
X153219047Y-93107419D01*
X153219047Y-93107419D02*
X153314285Y-93059800D01*
X153314285Y-93059800D02*
X153361904Y-93012180D01*
X153361904Y-93012180D02*
X153409523Y-92916942D01*
X153409523Y-92916942D02*
X153409523Y-92107419D01*
X153933333Y-93107419D02*
X154123809Y-93107419D01*
X154123809Y-93107419D02*
X154219047Y-93059800D01*
X154219047Y-93059800D02*
X154266666Y-93012180D01*
X154266666Y-93012180D02*
X154361904Y-92869323D01*
X154361904Y-92869323D02*
X154409523Y-92678847D01*
X154409523Y-92678847D02*
X154409523Y-92297895D01*
X154409523Y-92297895D02*
X154361904Y-92202657D01*
X154361904Y-92202657D02*
X154314285Y-92155038D01*
X154314285Y-92155038D02*
X154219047Y-92107419D01*
X154219047Y-92107419D02*
X154028571Y-92107419D01*
X154028571Y-92107419D02*
X153933333Y-92155038D01*
X153933333Y-92155038D02*
X153885714Y-92202657D01*
X153885714Y-92202657D02*
X153838095Y-92297895D01*
X153838095Y-92297895D02*
X153838095Y-92535990D01*
X153838095Y-92535990D02*
X153885714Y-92631228D01*
X153885714Y-92631228D02*
X153933333Y-92678847D01*
X153933333Y-92678847D02*
X154028571Y-92726466D01*
X154028571Y-92726466D02*
X154219047Y-92726466D01*
X154219047Y-92726466D02*
X154314285Y-92678847D01*
X154314285Y-92678847D02*
X154361904Y-92631228D01*
X154361904Y-92631228D02*
X154409523Y-92535990D01*
D10*
X143607142Y-123954819D02*
X143273809Y-123478628D01*
X143035714Y-123954819D02*
X143035714Y-122954819D01*
X143035714Y-122954819D02*
X143416666Y-122954819D01*
X143416666Y-122954819D02*
X143511904Y-123002438D01*
X143511904Y-123002438D02*
X143559523Y-123050057D01*
X143559523Y-123050057D02*
X143607142Y-123145295D01*
X143607142Y-123145295D02*
X143607142Y-123288152D01*
X143607142Y-123288152D02*
X143559523Y-123383390D01*
X143559523Y-123383390D02*
X143511904Y-123431009D01*
X143511904Y-123431009D02*
X143416666Y-123478628D01*
X143416666Y-123478628D02*
X143035714Y-123478628D01*
X143988095Y-123050057D02*
X144035714Y-123002438D01*
X144035714Y-123002438D02*
X144130952Y-122954819D01*
X144130952Y-122954819D02*
X144369047Y-122954819D01*
X144369047Y-122954819D02*
X144464285Y-123002438D01*
X144464285Y-123002438D02*
X144511904Y-123050057D01*
X144511904Y-123050057D02*
X144559523Y-123145295D01*
X144559523Y-123145295D02*
X144559523Y-123240533D01*
X144559523Y-123240533D02*
X144511904Y-123383390D01*
X144511904Y-123383390D02*
X143940476Y-123954819D01*
X143940476Y-123954819D02*
X144559523Y-123954819D01*
X145035714Y-123954819D02*
X145226190Y-123954819D01*
X145226190Y-123954819D02*
X145321428Y-123907200D01*
X145321428Y-123907200D02*
X145369047Y-123859580D01*
X145369047Y-123859580D02*
X145464285Y-123716723D01*
X145464285Y-123716723D02*
X145511904Y-123526247D01*
X145511904Y-123526247D02*
X145511904Y-123145295D01*
X145511904Y-123145295D02*
X145464285Y-123050057D01*
X145464285Y-123050057D02*
X145416666Y-123002438D01*
X145416666Y-123002438D02*
X145321428Y-122954819D01*
X145321428Y-122954819D02*
X145130952Y-122954819D01*
X145130952Y-122954819D02*
X145035714Y-123002438D01*
X145035714Y-123002438D02*
X144988095Y-123050057D01*
X144988095Y-123050057D02*
X144940476Y-123145295D01*
X144940476Y-123145295D02*
X144940476Y-123383390D01*
X144940476Y-123383390D02*
X144988095Y-123478628D01*
X144988095Y-123478628D02*
X145035714Y-123526247D01*
X145035714Y-123526247D02*
X145130952Y-123573866D01*
X145130952Y-123573866D02*
X145321428Y-123573866D01*
X145321428Y-123573866D02*
X145416666Y-123526247D01*
X145416666Y-123526247D02*
X145464285Y-123478628D01*
X145464285Y-123478628D02*
X145511904Y-123383390D01*
D11*
X184738095Y-85057419D02*
X184738095Y-85866942D01*
X184738095Y-85866942D02*
X184785714Y-85962180D01*
X184785714Y-85962180D02*
X184833333Y-86009800D01*
X184833333Y-86009800D02*
X184928571Y-86057419D01*
X184928571Y-86057419D02*
X185119047Y-86057419D01*
X185119047Y-86057419D02*
X185214285Y-86009800D01*
X185214285Y-86009800D02*
X185261904Y-85962180D01*
X185261904Y-85962180D02*
X185309523Y-85866942D01*
X185309523Y-85866942D02*
X185309523Y-85057419D01*
X185690476Y-85057419D02*
X186357142Y-85057419D01*
X186357142Y-85057419D02*
X185928571Y-86057419D01*
D10*
X97959580Y-93792857D02*
X98007200Y-93840476D01*
X98007200Y-93840476D02*
X98054819Y-93983333D01*
X98054819Y-93983333D02*
X98054819Y-94078571D01*
X98054819Y-94078571D02*
X98007200Y-94221428D01*
X98007200Y-94221428D02*
X97911961Y-94316666D01*
X97911961Y-94316666D02*
X97816723Y-94364285D01*
X97816723Y-94364285D02*
X97626247Y-94411904D01*
X97626247Y-94411904D02*
X97483390Y-94411904D01*
X97483390Y-94411904D02*
X97292914Y-94364285D01*
X97292914Y-94364285D02*
X97197676Y-94316666D01*
X97197676Y-94316666D02*
X97102438Y-94221428D01*
X97102438Y-94221428D02*
X97054819Y-94078571D01*
X97054819Y-94078571D02*
X97054819Y-93983333D01*
X97054819Y-93983333D02*
X97102438Y-93840476D01*
X97102438Y-93840476D02*
X97150057Y-93792857D01*
X97150057Y-93411904D02*
X97102438Y-93364285D01*
X97102438Y-93364285D02*
X97054819Y-93269047D01*
X97054819Y-93269047D02*
X97054819Y-93030952D01*
X97054819Y-93030952D02*
X97102438Y-92935714D01*
X97102438Y-92935714D02*
X97150057Y-92888095D01*
X97150057Y-92888095D02*
X97245295Y-92840476D01*
X97245295Y-92840476D02*
X97340533Y-92840476D01*
X97340533Y-92840476D02*
X97483390Y-92888095D01*
X97483390Y-92888095D02*
X98054819Y-93459523D01*
X98054819Y-93459523D02*
X98054819Y-92840476D01*
X97150057Y-92459523D02*
X97102438Y-92411904D01*
X97102438Y-92411904D02*
X97054819Y-92316666D01*
X97054819Y-92316666D02*
X97054819Y-92078571D01*
X97054819Y-92078571D02*
X97102438Y-91983333D01*
X97102438Y-91983333D02*
X97150057Y-91935714D01*
X97150057Y-91935714D02*
X97245295Y-91888095D01*
X97245295Y-91888095D02*
X97340533Y-91888095D01*
X97340533Y-91888095D02*
X97483390Y-91935714D01*
X97483390Y-91935714D02*
X98054819Y-92507142D01*
X98054819Y-92507142D02*
X98054819Y-91888095D01*
X122159580Y-94592857D02*
X122207200Y-94640476D01*
X122207200Y-94640476D02*
X122254819Y-94783333D01*
X122254819Y-94783333D02*
X122254819Y-94878571D01*
X122254819Y-94878571D02*
X122207200Y-95021428D01*
X122207200Y-95021428D02*
X122111961Y-95116666D01*
X122111961Y-95116666D02*
X122016723Y-95164285D01*
X122016723Y-95164285D02*
X121826247Y-95211904D01*
X121826247Y-95211904D02*
X121683390Y-95211904D01*
X121683390Y-95211904D02*
X121492914Y-95164285D01*
X121492914Y-95164285D02*
X121397676Y-95116666D01*
X121397676Y-95116666D02*
X121302438Y-95021428D01*
X121302438Y-95021428D02*
X121254819Y-94878571D01*
X121254819Y-94878571D02*
X121254819Y-94783333D01*
X121254819Y-94783333D02*
X121302438Y-94640476D01*
X121302438Y-94640476D02*
X121350057Y-94592857D01*
X121350057Y-94211904D02*
X121302438Y-94164285D01*
X121302438Y-94164285D02*
X121254819Y-94069047D01*
X121254819Y-94069047D02*
X121254819Y-93830952D01*
X121254819Y-93830952D02*
X121302438Y-93735714D01*
X121302438Y-93735714D02*
X121350057Y-93688095D01*
X121350057Y-93688095D02*
X121445295Y-93640476D01*
X121445295Y-93640476D02*
X121540533Y-93640476D01*
X121540533Y-93640476D02*
X121683390Y-93688095D01*
X121683390Y-93688095D02*
X122254819Y-94259523D01*
X122254819Y-94259523D02*
X122254819Y-93640476D01*
X122254819Y-92688095D02*
X122254819Y-93259523D01*
X122254819Y-92973809D02*
X121254819Y-92973809D01*
X121254819Y-92973809D02*
X121397676Y-93069047D01*
X121397676Y-93069047D02*
X121492914Y-93164285D01*
X121492914Y-93164285D02*
X121540533Y-93259523D01*
D11*
X104440200Y-78416667D02*
X104392580Y-78559524D01*
X104392580Y-78559524D02*
X104392580Y-78797619D01*
X104392580Y-78797619D02*
X104440200Y-78892857D01*
X104440200Y-78892857D02*
X104487819Y-78940476D01*
X104487819Y-78940476D02*
X104583057Y-78988095D01*
X104583057Y-78988095D02*
X104678295Y-78988095D01*
X104678295Y-78988095D02*
X104773533Y-78940476D01*
X104773533Y-78940476D02*
X104821152Y-78892857D01*
X104821152Y-78892857D02*
X104868771Y-78797619D01*
X104868771Y-78797619D02*
X104916390Y-78607143D01*
X104916390Y-78607143D02*
X104964009Y-78511905D01*
X104964009Y-78511905D02*
X105011628Y-78464286D01*
X105011628Y-78464286D02*
X105106866Y-78416667D01*
X105106866Y-78416667D02*
X105202104Y-78416667D01*
X105202104Y-78416667D02*
X105297342Y-78464286D01*
X105297342Y-78464286D02*
X105344961Y-78511905D01*
X105344961Y-78511905D02*
X105392580Y-78607143D01*
X105392580Y-78607143D02*
X105392580Y-78845238D01*
X105392580Y-78845238D02*
X105344961Y-78988095D01*
X105392580Y-79321429D02*
X104392580Y-79559524D01*
X104392580Y-79559524D02*
X105106866Y-79750000D01*
X105106866Y-79750000D02*
X104392580Y-79940476D01*
X104392580Y-79940476D02*
X105392580Y-80178572D01*
X105392580Y-80464286D02*
X105392580Y-81083333D01*
X105392580Y-81083333D02*
X105011628Y-80750000D01*
X105011628Y-80750000D02*
X105011628Y-80892857D01*
X105011628Y-80892857D02*
X104964009Y-80988095D01*
X104964009Y-80988095D02*
X104916390Y-81035714D01*
X104916390Y-81035714D02*
X104821152Y-81083333D01*
X104821152Y-81083333D02*
X104583057Y-81083333D01*
X104583057Y-81083333D02*
X104487819Y-81035714D01*
X104487819Y-81035714D02*
X104440200Y-80988095D01*
X104440200Y-80988095D02*
X104392580Y-80892857D01*
X104392580Y-80892857D02*
X104392580Y-80607143D01*
X104392580Y-80607143D02*
X104440200Y-80511905D01*
X104440200Y-80511905D02*
X104487819Y-80464286D01*
D10*
X138758095Y-125044819D02*
X138758095Y-125854342D01*
X138758095Y-125854342D02*
X138805714Y-125949580D01*
X138805714Y-125949580D02*
X138853333Y-125997200D01*
X138853333Y-125997200D02*
X138948571Y-126044819D01*
X138948571Y-126044819D02*
X139139047Y-126044819D01*
X139139047Y-126044819D02*
X139234285Y-125997200D01*
X139234285Y-125997200D02*
X139281904Y-125949580D01*
X139281904Y-125949580D02*
X139329523Y-125854342D01*
X139329523Y-125854342D02*
X139329523Y-125044819D01*
X140234285Y-125378152D02*
X140234285Y-126044819D01*
X139996190Y-124997200D02*
X139758095Y-125711485D01*
X139758095Y-125711485D02*
X140377142Y-125711485D01*
X101357142Y-105959580D02*
X101309523Y-106007200D01*
X101309523Y-106007200D02*
X101166666Y-106054819D01*
X101166666Y-106054819D02*
X101071428Y-106054819D01*
X101071428Y-106054819D02*
X100928571Y-106007200D01*
X100928571Y-106007200D02*
X100833333Y-105911961D01*
X100833333Y-105911961D02*
X100785714Y-105816723D01*
X100785714Y-105816723D02*
X100738095Y-105626247D01*
X100738095Y-105626247D02*
X100738095Y-105483390D01*
X100738095Y-105483390D02*
X100785714Y-105292914D01*
X100785714Y-105292914D02*
X100833333Y-105197676D01*
X100833333Y-105197676D02*
X100928571Y-105102438D01*
X100928571Y-105102438D02*
X101071428Y-105054819D01*
X101071428Y-105054819D02*
X101166666Y-105054819D01*
X101166666Y-105054819D02*
X101309523Y-105102438D01*
X101309523Y-105102438D02*
X101357142Y-105150057D01*
X102309523Y-106054819D02*
X101738095Y-106054819D01*
X102023809Y-106054819D02*
X102023809Y-105054819D01*
X102023809Y-105054819D02*
X101928571Y-105197676D01*
X101928571Y-105197676D02*
X101833333Y-105292914D01*
X101833333Y-105292914D02*
X101738095Y-105340533D01*
X102928571Y-105054819D02*
X103023809Y-105054819D01*
X103023809Y-105054819D02*
X103119047Y-105102438D01*
X103119047Y-105102438D02*
X103166666Y-105150057D01*
X103166666Y-105150057D02*
X103214285Y-105245295D01*
X103214285Y-105245295D02*
X103261904Y-105435771D01*
X103261904Y-105435771D02*
X103261904Y-105673866D01*
X103261904Y-105673866D02*
X103214285Y-105864342D01*
X103214285Y-105864342D02*
X103166666Y-105959580D01*
X103166666Y-105959580D02*
X103119047Y-106007200D01*
X103119047Y-106007200D02*
X103023809Y-106054819D01*
X103023809Y-106054819D02*
X102928571Y-106054819D01*
X102928571Y-106054819D02*
X102833333Y-106007200D01*
X102833333Y-106007200D02*
X102785714Y-105959580D01*
X102785714Y-105959580D02*
X102738095Y-105864342D01*
X102738095Y-105864342D02*
X102690476Y-105673866D01*
X102690476Y-105673866D02*
X102690476Y-105435771D01*
X102690476Y-105435771D02*
X102738095Y-105245295D01*
X102738095Y-105245295D02*
X102785714Y-105150057D01*
X102785714Y-105150057D02*
X102833333Y-105102438D01*
X102833333Y-105102438D02*
X102928571Y-105054819D01*
X104957142Y-122454819D02*
X104623809Y-121978628D01*
X104385714Y-122454819D02*
X104385714Y-121454819D01*
X104385714Y-121454819D02*
X104766666Y-121454819D01*
X104766666Y-121454819D02*
X104861904Y-121502438D01*
X104861904Y-121502438D02*
X104909523Y-121550057D01*
X104909523Y-121550057D02*
X104957142Y-121645295D01*
X104957142Y-121645295D02*
X104957142Y-121788152D01*
X104957142Y-121788152D02*
X104909523Y-121883390D01*
X104909523Y-121883390D02*
X104861904Y-121931009D01*
X104861904Y-121931009D02*
X104766666Y-121978628D01*
X104766666Y-121978628D02*
X104385714Y-121978628D01*
X105338095Y-121550057D02*
X105385714Y-121502438D01*
X105385714Y-121502438D02*
X105480952Y-121454819D01*
X105480952Y-121454819D02*
X105719047Y-121454819D01*
X105719047Y-121454819D02*
X105814285Y-121502438D01*
X105814285Y-121502438D02*
X105861904Y-121550057D01*
X105861904Y-121550057D02*
X105909523Y-121645295D01*
X105909523Y-121645295D02*
X105909523Y-121740533D01*
X105909523Y-121740533D02*
X105861904Y-121883390D01*
X105861904Y-121883390D02*
X105290476Y-122454819D01*
X105290476Y-122454819D02*
X105909523Y-122454819D01*
X106814285Y-121454819D02*
X106338095Y-121454819D01*
X106338095Y-121454819D02*
X106290476Y-121931009D01*
X106290476Y-121931009D02*
X106338095Y-121883390D01*
X106338095Y-121883390D02*
X106433333Y-121835771D01*
X106433333Y-121835771D02*
X106671428Y-121835771D01*
X106671428Y-121835771D02*
X106766666Y-121883390D01*
X106766666Y-121883390D02*
X106814285Y-121931009D01*
X106814285Y-121931009D02*
X106861904Y-122026247D01*
X106861904Y-122026247D02*
X106861904Y-122264342D01*
X106861904Y-122264342D02*
X106814285Y-122359580D01*
X106814285Y-122359580D02*
X106766666Y-122407200D01*
X106766666Y-122407200D02*
X106671428Y-122454819D01*
X106671428Y-122454819D02*
X106433333Y-122454819D01*
X106433333Y-122454819D02*
X106338095Y-122407200D01*
X106338095Y-122407200D02*
X106290476Y-122359580D01*
X93059580Y-107066666D02*
X93107200Y-107114285D01*
X93107200Y-107114285D02*
X93154819Y-107257142D01*
X93154819Y-107257142D02*
X93154819Y-107352380D01*
X93154819Y-107352380D02*
X93107200Y-107495237D01*
X93107200Y-107495237D02*
X93011961Y-107590475D01*
X93011961Y-107590475D02*
X92916723Y-107638094D01*
X92916723Y-107638094D02*
X92726247Y-107685713D01*
X92726247Y-107685713D02*
X92583390Y-107685713D01*
X92583390Y-107685713D02*
X92392914Y-107638094D01*
X92392914Y-107638094D02*
X92297676Y-107590475D01*
X92297676Y-107590475D02*
X92202438Y-107495237D01*
X92202438Y-107495237D02*
X92154819Y-107352380D01*
X92154819Y-107352380D02*
X92154819Y-107257142D01*
X92154819Y-107257142D02*
X92202438Y-107114285D01*
X92202438Y-107114285D02*
X92250057Y-107066666D01*
X93154819Y-106590475D02*
X93154819Y-106399999D01*
X93154819Y-106399999D02*
X93107200Y-106304761D01*
X93107200Y-106304761D02*
X93059580Y-106257142D01*
X93059580Y-106257142D02*
X92916723Y-106161904D01*
X92916723Y-106161904D02*
X92726247Y-106114285D01*
X92726247Y-106114285D02*
X92345295Y-106114285D01*
X92345295Y-106114285D02*
X92250057Y-106161904D01*
X92250057Y-106161904D02*
X92202438Y-106209523D01*
X92202438Y-106209523D02*
X92154819Y-106304761D01*
X92154819Y-106304761D02*
X92154819Y-106495237D01*
X92154819Y-106495237D02*
X92202438Y-106590475D01*
X92202438Y-106590475D02*
X92250057Y-106638094D01*
X92250057Y-106638094D02*
X92345295Y-106685713D01*
X92345295Y-106685713D02*
X92583390Y-106685713D01*
X92583390Y-106685713D02*
X92678628Y-106638094D01*
X92678628Y-106638094D02*
X92726247Y-106590475D01*
X92726247Y-106590475D02*
X92773866Y-106495237D01*
X92773866Y-106495237D02*
X92773866Y-106304761D01*
X92773866Y-106304761D02*
X92726247Y-106209523D01*
X92726247Y-106209523D02*
X92678628Y-106161904D01*
X92678628Y-106161904D02*
X92583390Y-106114285D01*
X178533333Y-130159580D02*
X178485714Y-130207200D01*
X178485714Y-130207200D02*
X178342857Y-130254819D01*
X178342857Y-130254819D02*
X178247619Y-130254819D01*
X178247619Y-130254819D02*
X178104762Y-130207200D01*
X178104762Y-130207200D02*
X178009524Y-130111961D01*
X178009524Y-130111961D02*
X177961905Y-130016723D01*
X177961905Y-130016723D02*
X177914286Y-129826247D01*
X177914286Y-129826247D02*
X177914286Y-129683390D01*
X177914286Y-129683390D02*
X177961905Y-129492914D01*
X177961905Y-129492914D02*
X178009524Y-129397676D01*
X178009524Y-129397676D02*
X178104762Y-129302438D01*
X178104762Y-129302438D02*
X178247619Y-129254819D01*
X178247619Y-129254819D02*
X178342857Y-129254819D01*
X178342857Y-129254819D02*
X178485714Y-129302438D01*
X178485714Y-129302438D02*
X178533333Y-129350057D01*
X179390476Y-129254819D02*
X179200000Y-129254819D01*
X179200000Y-129254819D02*
X179104762Y-129302438D01*
X179104762Y-129302438D02*
X179057143Y-129350057D01*
X179057143Y-129350057D02*
X178961905Y-129492914D01*
X178961905Y-129492914D02*
X178914286Y-129683390D01*
X178914286Y-129683390D02*
X178914286Y-130064342D01*
X178914286Y-130064342D02*
X178961905Y-130159580D01*
X178961905Y-130159580D02*
X179009524Y-130207200D01*
X179009524Y-130207200D02*
X179104762Y-130254819D01*
X179104762Y-130254819D02*
X179295238Y-130254819D01*
X179295238Y-130254819D02*
X179390476Y-130207200D01*
X179390476Y-130207200D02*
X179438095Y-130159580D01*
X179438095Y-130159580D02*
X179485714Y-130064342D01*
X179485714Y-130064342D02*
X179485714Y-129826247D01*
X179485714Y-129826247D02*
X179438095Y-129731009D01*
X179438095Y-129731009D02*
X179390476Y-129683390D01*
X179390476Y-129683390D02*
X179295238Y-129635771D01*
X179295238Y-129635771D02*
X179104762Y-129635771D01*
X179104762Y-129635771D02*
X179009524Y-129683390D01*
X179009524Y-129683390D02*
X178961905Y-129731009D01*
X178961905Y-129731009D02*
X178914286Y-129826247D01*
X131174819Y-106142857D02*
X130698628Y-106476190D01*
X131174819Y-106714285D02*
X130174819Y-106714285D01*
X130174819Y-106714285D02*
X130174819Y-106333333D01*
X130174819Y-106333333D02*
X130222438Y-106238095D01*
X130222438Y-106238095D02*
X130270057Y-106190476D01*
X130270057Y-106190476D02*
X130365295Y-106142857D01*
X130365295Y-106142857D02*
X130508152Y-106142857D01*
X130508152Y-106142857D02*
X130603390Y-106190476D01*
X130603390Y-106190476D02*
X130651009Y-106238095D01*
X130651009Y-106238095D02*
X130698628Y-106333333D01*
X130698628Y-106333333D02*
X130698628Y-106714285D01*
X130270057Y-105761904D02*
X130222438Y-105714285D01*
X130222438Y-105714285D02*
X130174819Y-105619047D01*
X130174819Y-105619047D02*
X130174819Y-105380952D01*
X130174819Y-105380952D02*
X130222438Y-105285714D01*
X130222438Y-105285714D02*
X130270057Y-105238095D01*
X130270057Y-105238095D02*
X130365295Y-105190476D01*
X130365295Y-105190476D02*
X130460533Y-105190476D01*
X130460533Y-105190476D02*
X130603390Y-105238095D01*
X130603390Y-105238095D02*
X131174819Y-105809523D01*
X131174819Y-105809523D02*
X131174819Y-105190476D01*
X130508152Y-104333333D02*
X131174819Y-104333333D01*
X130127200Y-104571428D02*
X130841485Y-104809523D01*
X130841485Y-104809523D02*
X130841485Y-104190476D01*
X189183333Y-128259580D02*
X189135714Y-128307200D01*
X189135714Y-128307200D02*
X188992857Y-128354819D01*
X188992857Y-128354819D02*
X188897619Y-128354819D01*
X188897619Y-128354819D02*
X188754762Y-128307200D01*
X188754762Y-128307200D02*
X188659524Y-128211961D01*
X188659524Y-128211961D02*
X188611905Y-128116723D01*
X188611905Y-128116723D02*
X188564286Y-127926247D01*
X188564286Y-127926247D02*
X188564286Y-127783390D01*
X188564286Y-127783390D02*
X188611905Y-127592914D01*
X188611905Y-127592914D02*
X188659524Y-127497676D01*
X188659524Y-127497676D02*
X188754762Y-127402438D01*
X188754762Y-127402438D02*
X188897619Y-127354819D01*
X188897619Y-127354819D02*
X188992857Y-127354819D01*
X188992857Y-127354819D02*
X189135714Y-127402438D01*
X189135714Y-127402438D02*
X189183333Y-127450057D01*
X189516667Y-127354819D02*
X190135714Y-127354819D01*
X190135714Y-127354819D02*
X189802381Y-127735771D01*
X189802381Y-127735771D02*
X189945238Y-127735771D01*
X189945238Y-127735771D02*
X190040476Y-127783390D01*
X190040476Y-127783390D02*
X190088095Y-127831009D01*
X190088095Y-127831009D02*
X190135714Y-127926247D01*
X190135714Y-127926247D02*
X190135714Y-128164342D01*
X190135714Y-128164342D02*
X190088095Y-128259580D01*
X190088095Y-128259580D02*
X190040476Y-128307200D01*
X190040476Y-128307200D02*
X189945238Y-128354819D01*
X189945238Y-128354819D02*
X189659524Y-128354819D01*
X189659524Y-128354819D02*
X189564286Y-128307200D01*
X189564286Y-128307200D02*
X189516667Y-128259580D01*
X100716666Y-95831009D02*
X100383333Y-95831009D01*
X100383333Y-96354819D02*
X100383333Y-95354819D01*
X100383333Y-95354819D02*
X100859523Y-95354819D01*
X101764285Y-96354819D02*
X101192857Y-96354819D01*
X101478571Y-96354819D02*
X101478571Y-95354819D01*
X101478571Y-95354819D02*
X101383333Y-95497676D01*
X101383333Y-95497676D02*
X101288095Y-95592914D01*
X101288095Y-95592914D02*
X101192857Y-95640533D01*
D11*
X101759800Y-120033332D02*
X101807419Y-119890475D01*
X101807419Y-119890475D02*
X101807419Y-119652380D01*
X101807419Y-119652380D02*
X101759800Y-119557142D01*
X101759800Y-119557142D02*
X101712180Y-119509523D01*
X101712180Y-119509523D02*
X101616942Y-119461904D01*
X101616942Y-119461904D02*
X101521704Y-119461904D01*
X101521704Y-119461904D02*
X101426466Y-119509523D01*
X101426466Y-119509523D02*
X101378847Y-119557142D01*
X101378847Y-119557142D02*
X101331228Y-119652380D01*
X101331228Y-119652380D02*
X101283609Y-119842856D01*
X101283609Y-119842856D02*
X101235990Y-119938094D01*
X101235990Y-119938094D02*
X101188371Y-119985713D01*
X101188371Y-119985713D02*
X101093133Y-120033332D01*
X101093133Y-120033332D02*
X100997895Y-120033332D01*
X100997895Y-120033332D02*
X100902657Y-119985713D01*
X100902657Y-119985713D02*
X100855038Y-119938094D01*
X100855038Y-119938094D02*
X100807419Y-119842856D01*
X100807419Y-119842856D02*
X100807419Y-119604761D01*
X100807419Y-119604761D02*
X100855038Y-119461904D01*
X100807419Y-119128570D02*
X101807419Y-118890475D01*
X101807419Y-118890475D02*
X101093133Y-118699999D01*
X101093133Y-118699999D02*
X101807419Y-118509523D01*
X101807419Y-118509523D02*
X100807419Y-118271428D01*
X100807419Y-117461904D02*
X100807419Y-117652380D01*
X100807419Y-117652380D02*
X100855038Y-117747618D01*
X100855038Y-117747618D02*
X100902657Y-117795237D01*
X100902657Y-117795237D02*
X101045514Y-117890475D01*
X101045514Y-117890475D02*
X101235990Y-117938094D01*
X101235990Y-117938094D02*
X101616942Y-117938094D01*
X101616942Y-117938094D02*
X101712180Y-117890475D01*
X101712180Y-117890475D02*
X101759800Y-117842856D01*
X101759800Y-117842856D02*
X101807419Y-117747618D01*
X101807419Y-117747618D02*
X101807419Y-117557142D01*
X101807419Y-117557142D02*
X101759800Y-117461904D01*
X101759800Y-117461904D02*
X101712180Y-117414285D01*
X101712180Y-117414285D02*
X101616942Y-117366666D01*
X101616942Y-117366666D02*
X101378847Y-117366666D01*
X101378847Y-117366666D02*
X101283609Y-117414285D01*
X101283609Y-117414285D02*
X101235990Y-117461904D01*
X101235990Y-117461904D02*
X101188371Y-117557142D01*
X101188371Y-117557142D02*
X101188371Y-117747618D01*
X101188371Y-117747618D02*
X101235990Y-117842856D01*
X101235990Y-117842856D02*
X101283609Y-117890475D01*
X101283609Y-117890475D02*
X101378847Y-117938094D01*
D10*
X174654819Y-112116666D02*
X174178628Y-112449999D01*
X174654819Y-112688094D02*
X173654819Y-112688094D01*
X173654819Y-112688094D02*
X173654819Y-112307142D01*
X173654819Y-112307142D02*
X173702438Y-112211904D01*
X173702438Y-112211904D02*
X173750057Y-112164285D01*
X173750057Y-112164285D02*
X173845295Y-112116666D01*
X173845295Y-112116666D02*
X173988152Y-112116666D01*
X173988152Y-112116666D02*
X174083390Y-112164285D01*
X174083390Y-112164285D02*
X174131009Y-112211904D01*
X174131009Y-112211904D02*
X174178628Y-112307142D01*
X174178628Y-112307142D02*
X174178628Y-112688094D01*
X174654819Y-111164285D02*
X174654819Y-111735713D01*
X174654819Y-111449999D02*
X173654819Y-111449999D01*
X173654819Y-111449999D02*
X173797676Y-111545237D01*
X173797676Y-111545237D02*
X173892914Y-111640475D01*
X173892914Y-111640475D02*
X173940533Y-111735713D01*
X82157142Y-108354819D02*
X81823809Y-107878628D01*
X81585714Y-108354819D02*
X81585714Y-107354819D01*
X81585714Y-107354819D02*
X81966666Y-107354819D01*
X81966666Y-107354819D02*
X82061904Y-107402438D01*
X82061904Y-107402438D02*
X82109523Y-107450057D01*
X82109523Y-107450057D02*
X82157142Y-107545295D01*
X82157142Y-107545295D02*
X82157142Y-107688152D01*
X82157142Y-107688152D02*
X82109523Y-107783390D01*
X82109523Y-107783390D02*
X82061904Y-107831009D01*
X82061904Y-107831009D02*
X81966666Y-107878628D01*
X81966666Y-107878628D02*
X81585714Y-107878628D01*
X83109523Y-108354819D02*
X82538095Y-108354819D01*
X82823809Y-108354819D02*
X82823809Y-107354819D01*
X82823809Y-107354819D02*
X82728571Y-107497676D01*
X82728571Y-107497676D02*
X82633333Y-107592914D01*
X82633333Y-107592914D02*
X82538095Y-107640533D01*
X83728571Y-107354819D02*
X83823809Y-107354819D01*
X83823809Y-107354819D02*
X83919047Y-107402438D01*
X83919047Y-107402438D02*
X83966666Y-107450057D01*
X83966666Y-107450057D02*
X84014285Y-107545295D01*
X84014285Y-107545295D02*
X84061904Y-107735771D01*
X84061904Y-107735771D02*
X84061904Y-107973866D01*
X84061904Y-107973866D02*
X84014285Y-108164342D01*
X84014285Y-108164342D02*
X83966666Y-108259580D01*
X83966666Y-108259580D02*
X83919047Y-108307200D01*
X83919047Y-108307200D02*
X83823809Y-108354819D01*
X83823809Y-108354819D02*
X83728571Y-108354819D01*
X83728571Y-108354819D02*
X83633333Y-108307200D01*
X83633333Y-108307200D02*
X83585714Y-108259580D01*
X83585714Y-108259580D02*
X83538095Y-108164342D01*
X83538095Y-108164342D02*
X83490476Y-107973866D01*
X83490476Y-107973866D02*
X83490476Y-107735771D01*
X83490476Y-107735771D02*
X83538095Y-107545295D01*
X83538095Y-107545295D02*
X83585714Y-107450057D01*
X83585714Y-107450057D02*
X83633333Y-107402438D01*
X83633333Y-107402438D02*
X83728571Y-107354819D01*
X133641666Y-87554819D02*
X133641666Y-88269104D01*
X133641666Y-88269104D02*
X133594047Y-88411961D01*
X133594047Y-88411961D02*
X133498809Y-88507200D01*
X133498809Y-88507200D02*
X133355952Y-88554819D01*
X133355952Y-88554819D02*
X133260714Y-88554819D01*
X134641666Y-88554819D02*
X134070238Y-88554819D01*
X134355952Y-88554819D02*
X134355952Y-87554819D01*
X134355952Y-87554819D02*
X134260714Y-87697676D01*
X134260714Y-87697676D02*
X134165476Y-87792914D01*
X134165476Y-87792914D02*
X134070238Y-87840533D01*
X131788095Y-124754819D02*
X131788095Y-125564342D01*
X131788095Y-125564342D02*
X131835714Y-125659580D01*
X131835714Y-125659580D02*
X131883333Y-125707200D01*
X131883333Y-125707200D02*
X131978571Y-125754819D01*
X131978571Y-125754819D02*
X132169047Y-125754819D01*
X132169047Y-125754819D02*
X132264285Y-125707200D01*
X132264285Y-125707200D02*
X132311904Y-125659580D01*
X132311904Y-125659580D02*
X132359523Y-125564342D01*
X132359523Y-125564342D02*
X132359523Y-124754819D01*
X132740476Y-124754819D02*
X133359523Y-124754819D01*
X133359523Y-124754819D02*
X133026190Y-125135771D01*
X133026190Y-125135771D02*
X133169047Y-125135771D01*
X133169047Y-125135771D02*
X133264285Y-125183390D01*
X133264285Y-125183390D02*
X133311904Y-125231009D01*
X133311904Y-125231009D02*
X133359523Y-125326247D01*
X133359523Y-125326247D02*
X133359523Y-125564342D01*
X133359523Y-125564342D02*
X133311904Y-125659580D01*
X133311904Y-125659580D02*
X133264285Y-125707200D01*
X133264285Y-125707200D02*
X133169047Y-125754819D01*
X133169047Y-125754819D02*
X132883333Y-125754819D01*
X132883333Y-125754819D02*
X132788095Y-125707200D01*
X132788095Y-125707200D02*
X132740476Y-125659580D01*
X143607142Y-121454819D02*
X143273809Y-120978628D01*
X143035714Y-121454819D02*
X143035714Y-120454819D01*
X143035714Y-120454819D02*
X143416666Y-120454819D01*
X143416666Y-120454819D02*
X143511904Y-120502438D01*
X143511904Y-120502438D02*
X143559523Y-120550057D01*
X143559523Y-120550057D02*
X143607142Y-120645295D01*
X143607142Y-120645295D02*
X143607142Y-120788152D01*
X143607142Y-120788152D02*
X143559523Y-120883390D01*
X143559523Y-120883390D02*
X143511904Y-120931009D01*
X143511904Y-120931009D02*
X143416666Y-120978628D01*
X143416666Y-120978628D02*
X143035714Y-120978628D01*
X143988095Y-120550057D02*
X144035714Y-120502438D01*
X144035714Y-120502438D02*
X144130952Y-120454819D01*
X144130952Y-120454819D02*
X144369047Y-120454819D01*
X144369047Y-120454819D02*
X144464285Y-120502438D01*
X144464285Y-120502438D02*
X144511904Y-120550057D01*
X144511904Y-120550057D02*
X144559523Y-120645295D01*
X144559523Y-120645295D02*
X144559523Y-120740533D01*
X144559523Y-120740533D02*
X144511904Y-120883390D01*
X144511904Y-120883390D02*
X143940476Y-121454819D01*
X143940476Y-121454819D02*
X144559523Y-121454819D01*
X145130952Y-120883390D02*
X145035714Y-120835771D01*
X145035714Y-120835771D02*
X144988095Y-120788152D01*
X144988095Y-120788152D02*
X144940476Y-120692914D01*
X144940476Y-120692914D02*
X144940476Y-120645295D01*
X144940476Y-120645295D02*
X144988095Y-120550057D01*
X144988095Y-120550057D02*
X145035714Y-120502438D01*
X145035714Y-120502438D02*
X145130952Y-120454819D01*
X145130952Y-120454819D02*
X145321428Y-120454819D01*
X145321428Y-120454819D02*
X145416666Y-120502438D01*
X145416666Y-120502438D02*
X145464285Y-120550057D01*
X145464285Y-120550057D02*
X145511904Y-120645295D01*
X145511904Y-120645295D02*
X145511904Y-120692914D01*
X145511904Y-120692914D02*
X145464285Y-120788152D01*
X145464285Y-120788152D02*
X145416666Y-120835771D01*
X145416666Y-120835771D02*
X145321428Y-120883390D01*
X145321428Y-120883390D02*
X145130952Y-120883390D01*
X145130952Y-120883390D02*
X145035714Y-120931009D01*
X145035714Y-120931009D02*
X144988095Y-120978628D01*
X144988095Y-120978628D02*
X144940476Y-121073866D01*
X144940476Y-121073866D02*
X144940476Y-121264342D01*
X144940476Y-121264342D02*
X144988095Y-121359580D01*
X144988095Y-121359580D02*
X145035714Y-121407200D01*
X145035714Y-121407200D02*
X145130952Y-121454819D01*
X145130952Y-121454819D02*
X145321428Y-121454819D01*
X145321428Y-121454819D02*
X145416666Y-121407200D01*
X145416666Y-121407200D02*
X145464285Y-121359580D01*
X145464285Y-121359580D02*
X145511904Y-121264342D01*
X145511904Y-121264342D02*
X145511904Y-121073866D01*
X145511904Y-121073866D02*
X145464285Y-120978628D01*
X145464285Y-120978628D02*
X145416666Y-120931009D01*
X145416666Y-120931009D02*
X145321428Y-120883390D01*
X143257142Y-113059580D02*
X143209523Y-113107200D01*
X143209523Y-113107200D02*
X143066666Y-113154819D01*
X143066666Y-113154819D02*
X142971428Y-113154819D01*
X142971428Y-113154819D02*
X142828571Y-113107200D01*
X142828571Y-113107200D02*
X142733333Y-113011961D01*
X142733333Y-113011961D02*
X142685714Y-112916723D01*
X142685714Y-112916723D02*
X142638095Y-112726247D01*
X142638095Y-112726247D02*
X142638095Y-112583390D01*
X142638095Y-112583390D02*
X142685714Y-112392914D01*
X142685714Y-112392914D02*
X142733333Y-112297676D01*
X142733333Y-112297676D02*
X142828571Y-112202438D01*
X142828571Y-112202438D02*
X142971428Y-112154819D01*
X142971428Y-112154819D02*
X143066666Y-112154819D01*
X143066666Y-112154819D02*
X143209523Y-112202438D01*
X143209523Y-112202438D02*
X143257142Y-112250057D01*
X144209523Y-113154819D02*
X143638095Y-113154819D01*
X143923809Y-113154819D02*
X143923809Y-112154819D01*
X143923809Y-112154819D02*
X143828571Y-112297676D01*
X143828571Y-112297676D02*
X143733333Y-112392914D01*
X143733333Y-112392914D02*
X143638095Y-112440533D01*
X144780952Y-112583390D02*
X144685714Y-112535771D01*
X144685714Y-112535771D02*
X144638095Y-112488152D01*
X144638095Y-112488152D02*
X144590476Y-112392914D01*
X144590476Y-112392914D02*
X144590476Y-112345295D01*
X144590476Y-112345295D02*
X144638095Y-112250057D01*
X144638095Y-112250057D02*
X144685714Y-112202438D01*
X144685714Y-112202438D02*
X144780952Y-112154819D01*
X144780952Y-112154819D02*
X144971428Y-112154819D01*
X144971428Y-112154819D02*
X145066666Y-112202438D01*
X145066666Y-112202438D02*
X145114285Y-112250057D01*
X145114285Y-112250057D02*
X145161904Y-112345295D01*
X145161904Y-112345295D02*
X145161904Y-112392914D01*
X145161904Y-112392914D02*
X145114285Y-112488152D01*
X145114285Y-112488152D02*
X145066666Y-112535771D01*
X145066666Y-112535771D02*
X144971428Y-112583390D01*
X144971428Y-112583390D02*
X144780952Y-112583390D01*
X144780952Y-112583390D02*
X144685714Y-112631009D01*
X144685714Y-112631009D02*
X144638095Y-112678628D01*
X144638095Y-112678628D02*
X144590476Y-112773866D01*
X144590476Y-112773866D02*
X144590476Y-112964342D01*
X144590476Y-112964342D02*
X144638095Y-113059580D01*
X144638095Y-113059580D02*
X144685714Y-113107200D01*
X144685714Y-113107200D02*
X144780952Y-113154819D01*
X144780952Y-113154819D02*
X144971428Y-113154819D01*
X144971428Y-113154819D02*
X145066666Y-113107200D01*
X145066666Y-113107200D02*
X145114285Y-113059580D01*
X145114285Y-113059580D02*
X145161904Y-112964342D01*
X145161904Y-112964342D02*
X145161904Y-112773866D01*
X145161904Y-112773866D02*
X145114285Y-112678628D01*
X145114285Y-112678628D02*
X145066666Y-112631009D01*
X145066666Y-112631009D02*
X144971428Y-112583390D01*
X178433333Y-126309580D02*
X178385714Y-126357200D01*
X178385714Y-126357200D02*
X178242857Y-126404819D01*
X178242857Y-126404819D02*
X178147619Y-126404819D01*
X178147619Y-126404819D02*
X178004762Y-126357200D01*
X178004762Y-126357200D02*
X177909524Y-126261961D01*
X177909524Y-126261961D02*
X177861905Y-126166723D01*
X177861905Y-126166723D02*
X177814286Y-125976247D01*
X177814286Y-125976247D02*
X177814286Y-125833390D01*
X177814286Y-125833390D02*
X177861905Y-125642914D01*
X177861905Y-125642914D02*
X177909524Y-125547676D01*
X177909524Y-125547676D02*
X178004762Y-125452438D01*
X178004762Y-125452438D02*
X178147619Y-125404819D01*
X178147619Y-125404819D02*
X178242857Y-125404819D01*
X178242857Y-125404819D02*
X178385714Y-125452438D01*
X178385714Y-125452438D02*
X178433333Y-125500057D01*
X179290476Y-125738152D02*
X179290476Y-126404819D01*
X179052381Y-125357200D02*
X178814286Y-126071485D01*
X178814286Y-126071485D02*
X179433333Y-126071485D01*
D12*
%TO.C,R11*%
X163635000Y-77422936D02*
X163635000Y-77877064D01*
X162165000Y-77422936D02*
X162165000Y-77877064D01*
%TO.C,U5*%
X90975000Y-99360000D02*
X89175000Y-99360000D01*
X90975000Y-99360000D02*
X91775000Y-99360000D01*
X90975000Y-102480000D02*
X90175000Y-102480000D01*
X90975000Y-102480000D02*
X91775000Y-102480000D01*
%TO.C,U10*%
X196250000Y-95500000D02*
X196250000Y-95900000D01*
X196250000Y-95900000D02*
X196550000Y-95900000D01*
%TO.C,U2*%
X178865000Y-112890000D02*
X178865000Y-113840000D01*
X178865000Y-113840000D02*
X177525000Y-113840000D01*
X178865000Y-123110000D02*
X178865000Y-122160000D01*
X179815000Y-112890000D02*
X178865000Y-112890000D01*
X179815000Y-123110000D02*
X178865000Y-123110000D01*
X188135000Y-112890000D02*
X189085000Y-112890000D01*
X188135000Y-123110000D02*
X189085000Y-123110000D01*
X189085000Y-112890000D02*
X189085000Y-113840000D01*
X189085000Y-123110000D02*
X189085000Y-122160000D01*
%TO.C,C2*%
X192585000Y-113538748D02*
X192585000Y-114061252D01*
X191115000Y-113538748D02*
X191115000Y-114061252D01*
%TO.C,C27*%
X161209420Y-122990000D02*
X161490580Y-122990000D01*
X161209420Y-124010000D02*
X161490580Y-124010000D01*
%TO.C,C11*%
X98459420Y-108090000D02*
X98740580Y-108090000D01*
X98459420Y-109110000D02*
X98740580Y-109110000D01*
%TO.C,R23*%
X116077500Y-113037258D02*
X116077500Y-112562742D01*
X117122500Y-113037258D02*
X117122500Y-112562742D01*
%TO.C,R7*%
X135572936Y-129590000D02*
X137027064Y-129590000D01*
X135572936Y-131410000D02*
X137027064Y-131410000D01*
%TO.C,U6*%
X165140000Y-77850000D02*
X165140000Y-79650000D01*
X165140000Y-77850000D02*
X165140000Y-77050000D01*
X168260000Y-77850000D02*
X168260000Y-78650000D01*
X168260000Y-77850000D02*
X168260000Y-77050000D01*
D11*
%TO.C,SW4*%
X108633000Y-106490000D02*
X120317000Y-106490000D01*
X120317000Y-106490000D02*
X120317000Y-111062000D01*
X120317000Y-111062000D02*
X108633000Y-111062000D01*
X108633000Y-111062000D02*
X108633000Y-106490000D01*
D12*
%TO.C,L1*%
X175710000Y-124697936D02*
X175710000Y-125902064D01*
X172990000Y-124697936D02*
X172990000Y-125902064D01*
%TO.C,R22*%
X111427500Y-113087258D02*
X111427500Y-112612742D01*
X112472500Y-113087258D02*
X112472500Y-112612742D01*
%TO.C,R30*%
X158087258Y-124022500D02*
X157612742Y-124022500D01*
X158087258Y-122977500D02*
X157612742Y-122977500D01*
%TO.C,R14*%
X166247936Y-91170000D02*
X167702064Y-91170000D01*
X166247936Y-92990000D02*
X167702064Y-92990000D01*
%TO.C,FB1*%
X102215748Y-103660000D02*
X99384252Y-103660000D01*
X102215748Y-98440000D02*
X99384252Y-98440000D01*
%TO.C,C17*%
X137738748Y-89515000D02*
X138261252Y-89515000D01*
X137738748Y-90985000D02*
X138261252Y-90985000D01*
%TO.C,U1*%
X120140000Y-127310000D02*
X120495000Y-127310000D01*
X120495000Y-127310000D02*
X120495000Y-128775000D01*
X124460000Y-127310000D02*
X124105000Y-127310000D01*
X120140000Y-125300000D02*
X120140000Y-127310000D01*
X120140000Y-125300000D02*
X120140000Y-123290000D01*
X124460000Y-125300000D02*
X124460000Y-127310000D01*
X124460000Y-125300000D02*
X124460000Y-123290000D01*
X120140000Y-123290000D02*
X120495000Y-123290000D01*
X124460000Y-123290000D02*
X124105000Y-123290000D01*
%TO.C,C13*%
X170060000Y-77359420D02*
X170060000Y-77640580D01*
X169040000Y-77359420D02*
X169040000Y-77640580D01*
%TO.C,R6*%
X135960000Y-117722936D02*
X135960000Y-119177064D01*
X134140000Y-117722936D02*
X134140000Y-119177064D01*
%TO.C,R27*%
X100012742Y-112377500D02*
X100487258Y-112377500D01*
X100012742Y-113422500D02*
X100487258Y-113422500D01*
%TO.C,R15*%
X176927064Y-102985000D02*
X176472936Y-102985000D01*
X176927064Y-101515000D02*
X176472936Y-101515000D01*
%TO.C,C14*%
X177415000Y-85311252D02*
X177415000Y-84788748D01*
X178885000Y-85311252D02*
X178885000Y-84788748D01*
%TO.C,C24*%
X117110000Y-116059420D02*
X117110000Y-116340580D01*
X116090000Y-116059420D02*
X116090000Y-116340580D01*
%TO.C,R19*%
X109677500Y-113087258D02*
X109677500Y-112612742D01*
X110722500Y-113087258D02*
X110722500Y-112612742D01*
%TO.C,JP1*%
X173200000Y-114100000D02*
X173200000Y-116900000D01*
X171200000Y-114100000D02*
X173200000Y-114100000D01*
X173200000Y-116900000D02*
X171200000Y-116900000D01*
X171200000Y-116900000D02*
X171200000Y-114100000D01*
%TO.C,R3*%
X120315000Y-118077064D02*
X120315000Y-117622936D01*
X121785000Y-118077064D02*
X121785000Y-117622936D01*
%TO.C,C28*%
X161209420Y-120490000D02*
X161490580Y-120490000D01*
X161209420Y-121510000D02*
X161490580Y-121510000D01*
%TO.C,D1*%
X130111500Y-113745000D02*
X130111500Y-113280000D01*
X130111500Y-111120000D02*
X130111500Y-110655000D01*
X124763686Y-113280827D02*
G75*
G03*
X130111499Y-113744830I2787814J1080827D01*
G01*
X125297022Y-113280428D02*
G75*
G03*
X129806183Y-113280000I2254478J1080428D01*
G01*
X129806184Y-111120000D02*
G75*
G03*
X125297021Y-111119571I-2254684J-1080000D01*
G01*
X130111499Y-110655170D02*
G75*
G03*
X124763686Y-111119173I-2559999J-1544830D01*
G01*
%TO.C,R8*%
X90172500Y-104162742D02*
X90172500Y-104637258D01*
X89127500Y-104162742D02*
X89127500Y-104637258D01*
%TO.C,C5*%
X179538748Y-109315000D02*
X180061252Y-109315000D01*
X179538748Y-110785000D02*
X180061252Y-110785000D01*
%TO.C,C19*%
X143609420Y-92040000D02*
X143890580Y-92040000D01*
X143609420Y-93060000D02*
X143890580Y-93060000D01*
%TO.C,R21*%
X99762742Y-88377500D02*
X100237258Y-88377500D01*
X99762742Y-89422500D02*
X100237258Y-89422500D01*
%TO.C,R20*%
X119237258Y-89522500D02*
X118762742Y-89522500D01*
X119237258Y-88477500D02*
X118762742Y-88477500D01*
%TO.C,C20*%
X192461252Y-109160000D02*
X191038748Y-109160000D01*
X192461252Y-107340000D02*
X191038748Y-107340000D01*
%TO.C,R5*%
X128572936Y-129640000D02*
X130027064Y-129640000D01*
X128572936Y-131460000D02*
X130027064Y-131460000D01*
%TO.C,C1*%
X176785000Y-114938748D02*
X176785000Y-115461252D01*
X175315000Y-114938748D02*
X175315000Y-115461252D01*
%TO.C,C12*%
X86461252Y-111085000D02*
X85938748Y-111085000D01*
X86461252Y-109615000D02*
X85938748Y-109615000D01*
D11*
%TO.C,SW2*%
X116875000Y-82600000D02*
X111075000Y-82600000D01*
X111075000Y-82600000D02*
X111075000Y-95400000D01*
X111075000Y-95400000D02*
X116875000Y-95400000D01*
X116875000Y-95400000D02*
X116875000Y-82600000D01*
D12*
%TO.C,C7*%
X171690000Y-120640580D02*
X171690000Y-120359420D01*
X172710000Y-120640580D02*
X172710000Y-120359420D01*
D11*
%TO.C,SW5*%
X133455000Y-103820000D02*
X120655000Y-103820000D01*
X120655000Y-103820000D02*
X120655000Y-98020000D01*
X120655000Y-98020000D02*
X133455000Y-98020000D01*
X133455000Y-98020000D02*
X133455000Y-103820000D01*
D12*
%TO.C,R9*%
X89127500Y-97787258D02*
X89127500Y-97312742D01*
X90172500Y-97787258D02*
X90172500Y-97312742D01*
%TO.C,L2*%
X181178733Y-87790000D02*
X181521267Y-87790000D01*
X181178733Y-88810000D02*
X181521267Y-88810000D01*
%TO.C,C26*%
X97290000Y-112290580D02*
X97290000Y-112009420D01*
X98310000Y-112290580D02*
X98310000Y-112009420D01*
%TO.C,C25*%
X122840580Y-106810000D02*
X122559420Y-106810000D01*
X122840580Y-105790000D02*
X122559420Y-105790000D01*
%TO.C,C16*%
X137738748Y-91715000D02*
X138261252Y-91715000D01*
X137738748Y-93185000D02*
X138261252Y-93185000D01*
%TO.C,C8*%
X173615000Y-120961252D02*
X173615000Y-120438748D01*
X175085000Y-120961252D02*
X175085000Y-120438748D01*
D11*
%TO.C,SW7*%
X150545000Y-126842000D02*
X155117000Y-126842000D01*
X155117000Y-126842000D02*
X155117000Y-115158000D01*
X155117000Y-115158000D02*
X150545000Y-115158000D01*
X150545000Y-115158000D02*
X150545000Y-126842000D01*
D12*
%TO.C,U8*%
X172890000Y-91190000D02*
X172890000Y-91545000D01*
X172890000Y-91545000D02*
X171425000Y-91545000D01*
X172890000Y-95510000D02*
X172890000Y-95155000D01*
X174900000Y-91190000D02*
X172890000Y-91190000D01*
X174900000Y-91190000D02*
X176910000Y-91190000D01*
X174900000Y-95510000D02*
X172890000Y-95510000D01*
X174900000Y-95510000D02*
X176910000Y-95510000D01*
X176910000Y-91190000D02*
X176910000Y-91545000D01*
X176910000Y-95510000D02*
X176910000Y-95155000D01*
%TO.C,R2*%
X121672936Y-129690000D02*
X123127064Y-129690000D01*
X121672936Y-131510000D02*
X123127064Y-131510000D01*
%TO.C,R4*%
X127185000Y-117622936D02*
X127185000Y-118077064D01*
X125715000Y-117622936D02*
X125715000Y-118077064D01*
%TO.C,R13*%
X179565000Y-80627064D02*
X179565000Y-80172936D01*
X181035000Y-80627064D02*
X181035000Y-80172936D01*
%TO.C,J2*%
X84040000Y-96220000D02*
X82040000Y-96220000D01*
X80140000Y-96220000D02*
X78240000Y-96220000D01*
X78240000Y-96220000D02*
X78240000Y-105620000D01*
X84040000Y-105620000D02*
X82040000Y-105620000D01*
X80140000Y-105620000D02*
X78240000Y-105620000D01*
%TO.C,J3*%
X154865000Y-80090000D02*
X152365000Y-80090000D01*
X152365000Y-80090000D02*
X152365000Y-82590000D01*
X156685000Y-80390000D02*
X152665000Y-80390000D01*
X154975000Y-80390000D02*
X154975000Y-80890000D01*
X154165000Y-80390000D02*
X154165000Y-81390000D01*
X152665000Y-80390000D02*
X152665000Y-88110000D01*
X156185000Y-80890000D02*
X156185000Y-87610000D01*
X154975000Y-80890000D02*
X156185000Y-80890000D01*
X154165000Y-81390000D02*
X152665000Y-81390000D01*
X154165000Y-87110000D02*
X152665000Y-87110000D01*
X156185000Y-87610000D02*
X154975000Y-87610000D01*
X154975000Y-87610000D02*
X154975000Y-88110000D01*
X156685000Y-88110000D02*
X156685000Y-80390000D01*
X154165000Y-88110000D02*
X154165000Y-87110000D01*
X152665000Y-88110000D02*
X156685000Y-88110000D01*
%TO.C,R26*%
X126577500Y-105737258D02*
X126577500Y-105262742D01*
X127622500Y-105737258D02*
X127622500Y-105262742D01*
%TO.C,D2*%
X171065000Y-98435000D02*
X164905000Y-98435000D01*
X171065000Y-98435000D02*
X171065000Y-103555000D01*
X171195000Y-99725000D02*
X171195000Y-99725000D01*
X171195000Y-99725000D02*
X171065000Y-99725000D01*
X171065000Y-99725000D02*
X171195000Y-99725000D01*
X171065000Y-99725000D02*
X171065000Y-99725000D01*
X171195000Y-102265000D02*
X171195000Y-102265000D01*
X171195000Y-102265000D02*
X171065000Y-102265000D01*
X171065000Y-102265000D02*
X171195000Y-102265000D01*
X171065000Y-102265000D02*
X171065000Y-102265000D01*
X171065000Y-103555000D02*
X164905000Y-103555000D01*
X171065000Y-103555000D02*
X171065000Y-103955000D01*
X169945000Y-103555000D02*
X171065000Y-103555000D01*
X171065000Y-103955000D02*
X169945000Y-103955000D01*
X169945000Y-103955000D02*
X169945000Y-103555000D01*
X164905000Y-98435000D02*
G75*
G03*
X164905000Y-103555000I0J-2560000D01*
G01*
%TO.C,C15*%
X181590000Y-80390580D02*
X181590000Y-80109420D01*
X182610000Y-80390580D02*
X182610000Y-80109420D01*
%TO.C,R31*%
X158087258Y-121522500D02*
X157612742Y-121522500D01*
X158087258Y-120477500D02*
X157612742Y-120477500D01*
%TO.C,R16*%
X118672500Y-83862742D02*
X118672500Y-84337258D01*
X117627500Y-83862742D02*
X117627500Y-84337258D01*
%TO.C,C23*%
X112460000Y-116109420D02*
X112460000Y-116390580D01*
X111440000Y-116109420D02*
X111440000Y-116390580D01*
%TO.C,R18*%
X117827500Y-113037258D02*
X117827500Y-112562742D01*
X118872500Y-113037258D02*
X118872500Y-112562742D01*
%TO.C,R12*%
X181427064Y-84135000D02*
X180972936Y-84135000D01*
X181427064Y-82665000D02*
X180972936Y-82665000D01*
%TO.C,R17*%
X101372500Y-83712742D02*
X101372500Y-84187258D01*
X100327500Y-83712742D02*
X100327500Y-84187258D01*
D11*
%TO.C,U9*%
X134850000Y-105550000D02*
X157150000Y-105550000D01*
X157150000Y-105550000D02*
X157150000Y-96450000D01*
X157150000Y-96450000D02*
X134850000Y-96450000D01*
X134850000Y-96450000D02*
X134850000Y-105550000D01*
X154275000Y-101000000D02*
G75*
G03*
X154275000Y-101000000I-2800000J0D01*
G01*
D12*
%TO.C,R29*%
X148012742Y-122977500D02*
X148487258Y-122977500D01*
X148012742Y-124022500D02*
X148487258Y-124022500D01*
D11*
%TO.C,U7*%
X181950000Y-84650000D02*
X180650000Y-84650000D01*
X180650000Y-84650000D02*
X180650000Y-86350000D01*
X180650000Y-86350000D02*
X181950000Y-86350000D01*
X181950000Y-86350000D02*
X181950000Y-84650000D01*
X181050000Y-85000000D02*
G75*
G03*
X181050000Y-85000000I-50000J0D01*
G01*
D12*
%TO.C,C22*%
X99660000Y-93109420D02*
X99660000Y-93390580D01*
X98640000Y-93109420D02*
X98640000Y-93390580D01*
%TO.C,C21*%
X120360000Y-93159420D02*
X120360000Y-93440580D01*
X119340000Y-93159420D02*
X119340000Y-93440580D01*
D11*
%TO.C,SW3*%
X107875000Y-82520000D02*
X102075000Y-82520000D01*
X102075000Y-82520000D02*
X102075000Y-95320000D01*
X102075000Y-95320000D02*
X107875000Y-95320000D01*
X107875000Y-95320000D02*
X107875000Y-82520000D01*
D12*
%TO.C,U4*%
X134140000Y-127310000D02*
X134495000Y-127310000D01*
X134495000Y-127310000D02*
X134495000Y-128775000D01*
X138460000Y-127310000D02*
X138105000Y-127310000D01*
X134140000Y-125300000D02*
X134140000Y-127310000D01*
X134140000Y-125300000D02*
X134140000Y-123290000D01*
X138460000Y-125300000D02*
X138460000Y-127310000D01*
X138460000Y-125300000D02*
X138460000Y-123290000D01*
X134140000Y-123290000D02*
X134495000Y-123290000D01*
X138460000Y-123290000D02*
X138105000Y-123290000D01*
%TO.C,C10*%
X98488748Y-104965000D02*
X99011252Y-104965000D01*
X98488748Y-106435000D02*
X99011252Y-106435000D01*
%TO.C,R25*%
X106037258Y-120922500D02*
X105562742Y-120922500D01*
X106037258Y-119877500D02*
X105562742Y-119877500D01*
%TO.C,C9*%
X92140000Y-104540580D02*
X92140000Y-104259420D01*
X93160000Y-104540580D02*
X93160000Y-104259420D01*
%TO.C,C6*%
X179709420Y-127590000D02*
X179990580Y-127590000D01*
X179709420Y-128610000D02*
X179990580Y-128610000D01*
%TO.C,R24*%
X131627500Y-105737258D02*
X131627500Y-105262742D01*
X132672500Y-105737258D02*
X132672500Y-105262742D01*
%TO.C,C3*%
X188461252Y-126685000D02*
X187938748Y-126685000D01*
X188461252Y-125215000D02*
X187938748Y-125215000D01*
D11*
%TO.C,SW6*%
X102075000Y-119320000D02*
X107875000Y-119320000D01*
X107875000Y-119320000D02*
X107875000Y-106520000D01*
X107875000Y-106520000D02*
X102075000Y-106520000D01*
X102075000Y-106520000D02*
X102075000Y-119320000D01*
D12*
%TO.C,R1*%
X172935000Y-111272936D02*
X172935000Y-111727064D01*
X171465000Y-111272936D02*
X171465000Y-111727064D01*
%TO.C,R10*%
X87439564Y-108760000D02*
X85985436Y-108760000D01*
X87439564Y-106940000D02*
X85985436Y-106940000D01*
%TO.C,J1*%
X141885000Y-85190000D02*
X141885000Y-82690000D01*
X141885000Y-82690000D02*
X139385000Y-82690000D01*
X141585000Y-87010000D02*
X141585000Y-82990000D01*
X141585000Y-85300000D02*
X141085000Y-85300000D01*
X141585000Y-84490000D02*
X140585000Y-84490000D01*
X141585000Y-82990000D02*
X126365000Y-82990000D01*
X141085000Y-86510000D02*
X126865000Y-86510000D01*
X141085000Y-85300000D02*
X141085000Y-86510000D01*
X140585000Y-84490000D02*
X140585000Y-82990000D01*
X127365000Y-84490000D02*
X127365000Y-82990000D01*
X126865000Y-86510000D02*
X126865000Y-85300000D01*
X126865000Y-85300000D02*
X126365000Y-85300000D01*
X126365000Y-87010000D02*
X141585000Y-87010000D01*
X126365000Y-84490000D02*
X127365000Y-84490000D01*
X126365000Y-82990000D02*
X126365000Y-87010000D01*
%TO.C,U3*%
X127140000Y-127310000D02*
X127495000Y-127310000D01*
X127495000Y-127310000D02*
X127495000Y-128775000D01*
X131460000Y-127310000D02*
X131105000Y-127310000D01*
X127140000Y-125300000D02*
X127140000Y-127310000D01*
X127140000Y-125300000D02*
X127140000Y-123290000D01*
X131460000Y-125300000D02*
X131460000Y-127310000D01*
X131460000Y-125300000D02*
X131460000Y-123290000D01*
X127140000Y-123290000D02*
X127495000Y-123290000D01*
X131460000Y-123290000D02*
X131105000Y-123290000D01*
%TO.C,R28*%
X148012742Y-120477500D02*
X148487258Y-120477500D01*
X148012742Y-121522500D02*
X148487258Y-121522500D01*
%TO.C,C18*%
X142638748Y-110015000D02*
X143161252Y-110015000D01*
X142638748Y-111485000D02*
X143161252Y-111485000D01*
%TO.C,C4*%
X181861252Y-126685000D02*
X181338748Y-126685000D01*
X181861252Y-125215000D02*
X181338748Y-125215000D01*
%TD*%
M02*
